<mxfile host="Electron" agent="Mozilla/5.0 (Windows NT 10.0; Win64; x64) AppleWebKit/537.36 (KHTML, like Gecko) draw.io/26.2.2 Chrome/134.0.6998.178 Electron/35.1.2 Safari/537.36" version="26.2.2">
  <diagram name="PÃ¡gina-1" id="Jog1CB8qQKN3SRwH82qO">
    <mxGraphModel dx="1044" dy="722" grid="1" gridSize="10" guides="1" tooltips="1" connect="1" arrows="1" fold="1" page="1" pageScale="1" pageWidth="827" pageHeight="1169" math="0" shadow="0">
      <root>
        <mxCell id="0" />
        <mxCell id="1" parent="0" />
        <mxCell id="afmU8dC9JJLxZKjYQpjQ-30" value="" style="rounded=0;whiteSpace=wrap;html=1;strokeColor=none;fillColor=#FFCCE6;" vertex="1" parent="1">
          <mxGeometry x="490" y="100" width="430" height="450" as="geometry" />
        </mxCell>
        <mxCell id="afmU8dC9JJLxZKjYQpjQ-12" style="edgeStyle=orthogonalEdgeStyle;rounded=0;orthogonalLoop=1;jettySize=auto;html=1;strokeColor=default;endArrow=none;startFill=0;" edge="1" parent="1" source="afmU8dC9JJLxZKjYQpjQ-34" target="afmU8dC9JJLxZKjYQpjQ-36">
          <mxGeometry relative="1" as="geometry">
            <mxPoint x="610" y="380" as="targetPoint" />
          </mxGeometry>
        </mxCell>
        <mxCell id="afmU8dC9JJLxZKjYQpjQ-13" value="Puerto  Ethernet 2" style="edgeLabel;html=1;align=center;verticalAlign=middle;resizable=0;points=[];" vertex="1" connectable="0" parent="afmU8dC9JJLxZKjYQpjQ-12">
          <mxGeometry x="-0.0354" y="1" relative="1" as="geometry">
            <mxPoint as="offset" />
          </mxGeometry>
        </mxCell>
        <mxCell id="afmU8dC9JJLxZKjYQpjQ-38" style="edgeStyle=orthogonalEdgeStyle;rounded=0;orthogonalLoop=1;jettySize=auto;html=1;endArrow=none;startFill=0;" edge="1" parent="1" source="afmU8dC9JJLxZKjYQpjQ-4" target="afmU8dC9JJLxZKjYQpjQ-34">
          <mxGeometry relative="1" as="geometry" />
        </mxCell>
        <mxCell id="afmU8dC9JJLxZKjYQpjQ-4" value="&lt;div&gt;&lt;b&gt;Servidor &lt;/b&gt;&lt;span style=&quot;background-color: transparent; color: light-dark(rgb(0, 0, 0), rgb(255, 255, 255));&quot;&gt;&lt;b&gt;Kelsier&lt;/b&gt;&lt;/span&gt;&lt;/div&gt;&lt;div&gt;&lt;span style=&quot;background-color: transparent; color: light-dark(rgb(0, 0, 0), rgb(255, 255, 255));&quot;&gt;(CPU, 8 GB RAM, 256 GB&lt;/span&gt;&lt;span style=&quot;background-color: transparent; color: light-dark(rgb(0, 0, 0), rgb(255, 255, 255));&quot;&gt;&amp;nbsp;SSD)&amp;nbsp; &amp;nbsp;&lt;/span&gt;&lt;/div&gt;&lt;div&gt;&lt;span style=&quot;background-color: transparent; color: light-dark(rgb(0, 0, 0), rgb(255, 255, 255));&quot;&gt;ip: 192.168.0.100&lt;/span&gt;&lt;/div&gt;" style="rounded=1;whiteSpace=wrap;html=1;" vertex="1" parent="1">
          <mxGeometry x="510" y="220" width="200" height="60" as="geometry" />
        </mxCell>
        <mxCell id="afmU8dC9JJLxZKjYQpjQ-8" value="" style="shape=image;verticalLabelPosition=bottom;labelBackgroundColor=default;verticalAlign=top;aspect=fixed;imageAspect=0;image=data:image/png,iVBORw0KGgoAAAANSUhEUgAAAgAAAAIACAYAAAD0eNT6AAAAAXNSR0IArs4c6QAAIABJREFUeAHsvQd8FNeWJo7fexPehJ2wk2d28uzsxN2Zf9hJO2/mv/P7T1J1SwIRJIRIBpTV6u6qlghuwAHb7xljG9tgbAMO2BiHB7bBxoDBmCxyziCkLgVQzlKfnVPoyqWmu+tWd1V1Vfep3w+q1HW76t6vqu/57rn3nG/CBNoIAUKAECAECAFCgBAgBAgBQoAQIAQIAUKAECAECAFCgBAgBAgBQoAQIAQIAUKAECAECAFCgBAgBAgBQoAQIAQIAUKAECAECAFCgBAgBAgBQoAQIAQIAUKAECAECAFCgBAgBAgBZyMQDAa/UyOKkwJ+aUPALx0JiNK1gCiekUTp/YAYkGp9tX/q7BZS7QkBQoAQIAQIAUJgHAIBf2DifYMvQUCM80+SDgX8gbwJEyY8NO4C9AchQAgQAoQAIUAIOAcBSZL+LOCXdsU1+lEIQY0oHa3x+/+Xc1pKNSUECAFCgBAgBAiBCYFA4OcCYmBVQJSG9Br/8eUD2xb5fL9DkBIChAAhQAgQAoSAjREIBoPfkvzSjIAoNY835HHc/lE8ABHf7Q2I4gpRFH/axk2nqhEChAAhQAgQApmJQI3f/72AKJ2MMN7x5/y1jf8335ekO0guaH1AZr5f1GpCgBAgBAgBmyEgiuJvBMTAxoAohU0z/mqi4JeO1Phq/tpmMFB1CAFCgBAgBAiBzEDA4/F8F8P3AqLUZYnhV5MAhWwENvr9/l/JDLSplYQAIUAIEAKEgA0QkCRpsq/ae6yqsvJsdZXnRkCU+lNAAiAgSR01kiSWl5f/mA1goSoQAoQAIUAIEALpiUBOTs6f5mRnv+sWhBa3IIDq32COy3W2MD9/p6eq6koKyMAVSZLc6Yk6tYoQIAQIAUKAEEghAm5BqP2Pf4Mqo68mAOrjkYk5uQcryspOW04EJGmnJEl/kkKY6NaEACFACBAChED6IOAShO9zGH41CcDj8ORJeV96PdW3LSYCQwEx8LzH4/n59HkC1BJCgBAgBAgBQsBiBLIFYXICxl9NBrqmFxR8LPr8nRYTgXu4SDEYDP6oxZDR7QgBQoAQIAQIAWcjkJeX9123y1WfJAFQyEC2y3Vr/ty5nwdEacRiInCxxl/zb85+ElR7QoAQIAQIAULAQgTcWVmzjDD+6mvkZGcfqyorNy9h0PhwQXUioZ2iKP6RhfDRrQgBQoAQIAQIAWcikC0Iu9TG28Dj4cl5eZ/7vb56i70Bg6hRIEnSzzjziVCtCQFCgBAgBAgBkxH4h3/4hx93C0KfgUZfvS6AHbcVFRZtD4hSn8VEoFXyS5V5eXnfNhlGujwhQAgQAoQAIeAsBFwu11+YbPwZCYBsl+va/HnzdltMAkASpTqSHXbWe0m1JQQIAUKAEDAZAXdW1iSrCAC7z8ScnINVlZUXrSYCATGwLRAI/LbJkNLlCQFCgBAgBAgB+yPgysp6mBlmrX22yzU2mtcqy3F+cOrkyZ9LftFISeFvFgPGWiQoSj0oOxwMBn/K/k+HakgIEAKEACFACJiEgFsQKjiMtWL4Dx8+DMuXLTOSBEC2IDTPLlLWBwxY6hEg2WGT3ii6LCFACBAChIAjEHALgoeXANy5cwdwO3nyJJSXlhpLBFyucyUlJQctJQGiBDWidFgUxb9yxMOiShIChAAhQAgQAkYh4MrKquYlAA2jBABJwPDwMGzbuhWmTZliKBFAfQFPVdVli4lAOCCS7LBR7xRdhxAgBAgBQsABCOgiAA0NigdA/V9nZyesW7sWctxuI4lAb/7UqV/4vb4Oi4lAd0AMBEl22AEvLlWRECAECAFCIDkEsl0uL7cHIAoBYGTg2rVrUBsIGEkC8FqhOTNnYVrhYYuJwJWAP5CXHLL0bUKAECAECAFCwMYIuAXBx0sAGhsbmb2PuT965AjMmzvXUCKQ63afLS8tszytsCRKX0iS9Gc2fnxUNUKAECAECAFCIDEE9BCAUCgU0/CrTwwMDMD7W7bA1MmTjSQC4bzc3P3eKo/VaYWHAqK4pqam5hcTQ5i+RQgQAoQAIUAI2BABV1aWn9cDIHMSAEYG7t69C8+uXIkZAI0kAt2F+QU7Ra+vy8ppgRpRuotphYPB4Hds+BipSoQAIUAIEAKEgD4Esl0u0SwCwIjA5cuXQfT7jSQBeK2GubPn7A+IUthKIhDwSxckSfpXfShTaUKAECAECAFCwGYI/IcQkMRNAGSZ2XTd+3A4DPv374c5s2YZSgRy3O5jleUVpywlAUqWwcA2v9//ezZ7nFQdQoAQIAQIAUKADwE9BKCpqUm34Y/8Ql9fH2x6+23ImzjRSCIwMjkvb7+/2ttkMRFQZIeD5cH/xIc2lSIECAFCgBAgBGyCgDsrK8DrAWg2gAAwQtDS0qKsD+C9N2e5thkFhTslv9hvMRFoDPgD80h22CYvNVWDECAECAFCQBsBl8tVw2lcwUgCwIjA6dOnobK83EhvAC46vF48b95XFpMACPilY5Ik/Z026lSCECAECAFCgBBIMQJuQajlJgDNzcxux9zXnTwLQ0NDMc9HO4HrA/bs3g0zpk83lAjkZmfXeSqqLllMBMIBSdq80Ov9rRQ/Wro9IUAIEAKEACEQGwE9BADd9lrbwmU/gFklIuz7+ohW0QfOd3V1wYb162FiTo6RRGBw2uSpu0Sfv8ViItCDaYU9Hs93Y6NPZwgBQoAQIAQIgRQh4BaEhbwegFYOAlC79PvwzzkzlX/Skifhxs36Bwy91geoOrhs6VIjSQDKDt8tKiraGxClIYuJQL3kl2ZMmDDhoRQ9YrotIUAIEAKEACHwIAKurKxFZhEAJAL/Nmk2rHppPbR3dGrZ/QfOo+xwWUmJoUQgx+0+V1ZsvexwQJIO1fhq/ueDT4A+IQQIAUKAECAEUoCALgLQ2vqAkY78QO0BYJ4A3E8qLIUPt30Ow8MjkV+J+7dpssO5uUe8nuqbFnsDRlB2uLa29pdT8KjploQAIUAIEAKEwDcIZLtci3k9AJjaV2uLRQAYGZhbVgNH6k5pXeaB82bKDot+f6fFRKCLZIe/eQfpiBAgBAgBQiAFCLgFYQkvAbh3794DhjnyAy0CwIjAksdWQmNIf2Khq1evQo0ZssOzZu0JiNKIxUTgMskOp+Clp1sSAoQAIUAITJjgysp6JBUEAInAv0+aAy+uewt6enojeYTm3yg7/PCcOUavDzhbXlpqeVphlB2u9dX+Kb2PhAAhQAgQAoSAZQgYTQBqgk+PRQGw0b7WftrsKvjksz2A+QD0bEx2eEpenpFEIDx5Yt5er8ebEtlhr9f7C5Y9fLoRIUAIEAKEQOYikO1yBXk9AG1tbZr2ORECwAhCmS8IZy9c1rxHZIHW1laTZIenfyn5xV4rpwWY7DClFc7c3yS1nBAgBAgBSxBwC8JSXgLQ3t4eaXsf+DvwyFO6PQCMAOD+X3JnwaNPr4amZu2Ig8ibX750CUSfz0hvAKYVvjFv7jzMH2Ct7LAonQ/4A/9iyUtANyEECAFCgBDIPATsRgAYGXBNnQdvvPMhDAwORtr5uH+ztMIzZ8wwlAjk5uTUVVZUXrDSG3D/XoFtgUDgdzPvzaQWEwKEACFACJiKgCsraxmvB6DDAg8AIwBsXzDXAzv37Ne9PoDJDk/KzTWSCAxNmZS3x++pbraYCAwExMAqkh029adAFycECAFCILMQyHa5lnMTgI6OuKNvPHnp6g2oCjya1DQAM/7qvX/xCrh247bm/SMLNDY2wlMrVhhJAvBa94qKir5IgexwA8oOB4PBb2XWW0qtJQQIAUKAEDAcAT0EAJPx8GzohkcxoMJ5XkOJAK4PeOrZtdDWrk1EIut56tQpqCgrM5QI5Lhc14rnLzhssTcAakTpaI2/5m8NfxnogoQAIUAIEAKZg4BbEB7l9QDwEgBmfPv7B5R5fGHKPEOJwMTpJfDuB5/A4KA+2WFMK/zZjh1QaLDs8MSc3IOeqqrLFhMBRXZYkqTfzJy3lVpKCBAChAAhYBgCbkF4jJcAdHF6ABgBYPuW1nvKyB1H8Gq3frLHs0sDcOjoSXYb7j3KDq9buxZys7ON9Agw2eFWi4mAIjscDAZ/3LCXgi5ECBAChAAhkP4IZGdlPc5NALq6uI1stIKnz16EkuolhpIAJBEYenjz9p1ot4z7WX19PSwNBo0kAXgtefbMWbsCojRsLREQb5PscPr/XqmFhAAhQAgYhoAeAtDd3R3XoPKcxPUBuKp/6qwKQ4kASyvcnWBa4fkPP2woEchxu8+WF5davj4g4Jf2SJL03w17QehChAAhQAgQAumJgFsQnuD1ABhBABhJ6OrugVc3boasyXMNJQJ5M8oU2eGREVvIDofzcnP3V1d5blvrDUBRo8BGn8/3S+n51lKrCAFCgBAgBJJGwC0IK3gJQE9PD7PfMfd9W7bA8NWrMc9HnrjTKAMqAya7HiDy+yXVj8Dpcxcjb6f5Nyoern7hBchxu430CPRMn1awXfKLlsoOS6LUFhADUnl5+Y8l/aLQBQgBQoAQIATSCwGjCUD3k09CW0EBdK9aBSOt/Ol8j586B/MqFhpOBJBchORmTcMfWQBlhwOSZCQJALfL1TgnNbLDl2r8/qz0enOpNYQAIUAIEAJJIeDKynqS1wPQ26st26sQgPx8aMvPh/ZZswA9AmHOdL5Dw8OK+x7D/CJH9Mn8jWGION3Q29sXaec1/0bZ4blGyw5nZ9dVlJWftHhaAAnNTkmS/iSpF4a+TAgQAoQAIZAeCLhdrqfMIgBIAvBfR3k5DOzbp2lsWYHOrm54cd1b8K8TZxtKBPLnJJZWuL+/H97fsgUMlh0eUWSHq713LCYCg0pa4aqqn02PN5haQQgQAoQAIZAQAm5BeJqXAGB+fa1N7QFgBIDtux59FIZv3dK6xNj5q9dvgW/hE4aSAPQklPuXwvmLV8buw3vQ2tJiuOywKyuruzBfkR3us5IIkOxwQj8X+hIhQAgQAumDgJUEQCECBQXQ8+KLEObQFWCG+eCRE1C0wG8oEWBphe+1aUscs3qw/aVLl8Dv9Rq6PiDb5bo+KjsMVhIBSZRO1Pj930ufN5paQggQAoQAIcCFgEsQvs/rAUBXuNYWzwPAPAG4b587F/q3bgUY4kvnOzAwoKT/zc5fYCgRcE+bn5TscFFhoaFEIDc7+1hVecUlK0nA/XsFti3y+X6H66WhQoQAIUAIEALORyDb5fpBKggAIwMdXi8MHj+uxSvGzrfebTMlrfCsElERMBq7EeeBSbLDgyg77PN6WywmAorssCiKP+38N5taQAgQAoQAIRAXAbcgPMNLAHAUrrXxegAYAWD7rscfh+H6eq3Lj52/dOW6KbLD0pIn4cZN/nqwCjU0NBgvO+xyKbLDAVEasJgIkOxw3F8NnSQECAFCIA0QsAsBUIhAYSH0btgAYY6EQ2h4v0krXGnotMC/TZoNq15aD+0dfPLHjATg/tTJk1BusOxwttt9tXjBgiMWkwAI+KUjkiT9TRq85tQEQoAQIAQIgUgEXIKwktcDMMgRz5+oB4B5AnDfPm8e9G/fDsCZzrevr/++7PDkhw0lAhMLS5W8BMPD+tMKK7LDBQWGrg9A2eHqqqorFhMBkh2O/NHQ34QAIUAIpAMC2VlZz9qNADAy0FlbC0MXLqgH2HGPGxqb4NGnVxtKAjBscG5ZDRypOxX33tFOonyyCbLDA9OmTNnr9/o6LCYC3QExECTZ4XT41VMbCAFCgBCYMGGCHgIwxLFi3wgPACMAbN/99NMw0syfzvfE6fMwv2qR4UQA0wo3hpqi2fq4nymyw488Yqg3wC0IoRTLDtPvhxAgBAgBQsDJCLgFYRWvB2B4eDiuocOTXStWKNn/mPE2at8+cyb0btoEYY5kRFgPdNt/8tkemFxUbigRYLLDPQnKDs8zXnb4XFlZmeVphSVR2l3r8/25k999qjshQAgQAhmNgFsQnnMCAWBEoqO09H5a4XBYk4wohGQ0rTAu7EtGTyDyu9NmVykEQ6/sMHpRtm3dCtOmTDHSI6DIDnurPPUWTwuQ7HBG9x7UeEKAEHA0AtlZWc87iQAwItC5aBEMXb7MRQKw0O07jbBo+TOGkgAkBWW+IJw9z18PVmEmO5ztchlJBHoK8wt2il5fl8VE4B7KDgeDwR919I+BKk8IEAKEQCYhoIcA8Ix2zZoCYIZ/3H40rfBIWxuzq5r7rw8dg5kmpBV+7c33NO8drcDVK1cgIIpGkgC8VsPc2XP2B0QpbDERuCRJ0r9n0u+H2koIEAKEgGMRcLtcL/B6ADDuXmuzlAAkKTucU1BsmEegdun3taCJeR5x3b9/v/Gyw243phU+ZTEJUGSHa7w1f+zYHwVVnBAgBAiBTEDALQirnU4AmFegw+OBwUOHYhrayBN377UpCX9QGChyjl/v38kQAFYv1FrY9PbbkDdxopEegZHJeXn7/V5fk8VEQJEdliTpZzLhd0RtJAQIAULAcQi4srJeTBcCwIhA12OP6ZIdvnz1BlTXPJYUCcD1BUZtZsgOu7Oy2mcUFO6U/GK/xUSgVfJLlXl5ed923I+DKkwIEAKEQDojoIcA8Bi4VEwBMMM/bq9Tdhjd8Pu+PgKF87wJEQEjCQDD+eyZM1BZUWGkNwCy3e7r8+fP/8piEoASx8clSfr7dP4tUdsIAUKAEHAUAm6X6yVeDwAzTPH2tiEAbH3Aww/rkh3u7x+4n1Z4yjxdRGDxoyvjwZLwOSQme3bvBqNlhydmZ9d5KqpIdthRv1aqLCFACBACBiLgFoSXeQgAhqvxbHYjAMwroMgOnzjB0wSlTEvrPV2yw5gl0Mytu7sbNqxfD5Nyc430CAxOmzx1l+jzWy073BsQxRUkO2zgD5kuRQgQAoSAXgQyhQAwIqDIDt+5w22rT5+9CMWexZregEcef5b7mskUbLhzB5YvW2YkCYBsQbhbVFS0NyBKQ5ZODUjSHckvzZgwYcJDet9bKk8IEAKEACGQJAIuQViTCR4ARgCUfYKyw1NmVsQkAsEnViVj13V/9yTKDpeWGkoEctzu86XFxYctJQGipMgO1/hq/jrJV5m+TggQAoQAIaAHAXdW1loeApDjdnMZKbtOAYwjAGx9gE7Z4a7uHnh142bImjz3ASKwdMVzXPgYWQi1GTCtcP7UqYYSgYm5uUeqqzy3LCYC4YAY2Oj3+39Fz/tLZQkBQoAQIAQSRMAtCK/wEIDc7Gwu29X1xBOmiAFFM+BGfabIDl+8yNU+LHSnIQQ456/OFbB0xfPc3ze6IJMdRpLG8yw5y/TmT536hd/n67SYCJDscIK/ZfoaIUAIEAK6ECACkD9GWPTKDh8/dQ7mVSxUiMCyJ1NHABihqL99G4ImyA7PmTVrT0CURiwmAlcC/kCerpeZChMChAAhQAjwI+AShHU8I8J09gCoPQl6ZYeHhofhw22fwzMvvMrscMr3R48cgXlz5xrpDYAct/tceWmp9WmF/dIukh3m/z1TSUKAECAEuBHIzsp6lYcATMzJ4TJsTpwCUBMAdqxXdnh4eIQLH6sKMdnhqZMnG0kEwpMn5u31erxWyw4PBURxTU1NzS9yv9hUkBAgBAgBQiA+ArwEAOPPebZ0IQCMCHQuXgxDV67wNN2WZe7evQurX3gBDJYd7i7Mn/6l6PP3WjwtQLLD8X/OdJYQIAQIAX4E3ILwGo8HIFMJgEIEEpAdthsbuHLlCkh+v5HeACQVN+bNnYf5A6yWHb5Y46/5N/63nEoSAoQAIUAIPICAWxBe5yEAqFDHs6WbB4B5AnDfPmsW9G3ZAjA4yAOF7cqMyQ7Pnm0oEZiYk1NXUVFx0WJvgCI7LIriHz3wUtMHhAAhQAgQAtoIZAvCeiIA30QCqA1+rGO9ssN2YwJ9fX1myA4PTZmUt8fvqW62mAiQ7LD2z5xKEAKEACHwIAK8BGDypElcdiydPQCRhECRHb59mwsXOxZqaWmBZ1euNNQbkC0IbTMKC78k2eEHf2v0CSFACBACtkLA7XJt4PEAEAGI4SUoLISedesg3NFhRxvPVafTp09DZXm5sUTA5bpePH+B5WmFJVGqq/H7/5etfmRUGUKAECAE7IiAWxA28hCAKXl5XMYkkzwAao9AO0srPDzMhZPdCjHZ4RnTpxtKBCZm59R5yiuvWDwtAAExsC0QCPy2HX9zVCdCgBAgBGyBgEsQ3iACEGN0P6oZoDb0WsedPh8MnjxpN/vOXZ+uri5FdhjzPvC8F5xlBqdNmbLX7/O3W0wEelB2OBgM/pQtfmxUCUKAECAE7IQALwHAhDI8W6Z6ACKJgZJWWJZ5ILNlGUV2eOlSI0kAhg22jsoOD1tKBEh22E5dDtWFECAE7IKA2+V6k2cURwQgAS8Bkx3u7bWlkeepFMoOl5WUGEoEclF2uKTkhKUkQJSgRpQOi6L4V3b57VE9CAFCgBBIKQJuQXiLhwBMmzKFx14AeQAeJAodJSUwsGsXwIi90gVzPVAAYLLD+A7wvCu8ZRTZYU/1bYuJwAjJDqe0y6GbEwKEgF0QIALwoMGOdOcb9XfnwoUwpEN2mNdAW1Wus7MT1q1di8JARhKBHpQdlnxil8VEQJEdLi8v/zG7/BapHoQAIUAIWIqASxDe5hmx5U+dymVnyAOgQSgKCqB71SoYaWnhwtOOha5duwa1gYCRJADcLlcjyQ5b+tOnmxEChECmI+DOytpEBEDDaCcQDaDlNUDZYUwrHB4YsKON56qTSbLDZ8tLy05b7A0ASZS+kCTpzzK9P6D2EwKEQAYh4BaEd3gIQMG0aVxGgTwA+shER1kZDOzbBxAOc+Frt0IDAwPw/pYtYLDs8IgiO+z1NlhMBEh2OIP6PmoqIZDxCHATgPx8LttDBEAfAWCegs4lS2DYwbLDra2tSlphM2SHJb/YZyURqBGlu5JfqgwGg9/J+A6CACAECIH0RcAlCO/yeACmEwEAZqxN24/KDofb27nIlh0LXb58GUTjZYevj8oOg5VEIOCXLkiS9K/p++unlhEChEBGI5AtCJuJACQ2ajeLCLTPnu142eE9u3fDzBkzDF0omJuTU1dVXnHJUhIgSkpaYb/f/3sZ3VFQ4wkBQiD9EHC7XO/xEIDCggKuASdNARhHJjqqq2Hw0CEu3O1YyEzZYZ/X22IxEVBkh4Plwf+Ufr0AtYgQIAQyEgFuAjB9OpeNIQJgHAFgHoauxx+H4fp6LvztWKixsRGeWrHCUG+A2+W6V1RU9IXkFwcsJgKNAX9gXjAY/FZGdhjUaEKAEEgfBNyCsIXHA4AqcTwbEQDjCYBCBJjscGcnz2OwZZlTp04ZLjuc43JdK16w4IjFJAACfumYJEl/lz49AbWEECAEMg6BbEF4nwiASUbbjPwBTHbYwWmFP9uxAwqNlh3OyT1YXVVltexwOCBJmxd6vb+VcR0HNZgQIAScjwAvASgqLOQaVZIHwBoy0en3w9CpU1zPxI6FTJIdHlBkh72+Dos9Aj0BMRD0eDzfdX6PQC0gBAiBjEHA7XJ9wOMBwBXdPBvOV7O5a9qbTwYU2eGmJp5HY8syd+7cgWUGyw67BUGePXPWroAoWSs7LEr1kl+aMWHChIcypgOhhhIChIBzEXALwodEAMw31KaSoRkzoHfDBgg7XHa41GDZ4Zzs7PNlpWUnLfYGQECSDtX4av6nc3sFqjkhQAhkBALZgvAREQCHE4DRtQYdpaX3ZYcdmlbYJNnhcF5u7n5vZVW9xURAkR2ura395YzoSKiRhAAh4DwEeAnArKIiLhcyTQGknkx0LloEQ5cucT0vOxbq6OgwRXa4ML9gp+j1WS073IXrA0h22Hl9I9WYEEh7BNxZWT/k8QDMnjmTy1YQAUg9AVCmG5jscGsr13OzY6GrV69CjQmyw3Nnz9kfEKWwxR6BywF/IC/tOxRqICFACDgHAbcgbOUiALNmcdkIIgA2IQCj0wJjssODg1zPz46FUHb44TlzDE0klJOdjWmFT1lMAnB9wM5aX+2fOqeHoJoSAoRA2iJABMBeBtusxYId5eX3ZYftaOE56tTf36/IDk/JyzOSCIxMzsvb76v2NllMBBTZYa/X+wtp27FQwwgBQsD+CLgEYRuPB2AOeQDSIryxa/lyGL51i8Pk2rOIKbLDWVntMwoKd0p+sd9KIsBkh/Py8r5t/56CakgIEAJph4BbED7mIQBzZ8/msgg0BeAAjwKTHe7o4Hqmdix0+dIlEH0+I70BkO12Xy+eN+8rK0nA6L3OS5L0z2nXuVCDCAFCwN4IuAXhEy4CMGcOlx0gAuAAAsDWB8ydC/1btwI4dH1AOBwGlB3GLJU87zBvmYnZ2XWVFRWXrScCgW2BQOB37d1jUO0IAUIgbRAgAuAcg23a+gCvFwaPH+cieHYsxGSHJ+XmGkkEBqdNnrpL9PlbLSYCAwExsIpkh9Omi6WGEAL2RcAlCJ/yjIxwFTbPRh4A5xIKfHYkOyyMJxH3ZYf3BkRpyGIi0ECyw/btN6lmhEBaIOAWhO08BGDe3Lk89h+IADiXACgehsLC+2mFe3q4nrcdC506eRIqysrGG3IhwrDr/DvH7b5QVlx82GISADWidLTGX/O3adHZUCMIAULAXgi4Xa4dXATg4Ye5+vqeV19Ni9XyZrnbnXLd9gULYGD3bgAHpxVWZIcLCgwlAhNzc49UV3luWUwEFNlhSZJ+0169B9WGECAEHI2A0QQAWcJgXR10eDxEBEYX2znF6EerZ2dNDQxduMBF/uxYqKuzU0krnJudbSQRuC877PN1WkwEFNnhYDD4447udKjyhAAhYA8E3ILwGY8HYD6nB2DMCAwPQ//27dA+Zw4RgTQgAorscHPz2ON12kF9fT0sfeQRI0kAXkueM2vWvoAojVhLBMTbJDtsj/6TakEIOBqBbEH4nIcALJg3L6E+f6StDXrWrYO26dOJCDicCGBa4d5NmyAFLo3sAAAgAElEQVTc15fQu2CHL2FaYSSzPO88b5kct/tceWmp9WmF/dIeSZL+u6M7IKo8IUAIpA4BXgJQPH9+Uv338I0b0LV0KZEAh5MAnCYg2eGoCwpRdvhAtaf6jrXeAPQ+BDb6fL5fSl0vQncmBAgBRyLgzsrayTPS4SUA9Xd3weBwd0yyoKwPqKggIpAGRMDpssP37t2D1S+8ANkul5Eege7C/Olfij5/r5VEQBKltoAYkEh22JHdMFWaEEgNAm5B+IKLACxYENOoq0/su+iBD4/9M1wOvQPh8Ij61NhxeGBAyUDXPns2EQGnE4F0kB2+cgVV+owkAXithhTJDl+q8fuzUtOb0F0JAULAUQhkC8IuHgJQooMAvHvorwD/fX6mCFo6T40Z/siDkbt3oefFF6GtoICIgMOJQPusWdC3ZQuEHZxWeP/+/TDXYNnhiW738cqKiotWegOUe0nSTkmS/sRRnRFVlhAgBKxFgJcAlBYXR9rvqH+jB4ARgPv7v4YDl2uhZ0COWh4/HL5yBTqXLCES4HASoKwPSAPZ4U1vvw15Eyca6RFQZIf91b5mi4nAoJJWuKrqZ63tVehuhAAh4AgE3IKwm8cDkDgBuO8NeP/IP8LZ+ldgeGQgOhEIhxW9+vbiYiICaUAEuh591Nmywy0t8OzKlYauD8gWhLYZhYVfkuywI7pGqiQhkP4IuAVhDxcBKCmJbrgjPn3QA3CfADCvwCcnJ8Htu7sivvXNnxhihq7ktqIiIgJOJwJpIDt89swZqKqsNNIbgKTievH8BZanFZZE6USN3/+99O/VqIWEACHAhYBLEL7kIQBlBhEARgS+PF8G7b3XvrH8EUcjoRB0r1pFJMDpJCA/H9offvi+7PDQUMRTdsaf5skO59R5KquuWDwtAAExsG2Rz/c7XB0EFSIECIH0RYCXAJSXlnL11loeAEYAcP/e4b+D4zefgcHhrpjXHjp7FjpFkYhAGhCBDpQdPnEi5rO2+wnTZIenTNnr9/nbLSYCiuywKIo/nb69G7WMECAE4iLgFoS9PB4AMwgAIwNaYYMwPAwDu3ZB+/z5RATSgAgossN37tjd3sesX0NDAzy1YoWx0wKCcLeoqAhlh4ctJgIkOxy3h6SThEAaI+B2ufZxEYCyspgdovqEHg8AIwBsfz9s8KT6cuOOw11dilRtW2EhEQGnE4E0kB0+efIklBstO+xyoezwSYtJAAT80hFJkv4mjbs6ahohQAhEIsBLAFBfnWdLhgDcJwIcYYMNDdD95JNEApxOAnB9wLx5imgUjERPGsXzzqWyzPDwMJgmO+ypvm0xESDZ4cgOkv4mBNIZAZcgfMXjAagsL+fqZ5MnAPejBrYc+Yf4YYNMdriqiohAGhCBztpaGLp4kesds2MhJjuc43YbOTXQmz9t2peST+yymAh0B8RAkGSH07nnp7YRAhMmTHALwn47EgA2LfDJyYlxwwZhaIhkh9OAAGASIfzneNnh27chaLzscGjOrFl7Uig7TH0lIUAIpCMC7qysr7kIQEUF18DLKA8AIwBsv0crbJDJDlNaYcd7RNJFdnie8bLDZ8tLS09b7A0ASZR21/p8f56O/R+1iRDIaAR4CQAmQ+HZzCIASAQ2H/5bOHp9BQwMtcesyvC1a9AVDDreCLIRcSbvFdnhffsAwuGYz9vOJ4aGhmDb1q0wdfJkI6cFwpMn5u31Vlc3WEwESHY4oy0FNT4tEXALwgEeD4DHBgSAeQM+PPb/x1UbRIMxeOgQdJSXExFIg+kBRXb48mU72/q4dbt7965pssOSX+yzmAjcQ9nhYDD4o2nZIVKjCIFMQsAtCAedRgAYEfj8zAxo6YwTNjgwQGmF04AAKF6Q0bTCI21tcY2tnU9euXIFJL/fSG8AphW+MW/uPMwfABb/uyRJ0r9nUl9JbSUE0g4BXgJQXVXF1beaOQXADH/k/quLXujpD8WsH8kO319glw7TCWkjOzx7tqFEYGJ29vGqiqpLFpMACEjSzhpvzR+nXcdIDSIEMgEBd1bWIR4PQLXHE9PAqk+kggAgIeAJGxw6fx46AwGaFkgDr0CHx6NM86jfPScd9/f3gwmyw0NTJuXt8Xu8rRYTAUV2WJKkn8mEPpPaSAikDQJuQTjMQwC8NicAzCuw7bgbbrR8GtsWMNnhBQuICKQBEeh67DEYvn079vO2+ZmWUdlhnt8gb5lsl6utqKjoC8kvDlhMBFolv1SZl5f37bTpIKkhhEA6I5AtCEd4OhanEABGBJSwwZ6rMbv/cE8P9G7aRLLDaUACMDV0z7p1EO7oiPm87X7izOnTUFlRYei0QI7Lda1kwYIjFpMAXItwXJKkv0/nfpPaRgikBQK8BMBXXc3Vh6ZqCoAZfvWehQ32D8VeODbS2Kgkn0mH+fFMb4MiO7x9O6B4lBM3Jjs8Y/p0Q4nAxJzcg56q1MgOBwKB306LjpIaQQikIwJuQTjK4wHweb1cfaqdCAAjA5phgwAwdOYMyQ6ngzcgPx8U2eGTsaNDuF7kFBbq7u6GDevXw8ScHCOJwGD+1Kn7/T5fp8UegZ7RsMHvpGP/SW0iBByNgFsQjvEQAL+DCQAjAhg22NwZR49+ePh+WuG5c2l9QBqQASWtsCyn0JQnd+uGO3dg+dKlRpIAvJY8Z/bs/ZanFfZLxwKBwO87urOkyhMC6YZAtiDUZQoBYERAK2xwTHZ4+nQiAk4nAkx2uLc3OWucwm8rssOlpYYSgZzs7PNl1qcVbq/x1/xbuvWh1B5CwLEI8BIA0efj6gLtOAXADL96zxM2OHzzJnQtX04kwOkkAGWH5893vOwwphWeNmWKkUQgnJebu99bWVVv4bTAUI0oFjm2w6SKEwLphIBbEI7zeABEvz+tCAAjA5phg0x2uLKSiEAaEAGnyw53dnbCurVrwWDZ4R6UHRZ9/m6LiEC4RhQr0qkfpbYQAo5EwO1yneAhAJjClGdzigeAEQC233O+FNrjhA2OyQ7Pnk1EIA2IgNNlh69duwa1gYCR3gDIdrsbH549+1BAlMIWEIGwJEnFjuw0qdKEQLogQATgr4CRAK6wwXv3lJjzNpIddjwRShvZ4blzDSUCOS7X2Yqy8jMWkIChWlH83+nSl1I7CAHHIeAShJM8HoCAKPI4AMCpHgBGAnDPEzZIssPpoy/QUVYGAw6WHR4YGID3t2wxWnZ4ZHJe3n5ftbfJZCJwz+/3/4HjOk6qMCGQDghwEwBJ4iQA1WMjarVRdeLxZ6cL44cNkuyw470A6uRJnYsXw9CVK1zvuR0LoezwsytXokKgYR4BV1ZWR9H0wj0BURo0jQj4pQuiKP50OvSn1AZCwFEIuAXhFI8HoCYQ4Orz9l1MHwLASAuGDXb3N8Zsf7i/n2SH02BdgEIGRmWHw+3tMZ+33U9cvnwZcNEuz++at0yO232pvKzsrGkkQAysdlTHSZUlBNIBAXdW1mmeTiCTCQASgW/CBvtj9v8jra3Q8+KLaTUqVo+QM+mYyQ7D4GDM523nEyyt8MwZM4wkAsOF+dO/NCmJ0AjpB6SDRaE2OAoBXgKAK455tnT0ADBPAO63HnfFVxvEtMLnzpHscJp4BDqqqx0tO9zX12e47HDexIkHTVIavOTxeL7rqA6UKksIOBkBtyCc5fEA1NbU8Nh/SHcCwMjAnvMl0NYTZ76YZIfTyhOiyA7X13P9BuxYyGjZ4dzs7JOiz99j/JRAYJmT+1OqOyHgKATcgnCOhwAsrK3l6tcyhQAgERgLGxyMrTYY7u6+Lzs8Y0ZaGcRMmg4YayuTHe7s5Pot2LHQaZQdLi83ZFogx+0+6/f67hpMArpqamp+0VGdKFWWEHAqAkQAvskDwEb3evc8YYOK7PBTTxEJSIOpgfZ58+6nFXa47HChAbLDOW73ackv9htJAmok6TGn9qdUb0LAUQi4BeE8jwdgEXkANMMbt5+aCqH2Q3EHforssN9PRCANiECnzweDDpYd7urqMkR2eHJe3ldGEoCAKJEXwFFWhCrrWATcgnCBhwAsXrgwrmFjJzNpCiCWp0ArbBBIdjitCJCSVripif0EHLe/c+cOLEtSdnhmYRHmCgDj/omPOLZTpYoTAk5BgJsALFrE1bERAbg/pbDlyPfg1O3VMDQcW4aWZIfTJ5tg24wZ0LthA4QdLjtcVlKS6PqA4bLikuPGEQDp2oQJEx5ySj9K9SQEHImAWxAucnkAiABoTgFE8wh8EzYYjkmghm/cgK6lS9NqVDy2cC4NXP162tJRUgIDu3YBhGM/75gvgg1OYFrhDevXJ5RNMNvluu33+gxTFJQk6e8c2alSpQkBpyDgdrku8RCAJUQAEiIAjBRohg2S7HBaEaDOhQth6NIlG5j0xKpw4vhxmDZlim5vwLQpUwycChDXOKUfpXoSAo5EIFsQLvMQgEcWL+bqSWgKIHZUweZDfwOHri6F/nhhgwMD0L91K7ST7LDzCUFBAXSvWgUjLS1cvx27Fbp69SoUFhToJQEj5WVlRikJ3gsGg99yZMdKlSYEnIAAEYDYBpuN3o3ef3jsn6G160zc/n4EZYcxrTDJDjueCKDscN+WLRAeGIj7zO148saNG7o9ATluNxKAsBHrAWp9vj93Qj9KdSQEHImAWxCucHkAlizh6p/IA8BHKG60fMqF5/DVq9D1yCOON4J65tHTtaxTZYeP19VBjtutyxNQMn/+ISMIgCRJxY7sWKnShIATEHALwlUeAhB85BEug0UEwFgCoIA+mlYYF5ilq3HMpHZ1LV8Owzdvcv2e7FLovffe00UAcrKzzxviBfBLbzihH6U6EgKORICXACwlApDUIsDIaQReD4DaAJDscBqFDTpMdhjVBQOSpIsEFD88/6ABXoDLjuxYqdKEgBMQcAnCNR4PwNJgUG2LYh6TB8AED0AE2iOyrCwuy6RRc7q2tX3uXGXRpxNkhzFhUN7EidwkYGJu7hEDCMBgXl7et53Ql1IdCQHHIeAWhOtEAPiMduQoPpm/b3KuAYiw/eP+HDp7FjoliaYF0iDXgFNkh9/YuJGbALgFYcTr8dxJlgSIovhrjutYqcKEgBMQcAvCDR4CgKlCeTbyAPCRCR4CEL77OMDA2fiwDw8riWfaFywgIpAGRKDr8cdh2Mayw93d3VAwbRo3CSgqnLHbAALwh07oS6mOhIDjEOAlAMuJABi6BoCLAMhzIXzn3yHcuhRgOH6ueUV2eMMGaCssJCLgdCJgc9nhTW+/zU0Asl2uq8kSgEAg8BeO61ipwoSAExDgJgDLlsUfiY6eJQ+AgR4ARgCQBDTkQrjjLYBw/Fjy4YYG6H7ySSIBTicB+fkwJjs8MsL127OqUGdnJ0zKzeUmAdVVnhvJkIBav/8vndCXUh0JAcch4BaEWzxTAMuJAKTOA4AEgP0LFQH07NLs6wfr6qDD4yEikAZEoNPvh6FTpzSfuZUFVjzxBDcBmDN7dnJyweQBcJxdoQo7BAG3INzmIQCPLl/O1b+QB8AkDwAjAGzfUgMweCP+M2Gyw3PmEBFIAyJgJ9nho0ePchOAKXl5+5L0APwPh3SnVE1CwFkI8BKAx4gAGOwB2B7feANAWD0FwAz/uL0Lwm3PA4x0xL1WuLNTkaptmz6diIDTiQCTHe7ri/vMzT6JqoG80wDZbvcVIgDOsgtU2wxBgJcAPP7oo1x9CnkAeD0ARhCA0amBxqkAXT8EgPhzxSQ7nD6JhDpKS1MuO6wjMdCI5BcHEiUBtX4/eQAyxB5RMy1GwC0Id3imAIgA8Bl23twAN1sMJADMK9BUDtAfX2QIWZyyPqCigrwBTvcG5OdD56JFKZMdXv/669zTAN4qT33CBIAEgSy2CnS7jEGAmwA89hh5AA4ZRwJMIQCMCChhg3Lc54XKdCQ7nCYeASY73Noa95kbffLjbdu4CUBZaek5IgAZY1aooU5BwC0IDTwegCcef5yr/zh4ZYmhc+W8I2qnlTOVACAR4AwbHLl7l2SH08ATgKmSx2SHBwe5fqvJFtr/1VfcBKB0QfHJRAmAJEl/5pT+lOpJCDgKAaMJQDg8DNeaPoSPjv0LEYE4HoObLTs0+1/tRYCq8EA2+o/cc4YNDl+5Ap1LltC0QBqQgY7ychjYt0/z/Uq2QF1dHTcBKJk/v44IgKNMA1U2ExBwC0KIxwOwgtMDwDqVgaEOOH7zGdh8+G+ICEQhApYRAEYIWgLaYYOjssPtxcVEBNKACCiyw7dusZ+k4fu6Y8e4CUDxggXHEyUAtb7aP82EvpjaSAhYjgA3AXjiiYQ6kHvdl2D3uQVEAiJIgOUEQCECWRC+9wOAkfa4zzLc1wd9W7ZAW1EREQGnEwEmO9wRP1Q07gsR4+QxHbkAiucnTgAkSfoTyztGuiEhkAkIuAVB5vEAPLliRYxugO/jhntfwbYT2UQERolAaggACxucwhU2OBIKkeyw0wnAaP3HZIeHhvh+sByl9CQDKp4//0SiHoAab80fZ0JfTG0kBCxHwC0ITTwE4KkkCQD2J8MjfXC2/hXYcuTvM54IpJQAsGkBeQFA/3HNrl6RHRZF8gakARno8Hph8Lj2M9d8KQBADwEomV9MBMDy3p1uSAhoIOAShGarCADrVHoGZDh0dWlGk4BbrZ8xOGLuDVkEyIx9vD1H2CAw2eH584kIpAERMEJ2+OiRI/xrAJIgAKIo/pFGN0anCQFCIBEEuAnAk0/GNFTqE7du3QLUDOfZmjqOwY7TBRlJBGxFAJAcNORAuON1gHD8FLPhrq77aYVJdtj5RKiwUHmW4Z4enp/rA2WOHD6sgwAsSDgMsKam5r8l0rfRdwgBQkADAbcgtPB4AJ5+6qkHOoBoH5w6dQq+/PJLuHTpEgxyxCNnatig7QgA8xCMhQ2Goz3esc9IdjhNkgglITtMBECjc6XThIDdEXALQisPAfg+JwG4efMm7NmzR/m3f/9+aGhogHA4vjFBq5JpYYO2JQCMCLRI2mGDmFb48GHoqKx0/mg4Ddz6mAwomX+dtbUwfPPmGMnTOjiswwOQTCIgURT/0O79KNWPEHAkAkYTAOw0urq64Pjx42NEABcLtbfHDz1jnU2mhA3angAoRIAvbBCGhqB/+3ZoJ9nhpAxwMsbbqO/2ffAB+ylq7g8dOsQ9BZAMAaipqfmvjuxcqdKEgN0RcAvCXS4PwNNPa3YIkQVaW1vh4MGDY0Tg9OnT0McpY5ruYYPOIACRYYPDkY943N8jbW3Qs24dtBUUON4QGmVQnXYdXQTg4EFuAlBSXHIq4TBAIgB2NyNUP6ci4BaEezwE4Aff//64zp73j+HhYbhx4wbs3btXIQL79u1T/h4ZiS9di9dP57DBW62fa0JoWRQAc/tr7eX5AH11mvUevn4duoJBIgFJuuRTQR7sSAD8fv8fOLV/pXoTArZGwC0IbTwE4Jkf/ECz449XoL+/H86fPz/mDThw4ACEQqF4Xxk71zvQlHZhg44kAIwg8IQNhsMweOgQdJDssKOIkB4CcPDAAW4PQGlxccIegEAg8Pu27kSpcoSAUxEwmgBcvnwZ0PUfa2tra4MjR46MEYETJ05kZNigowkAEgHesMGBAUor7CBPQN+HH8b66T7wOZJ4nsEDlikpKTmd6BQAEQCnWheqt+0RcGdltfP8iHk9ABgGiFEAJ0+ejGnYMSoAowMwSgDLZmLYoOMJAPMGhGYA9OwCgPiRHiQ7nNwKfaumA3QRgK+/toQA+P3+37N9R0oVJASciIBbEDp4CMDKZ555YAQQ7YPGxkbAeX407Djvf+3aNcB1ANE2zBNw5coVhQBgeSQE9fX1GRE2mDYEgBEBJWzwerTHPO6zofPnoTMQcJRb3Crja4f7mEUAykpKk/EA/K4T+1aqMyFgewR4CcCzK1eO68jj/TEwMKAkAkKjjv++/vrruPkAMGwQpwJYeQwbxKkCnq2t57Ij1QbTjgAoRIAzbJDJDi9YQETAZtMDegjA1/v3c3sAyoqLzyQxBUAEwPaWhCroSATcgtDJ4wHQQwCY4e7s7ByXD+DYsWNx8wEkGzb48Ykcx6QVTk8CoC9sEFPQ9m7aRLLDNiIBeggAeux4+g4skwwBWOTz/Y4jO1eqNCFgdwTcgtDF8yNepcMDwAgA2+Nqf/QCsBE+RgOglyDaZkzY4PdsTwTSmgCwaQElbPBYtMc87rORxkbofvpp8gbYgAiYRQDKS0qS8QD8tt37UaofIeBIBNyC0M1FAJ59dlynHeuPWGl/9Rr2dA8bzAgCwIgAT9ggAAydOQOdJDucUiKkiwB89RW3B6C0tPRsElMARAAcaV2o0rZHgJcAPLdqVSybP+7zc+fOxV3I19vbC5gRkHkDMJ2oVtggrglg5XGtAK4Z4NlQbfCz09Nt6Q3IKAKARIAzbBBlh5W0wnPnptQQ2mFBXirqoIcAfLVvHzcBKCspSZgALPR6f8v2HSlVkBBwIgJuQejh8QDwEgAWBohCIXfv3o1pp+/duzcuH4CesEEkAziNoEttsO5fbEUEbrfujIkNO2G7TIBsRJ/MnjNscEx2ePp0IgIWTg3oIQAY7cPTd2CZ8pLEPQCSJP2mE/tWqjMhYHsE3ILQy/Mjfp7TAxC5kO/s2bMx8//jdAGG/X311VfKCB/zAWBY4NDQELOB4/aRYYP4PaeGDWYsAWDkgTNsENXpupYvJxJgEQno++ijcb+5eH/oIgClpecSnQIgAmB7M0IVdCoCbkHo4yIAzz0Xry8Ydw7z/N+6dWtcPgA07LHyAUSGDWrlA4gMG9TyNqgr19F7A/ZeqEy5NyDjCYBCBFjYoHbI52BdHckOW0ACdBGAvXu5PQBlSRCAhdUL/4tT+1eqNyFgawR4CcALzz+vtqNcx3oX8mVS2CARgNGQQSQCjZMBOt8DCEf3/Iy9bEx2ePZs8giYRAb0EIC9X37JTQDKS8sS9gCIovgbtu5EqXKEgFMRcAtCP48HIBECwDpuTOqjXshXh6O5jg52+oF9c3MzYJ5xtvAPpxGQTETbonkb4mUfVF9jeKQfLjRshPeP/qPlHgEiACoCwKYFeMMG790j2WEbEIAv9+zhJgBlpWXnE50CIALgVOtC9bY9Am5BGOAhAKsT8ACojS3O95uZD0Cvt0Fdt1SoDd5u/UJdhajHabkIkBn7eHsMGxzSVoocvnaNZIcNJgJ9P/xh1Hcx2od6CEBFSWnCBGChZ+Gv274jpQoSAk5EgJsAvPBCtD5A92e4wA9H6KgTgCN8XMiH6wVwJB9tw7BB9AAwbwCGDaKHINYW6W3QFzZYZ1nYIBGAKB4ANSlocEO4fQ1AuDfWo77/OZMdLi+naQEDyIAeAoC/SZ7BA5apSM4D8GtO7FupzoSA7RFwC8Igz4/4xdWr43fEOs/29PQACxnEjkRrIZ/esEH0NjC1Qbw+d9ggjMCNlk/hI5PDBokAaBAARgZ4wwb7+0l22GoCsHs3NwEoLy27kMQUABEA21sSqqAjEXALwlAqCADjCxg2iKN6NsLHJEE46o+26Q0bRG+DWm1QX9hgJxy/+QxsPvw3pqwPIALASQAYEWj2AAxcjPZajPtspLUVel58kbwBCZIBXR4APQSgrDxhAlBbW/urjuxcqdKEgN0RcAvCMA8BeOnFF8d1tEb+ge5/jOdXywjHCxuMzAegFTao19ugbptZYYNEAHQSAIUI8IcNDp07R7LDCZAAPQRg965d3B6AitLyi4l6APx+/6/YvR+l+hECjkTADgSAGVy9C/mcHDZIBCARAjD6Hd6wQZId1u0J0UMAdhEBcGSfT5UmBMYQcAvCCI8H4OWXXmJ22vQ9hghiqCCbFkAZYb1hg319fVHraZewwdt3d0Wtn/rDjI0CYG5/rb0SNnhUDVnU43B3933Z4RkzdBvEVOTjT+U9dRGAL76wxANQW1v7y2MdFh0QAoSAcQi4BSFsNwKAvbgzwgb/OuH1AUQAkvAARBADGLgc1fBHfkiyw/maBMgsAlBeVn4p0SkAn8/3S8b1eHQlQoAQGEOAx/hjmTUvvxzZn1ryt53DBps7jiccNkgEwEgCcEHXu6jIDvv9msYwlSPxVN1bDwH4YudOfg8AEYCxPpcOCAHbIMBLAHjFgHT1xDoKR1vIF09G2O5hg0QAUkcAlNeOZIejEqD+rVu5f5VWEYCamppftE2HSRUhBNIJAV4CgOUeXb4c5JB2hjbuHiSBgvYPG/xbrmkBIgApJgCj7x7JDo+fFtBDAHZ+/jm/B6C84nKiUwBer/cX0qnPpbYQAnZB4CE9BADLTszJgXVr18aM1U/Apuv+SmTYoF4ZYTPDBjt7b3KpDdbTIkAIR8zlJ/o3DOibAoj2wg3fuAFdS5dGHRWnyh2fivsSAbBL10z1IARMRiAYDH5LLwFg5WcVFcFnO3Yoi/WidahWfBYtbLChoSFmnawPG8yN6Q0gAmCkByB+gqAwANztj55qOvI9zXTZYT0E4PPPPuP2AFQm4QGoqan5zyZ3hXR5QiDzEEiGADAi4PV44MKF5EdgkR2xnr8TCRs8ePDgWJghag1YHTZIBMA6AjASBqg40A4f3uyF/mGkA/G38MAAoCFsz0DZ4f5t2+KDozqLAwDWD2jtK8vLryQ6BeDxeH4+83pnajEhYDICeXl539b64fKcz3a54KkVK+KK9Kj6DVMO7R022AyHri6Fdw99EzZIBMBaAlC8vw3wX82RDjjUNADaNABgBGWHMa1wQUHGTA2YRQCqiACY3JvT5QkBnQiMEgCuREA8RGDypEmw6e23YWBgwBQjz3PRaPn/29vbY341Um3wwIEDimxxrC9Eqg1iwqJ4SYrU17kfNlioTAsQAUgNAWBE4JkzXVDfPax+PDGPFdnhRx7JCBJgHgGouJqoByAQCPyczq6NihMChEA8BADgO7Iszzt06FCbt7qa25XHQwTmzJoFe3bvjtmhWnFCHTbY1NSkeQpPsJIAACAASURBVEsjwgZ5iE84PAJX5C0gd3BksJPnGrZQLtEFdk74Hgxcivt8cQqAGX71vmR/G6y/3ANdgxz+gNG0wh0lJWlNBPQQgB3bt3P3G5WVlQkTgGBV1c/G68voHCFACOhAIBQK/YMsy6dkWQb2Dxf0zJ45k/sHzUMEFtbWwo3r1+N2zmafbGlpgXgeAPX9o6kNXrp0CVB8KNoWzdtw69YtwCgFIzZKBcznJUiUADAy4D3UDrsb+gGJgtYWTnPZYT0EYPunn3L3F0QAdHTQVJQQMAOB1tbWXw+FQhtlWQ4zw6/eoyLfhvXrAV35PAaepwyuD3h25UpuI6zVAVtx3kq1wXjtIQJgDQFgRGBpXSecaxuK90jGzo3IMnSvWpV23gCzCICnovJaolMAkiT9jBn9IV2TEMgIBOrr678bCoUkWZa71AY/1jGu6n/i8ccBjTePkecpkz91Kry/ZQvgqNkpW2TY4NGjR+MSGUxSpI4uOH36dFL5EogAWEsAGBF48Xw3tPbxeXGGzp6FTklKGyJgFgGoLK+4nigBCJYH/1NGdNTUSELAaARkWRZkWb4ey9jH+/zQwYPgqaw0jAQgUShesADQkDppa25ufsCw6wkbvHLlCgwP8y04U+NCBCA1BACJgJ6wQRgehoFdu6B9wQLHEwE9BODTTz7h7huIABjds9P1CIE4CDQ0NPxhKBTaHs/A85wLhULw4QcfwIzp07l/7DwegSWLFgHOlztlQwN+48YN2Lt3r5I/YN++fcrfseb7oyUpQiz1bEQAeAlAfDXAWIsA2Yg/3l5P2KAiO7xhA7QVFjqWCOghAJ98/DF3n+CprEzYAyCK4k/H6eroFCFACDAE2trafrapqWmFLMsDPAaetwwa63WvvKKkAuYx8DxlcrOzlbTCuGLfKZuVYYPh9tcgfEegSACNlMHJLgKMRwDYuR+c5g8bVGSHn3zSkSSg/+OPuX+KughAReWNhKcAgsGfYv0b7QkBQiAKAgDwraamphmyLDfxGvVEyuG89rJgkJv58xCB6fn5sG3rVsNWz3P3YEkUjAwbPHHiBHR3d0e9IkYXYIpi1CDYs2cPoHbB3bt3o5Z94MOhegi3LiYSEIcEwIB5HgBGAHDPwgY7ecIGAUBJK+zxOIoI6CEAH+vwAFQRAYjSa9NHhIABCIRCof9HluWDiRj0RL+DRqxkwQJDiQCuN8C0vE7Zkgkb5MlNMA6HvsMQDs0mIhCFCFhFABgZqD7UDp/V98MQR9ggrg/o374d2ufMcQQR0EUAtm3j/v17KqpuJuoB8Pl8P2lAN0mXIATSC4GWlpZflWV5jSzLI4ka8mS+h6Pa9zZvhoL8fO6OgMcjoMgOy/I4+2fnP/SGDaKnoKurS3+TwgMAne9BuGEiEQEVEbCaADAiEKzrgHP3oueIiHy44c5O6MX1AdOn25oImEUAqiorbyVKAILB4E+kV89NrSEEkkAAAH5EluVKWZY7kjHgRn33+vXrsOrZZwHn9HkMPE+ZvIkTlZwEOOfulE1v2GDC7RpuhfC9H0D4ThYRgTv/DqkiAIwIYNhgC2fYoN1lh/UQAJy24/ktY5nqJDwARACSMBb01fRCoKmp6Z9kWT5nlPE28jonT56E2poa7k6Bp/PA7ISYVhjd7U7Z9IQNJtWm/jMQbirLeBKQagKARKD86zbYfK0X+jjUBvGZK+sDKips5w3o/+QT7ldyqw4C4KmsStgD4PF4vptevTi1hhDQiUBzc/Pvy7K8zUiDbda1MK3w3NmzDSUCvupquJhi2WHunhFAifvXEzYY7drnzp3jEBoKA/TsgnBjfsYSATsQAOYN0BU2aEPZYV0E4Ic/5P6NeyqrbicxBfDjOrtLKk4IpAcCsiz/ZCgUCsqy3G+WwTbjurg+4K233oKpkydzdxJaHgGWVhhX4Dtl0xs2qG7XoUOHlKiB8+fPayssjnRBuH0NhO+4Mo4I2IkAMCLw5MlOuNHJl/xp5O5d28gOm0YAqogApIdFolZYggAAPBQKhfJkWb5thoG26poopvP9p5+GHLfbMCIwJS8v5bLDakPNc4xhf4cPH1YMOoYC4jSB1oZrKzDaAst/9dVXgFoNmlMhGRg2aEcCgERAb9jg8JUr0LVkSUqnBfQQgB9+9BH3b9pT5alP1ANQXl7+Y5Z0unQTQsAOCDQ0NPylLMv7rTLSVtznyOHDYLTs8PyHH1Zi67UMqV3Oq/MB8IYBqmWNkQggieDKIZBBYYMweCXuI04mEyAb0Sez1xU2OCo73F5cnBIioIcAfPThh9wEwJsEAQgGgz9qh36Z6kAImIpAfX39z8uyvEqW5WErjLLV98BUuJ988gnMMlh2ePHChUpa3rhWwEYnBwYGdIsEodAQmxJAIsAlNJQhYYN2JwCMPGDY4FnesMG+PujbsgXaioosJQKmEYDKqoQ9AEQATDU7dPFUIwAA35FleZ4syy1WG+VU3O/27dtKWuFJubncIwje9QEd7e02MvXGVgV1B3AaAHUIkASgLgGX0FCahw06hQAwIqAnbHAkFLJUdtgsAuDxeO4kOgUwb968H0l1H033JwRMQSAUCv2jLMunU2GIU31PXNVvtOxwwbRpjpMdjkUTYs33Jyw0lKZhg04jAEgE9IYNKrLDomi6N0APAUCRMC1izs57q6obEiUAwWDwO6Z0vnRRQiBVCNy5c+c3QqHQxlQb4Vj3x5Hm7j174MLFixCrjFGfHzx4EKoqKrg7E9apxNtjmuJjDpMdjiQCqC8QT0EQEw/V1dWNLSw8duyYjrDBgrSJFnAiAWDegMCRDjjUNABcWS6Y7PD8+aYRgf5PP418DWP+/cH773P/ZokApMrS0H1thUB9ff13R8P6eo0yoEZfB+ea177yCjz3/PPw/AsvACb8uHnzpqlEgMkOFxYUcHcq8QgAO4eyw/W3b8fsxOx8gs35awkNIXZff/31GBHItLBBGLwa9zGmehEgM/bx9itOdsL1zqG47WAnw11d99MKmyA7bBYBqK6qakzUA5CXl/dtW3XiVBlCIBEEZFkWZFm+YbTBNup6Fy5cgLc3bVIMPxp/9b8XX3oJdu3eDY2NjaYSAZIdZt08KAqCGP6H8/0YDojz/UND0Y0Efn7t2jVlXQCWx+8hlrhuIO6mhA0ucbQ3IB0IAJIDFjbYwak2ONzQAN0Gyw6bRgA81QkTgGAw+K1E+lv6DiFgCwQaGxv/WygU2mGUoTb6OpixDlfn42hfbfSjHb++fj2gq9noOkRe79SpU4bLDqN3wWmyw3qFhjBsECMEkATgPwwbxAgCzc3BYYPpQgCYh0BX2CBLK1xVZci0gB4C8P6WLdzeumoiALawRVQJCxG4devWz42G9Q1FGjg7/I2jeRwpvvTyy5qGP5IMvPvuu4BJfsxuBxqxYoNlh6urquCcg2SH0XijeuDx48fHDPvRo0ehra0tpl3PpLDBdCMAjAg8UtcBZzjDBmFoyBDZYT0EYMt773ETAG91dSjRKYAJEyY8ZGG3TbciBJJDAAC+1dTUNEOW5SazDWSi10dj8trrr+s2/Goi8MLq1Yrn4Nbt26YSgTHZ4WnTuDsctgYg3h5lh3kT8sS0tBafQMOOiybZCB9H+319fVFrgVEE6rBBrWmEsYs4LGwwXQkAIwIYNtjMqTY40tYGPevWQVtBQUIegf7t28deA60DXQSgyiMnQQCS65Dp24SAVQiEQqH/V5blQ4kaZrO/h/PI7733XlKGX00C8PjlNWsUTwIuRjOz/tevXVNkh41MKzx50iRFdjiWEdXqBM08H2u+f3h4WEl8hHkAkAhgXgCcxok13x8tbBBJVawww7E2OSRsMN0JABKBMp1qg8PXr0NXMKibBOghANiPxCPY6nNeTzURAKuMEN3HegRaWlp+bTSsL2ymEUz02ph85/PPPwcctUcacKP+Xr9+PaAkcKJ15P3eyRMnMkJ2GN38eg17JoYNZgIBYN4AXWGD4TAMHjoEHTpkh3URgM2b9RCAJvIAWG+X6I4mIwAAPyLLcqUsy528BszKcmgQMJxszdq1phn+SALx3pYtcPXaNdOJAMoOzzFadtjrhYsXL44NglN5wMIAcR9vIR+uBThy5MjYtACGDeKagVhbwmGDHa9DuMFtu4iBTCIAjAjoChscGOBOK2wWAfBVexMlAGGTu3C6PCGQGAJNTU3/JMvyeSsNup57YTz4G2+8YZnhVxMB9DTs2rXLdBLAZIdRIVDtckzmmMkOx1tkF8u4Gvl5pIIgzvfjKv9om1poiK0PwOePUQTRtsiwQa1phLFr2DBsMBMJABIBvWGDPLLDegjA5nff5f7N+bwJE4CRxHpn+hYhYBICzc3NfyDL8sd6jHEqyj7/3HPw9NNPWzr6ZyRg/YYNsGjRItMJAMMVR+0oO4zGOxnjr/4ukx2OZUTHjKKJB2whH28+gMiwQfxePBnhdAgbzFQCwLwBVQfb4eNbfTCkkfKBvaZD589DZyAQdX2AHgLw7jvvcP/WfJ7q5gSnAIgAmGTH6LI6EZBl+SdHs/j1M8Nj5z3+QNEgTi8ogFfWrjV1/p8ZfowseOKJJ2DBggWwdOlSywgAew4Y945hfmpDnuzxgnnzUi47zAw7G93v378/rmHHKQCcCmDltWSE7927p+QMYOVxLUcsbwMzJBAeAuj6IYQbJqV0WgAGr41VKdqBEzIBMmOezF5X2GAM2WHTCEC1tyVBAjCss5um4oSAsQgAwEOjYX0hZmjstj93/rySNz6yXjg37KuuVgxiWUkJvPbaa6ZMCeAaA8wnUFxcDB6PBz766KNxWQNxFPrZ558raYVxYVtkPY38G+e4FdnhoiJDicDiRYvg1s2b0WyMZZ9h/n91PgBMytQeRwExkbBBXm/DWKNTHDZIBKAN1MRh1dkuCPUOjz2eeAfhnh7o3bRpTHbYhgRgyNjenK5GCOhAoKGh4S9lWf7aSANl5LUuX7kCm0fD+t548004c/ZsVOOqLJibNUsxiI8sWQLrXn3VECKA2QMxOyAa/ZKSEnjllVfg+vXr4+qAi9iYtgB6Cla/+KIlaYXNkB3Ozc6G1S+8wCG6E6/bTf5cc3MzHDhwYGyEf/bsWcBwv2hbZNgghg9i2mD8PNqG18EkT8wbgDoDXGGDA5cg3Oyx3BtABGA8AUAyoDdscKSxEbqfflpJJhTtnYj22TubNnETbL/X15qgB4AIgA57RUUNQuDOnTv/eTSL37CRBtuoa6Fx275jR9T0vbgKHzv4yHvhKHzD+vWAc9sTc3LguVWrEsoCyNz9OM8fDAYVd/+KFSsA0/eq7xlPWwCv8cq6dUqEgvo7ZhxjPVB2ONmpAPX3C/LzlbTCsYxotA7T6M8iDbvWQr5o+QDSIWyQCMCDBIB5BDBs8KsQp9ogAIR7e7lf001vv839m/J5fXcTJACDBnXpdBlCQBsBAPjOaFhfuxnGKNlrYvrerw8cgDVr1sQdweMoG+P+0ehH3hMXzKFBxPUBhdOnK6NzHh0AZvjRe7By5UrF8IuiCDt27Bh3Dz3aAnjNTe+8o4TeRdbT6L/37d0LpSUl3J2W2uDHOi4tLlYkebl7TRMK9vb2AnoA2IgdPS7oIYi1YXQD5hhg5c0JG+yGsEVhgzB4PVZTlc8zZQ0AM/rR9hg2eI1TbTAumKqTegiAv9qbKAEY0O61qQQhYAACsiz/f7IsnzHa8Bh1PQwD27BxY1zDz4w028cbZaOh8IwumCuvqNBcH4CKgK++9hqUlZVBeXk5vPPOO3Dnzp0x45+MtgCTHUYFO6PwinYdHPF++MEHMD0/31AigGmF5VBI1T1af4gL+dT5AHAhX3d3d9SKYHQBYoGLCRkRiBc2qNfbMHZTJWzwEVOnBbQIQBhg3Bx5NAOZCZ+NhQ0OcIYLjD3E6Ad6CICPCIABFoouYQoCDQ0N/2U0i5+pxieaQeL5DEfUW7du1WX4GQFg+zfffBPOnTv3QPuYQZwxfbpiEJcvWzZuvh6/j8YZs/xJkqQs8nvuueceEAJC9z+WYfdLdI9phb/cu3fcAkIejPSWwXUKL65eDTinH2t0r/dznFZZt3at9ur56P2pIZ9aHTaolaRorFGoNijPMYUIEAGIPQUQjdhU6gwbHHuGEQdvv/UW929H9PnvJTgF0G9Kp08XJQQaGxt/YjSsr0+vAbGiPC682rV7t6Hhex98+KGSXjay/jjyXvfKKzApN3dsfQCO+CPD+jCcTP1dM7QFkDzgwkJ0TavvZcbxqZMnYVFtLXdHxkMKZs6YAZ/t2KGdaz+iQzXyTxY2iAJAOMLXChvEkD8kccwbkEjYYCxvw1i7TAobJAKgjwAwUqArbHDsIX5zYBEB6CNLRQgYjoAsy4IsyzfNMCpGXBPDu4xaqR85GkfDjsQCXfaRdT1z5gw8snixYhD9Pp+yst/n8ynz/OgtYOWt0BbAer+7eTNcvnx57L7s/kbv0fAVz59vKBGo9ngA3eqp3OwZNngXwvd+AOE7WYZ4BIgAJEYAGBHAsMHGnugRIfHe3bfefJP79+Kv9rYl6AEgAmC49cvgCzY2Nv6RLMufGW1AjLoeLtB7e9OmpF3pkUY/2t/x1gegQcTpAEwlrJ6XRxKAbl8rtQUwrTBGPERb0GgU7ngdllZ46uTJ3B2blkcAF1o+tWIFNDc1xetLTT8XLWwwlgIiqgriM8eoAnwPtMIGBwYGkggbrE6aBMDgjbj40RoAbYJQfqANPrzZC7hgknfTRQB8/vYECUBvBpsrarpRCNy6devnnBrWF814G/nZO+++CxcvXdIcZWNo4SaLyEm09uECxMhQQyMJALsWtnPVs8+C0bLDuGgKjWWqNr0L+YwIG4yXpOg+DmGAnl0QbixImAgQAdA28Gy0r7XvHuJnAG++8QY3UfYnTgB6jLIBdJ0MRAAAvjWaxa+ZdfB23K9ds0aZb49m+Mz+DLMDYlihFi6YgQ5Hxy+99JKh6xJ42oc5B2prax8IOdSqczLn1VkUtUb6vOdnz5oFe3bvTun6gHQLGyQC4AAC4PV1JOgBIAKQgXbbkCY3Njb+vSzLJ5MxAlZ9d8VoopqlwaBpc/+RhhZT96Lhxwx+S5Ys0SQAuHK+RpIU1l+8YAGsf/1106cq1IsQMekQxrurn0m0dQzq80Ycq7Mo8hp6rXK1NTVw/Vr8HPZmewrSJWyQCEBqCMAbGzfq8AD4OhMkAN2GGAO6SOYg0Nra+uujYX1hIwyA0ddQL6Zj1zY6S1+ksVf/zcL6/H6/EtaHI/qrV6+OM6y4CDGWux3nhVEgB43c4oUL4VWD0gqr66ilLcAyIeKCxlgJjxi2RuzVz0fLuPOex/UBz65cCamUHdYbNogywhj5waILtNQG0duA+SvwncF/ZoQNEgFIEQHYsMEKAtCVOZaLWpoUAufOnfvR0Sx+nUZ0+kZfA5Pm4Op7jHWPtQo/2Sx9aiMa7Rhd6cv+I2kNqvUtW7ZMyQinbqdaWwC/r6zCv3JlHDnA8uoFc2jIUHYY2xXtnno+Q3IST1sgVibEeAsa1e1L9pilFcY28xp6rXL5U6fC+1u2QCplh50cNkgEwDgC0KNjDcBGHQRA9Pq6EvQAEAFIyipmyJdHw/quJdvBm/V9HPmoBXHQKKJ7G0fa0e6J5fVk6dMysnjv1atXK4YfR/6YvlftiWAjajTAkdeKtwpfvWCusKBAmVLA8pHX4PlbrS3w5JNPPuCB4MmEGCvhUTSMk/lM/Xy0DDzveQxDPHrkiNme/7jXd2LYIBEA+xMAv9fXnSAB6MwQE0bNTASBlpaW/yrL8ifJdOZmfvf8hQvw1ttvxzWI77777gOZ9bBOaKAxbW28LH1ahhU1AXD1fEVFBZSWlsLrr78+Lqwv1og62nVxvQC6fNXEgWGHC+a8o7LD5WVluhY08mgL6M2EiOVv3rwZlVyxOie7j3w+vIZeq9wSlB2+dSuuoTb7JIYNHjx4cMx1j2svzAob1EpSNNZWRW3wwbBBIgCpIQAoLKb1LrPzos+fGAGQpI5E7AJ9J80RaG5u/qnRLH4DyXbkZnxfb/peHDWjhr065p7VCz+LlqUvmpFWf4Yj6oULFyqj/meeeQbQfc2uiXueEbX6eux44xtvACYMUl+LHeOCudkzZyodg5bssJa2QLKZEOMlPGL1NWKvfj6sw0t2bwfZYQwbRA8P5gHA+XvMC4AZA2NtqQobJAKQGgKAi4B533MiAGlukK1qHgA8NBrWJxvReRt9DRxR4ygZV9gzg6lnj/Po+P1oq9vR6C4LBpUf3dw5c2DdunVR5YBxagFd6DjPjwQAR1jqduolJ7HqH0t2GKcTcHQwedKkcWmF2XXYIsR42gJGZkJEDwO67NUYmHGsfj68HaNWOSY7jMl5UrWpwwZxikBri1QbrKurg46OjphfQ0/K119/Pc7bgGQi7jbyjdogEYA0JgCi1G6VbaH72ByBxsbG/0uW5QNmdN5GXBPj5DGmnhm6ZPa4EA7V3KLVC1dgowwtGg/R5xtztyN5WLt2reLqr6qqgo8++mgckUh2RB2tPUx2WK0KyOqsXjBXVFioZA9Er8QTTzyhkJOlS5dCpLaAmZkQeRMesfonulc/Hy0Dz3seZYyP19XFtYlmn7x7927MaYDIe8dSG4yVCElvkqKx+w3dAhhpG/sz2gFlAuQnCL06FgHq8gD4xZ5E1gBIotRmc7NE1TMbgebm5l+RZXmNLMsjiXbKZn7PLEEcNLg4yo4M0cO2oDHHrHzTpk4FXJG+atUqqK6uVmL6MSwPR/nqNhs5oo5GBNAbEWuUfejgQfBUViqExef1gsfjeYCcxFuEGO1+iX6G3gdcHxBtqkWNV7LHbH0AjuB5jTxPOUV2WJaj2TlbfhYtbBCxj+XRiBY2iOsRktmIAJhDAF5/7TXud1vyi71EAMy2lGl2fQD4kdGwvvZkO2Qzvo+x4ZijPtFV77xGLN4qfCZrGxBFZWQd6TXAEbWV6XvffOutmLLDW957D95+++1xxjfZKRNeDCPL4RSN02WH0Vg6ZUtEbRAXlrL8Afhea6oNxgCDCIA5BOC1V181nQAEROlempk1ag4PArIs/29Zls+aYbiTvSaO7nC0a6UgDhowjHX/+sCBqKvwIxXzcJS17eOPo64RiDSGRv+No+yPP/4YcFSvhTWG7eE0gtF14LkeLhJ8//33Neuo1Qae85hUaaHBssOziopSLjscw+bG/Li1tXVcdAEuRI1FZPQmKYp1UyIAqScAos/fl4gHoEaU7vLYCyqTJgg0NTX9XlNT02aeTjUVZbDD2rhxY0oMFho19Abg3L5W27/cs8e0LH1axhUX3T2zcuUD8/vR6lyyYAE8PHcuvLpunaWY4loE1BZ4/PHHNbGMVu9EP8MR7fzRLIo8Ln+eMl6PR4nwiGUA7fZ5NLVBnEbDdQDRtki1Qe6wwdGLEQFIPQGQ/GI/EYA0MdJmNKOxsfEnRsP6+hLtXM38nlEr57WMZ7zzaLQWLV7MZbRw5fWUvDzAcDJMN2tElr54dcNzam0BXIQYK1RQ/Zx27949ZhBramrGFjRq3SvR85HaApGLENGT4mjZ4STny6MZYLM+SyRsEBfasmkBXNeirTYIQARABwEYRrT4NiTtPAQVyyRKAAKi1GqGvaFr2giB0Sx+N9WGwS7HbOV8qtzUaOhwRP30978/FtaHIVNqfDBWO1rYoJFZ+uIZXBbWF0tbAKdMMKnMBx9+CJhqWF13PEaM39u8GXDBHErwGpVWWF3nl19+WYmQKC4u1lyEyEIxsd6RdTXyb/Xz4e1Itcoh6Uu17DCf+fimlJ6wQRZdoA4b7Orq+uZiMY5O3x2Excc6QEsON9PP95pHAAYS8QAERKnFRqaKqmIkAs3Nzf8jFArtM7JTNfJaONrALHpqQ2LlMY6oMawP1fowk98777yjGEvWRqYtgNMC8XLhJ5OlT6u9GK4YT1sgMhMi1jVWwiNUx1v17LOK18Io2WEkJ4loC2C74yU8Ys/AiL36+WgZeN7zc0Zlh2PYQ9t9zAw7uvfZCP/8+fPAEzbIQwCwwRjhtruhHzwH24kI7I/uFdBDADA5Ge/7GBClQSIARlpPB1+rvr7+52VZXiXL8rARHajR18D49bc3bUqZ4dcaUWN7cRFipLYAGq1N77wDFy5ejDpy1ZOlT8vwa2kLaE2ZsFF2NM8FrvheWFOjdC5lJSUJkzCcMkEJYUyItGLFioS0BRCHWAmPjH7v1M+Ht2PVKreotlYJCbWdxY9RIb1hgxhdEIskxLgFtA+MwPrLPVASwwhmshdAFwFYu5abAEh+MVEC0OxgU0dVVyMAAN8azeLXYnTnacT1rIpFj2dcI0fUkWJBkSPqaNdCAhErF75Wlr5o11N/xqMtoCcTYryER2gQ58yerXQySxYvVqZC1HWJdWyGtkC8hEdGvHvsGurno2Xcec8z2WGe+fJYRtPqz/WGDSZSv5tdw/DUqS7yBqiIkB4C8IoOAhAQpaEEPQBNahtCxw5FIBQKfU+W5VOso7PTHkehGF5nxUK5WEYr2RF1tOtie2LFuquz9KHYEN4fiUO067DPcEQdT1sgmUyI8RIevfXWW4BTAhNzcgA1DWI9J7O1BRCHeAmPjHyn1c+H19BrlSuYNk2RHcZRtlM2PWGD8dqEUwzRNvz0UNMASIdpWgA9H3061gDoJADDRAAcaryTqXZra+uvh0KhjbIsh43sII261qnTp2FDCsP62Ii6vLw8plqfnhE1M9bqPY6yIz0JDL9xWfqqq6O627W0BTCEa/N778UlD+r6xDqOl/Do0qVL8P2nn1ayHqLsMBIWLM+utX79erBKWwDvGSvhEcPVqL36+WgZeN7zxQsWwNGjR6PZQ1t+pjdsMLIRaPy1IgYwBe6HN3uh/Ovoc+OZMi2ghwCsXbOGewogIEqJEgA5GftD300RAvX19d8NhUKSWWD3uwAAIABJREFULMtdRnWGRl4H0+viqnRmQFKxN3NEHa09727eDJEJgxBTlrYWDSsakeXLlikGFkfaam0BTJqDK/bZc8Bwuc8//3ycIY52X72fxUt4pDaIVZWVgIb/0UcfVeb5ly1bphg2Vj/cm6ktgO2KNdWirkOyx5HPh9fQa5VD2WGccnDKpjdskLULCQBbWBhP1hjLN/WOwOpz3Rk7LaCLALz8sh4CMJKgByCUIhNGt00UgdGwvuvJdnxmfF+9cl6vYTKqvHpEvWjRIkX9T91Wo0bU0eo7tgo/SpY+XLi3+oUXlFX4qOTn8/miagugQbIiE+Ibb74JZ86eHSMcDCO8P0YSzJo5U1ksmEptAcTYatlhnArRMu685zFPxLq1a+PK/DJDapd9ZNggj0JhpKxxPD0CbGemhg3qIQBr9BGAMBGARC2qQ77X0NDwh6FQaDvrqO22Rzcgji6jGUYrPoscUUeq9Zk1oo7WNqwLTi2gMY18TqdOnoRFCxfCU0899cDKeUzug+Fx0a5p1mfoqUHNg8h6Yif+6X8QAdyzc6nSFsC2I7GLNdXC6mfEHrNRMlloXkOvVW56fj5s27o1pkiPXYw/qwcLG8R8ALxhgGpZY/QIIImNJzSUiWGDNiQAjQ4xf5lbzba2tp9tampaIcvygBEdnNHXsENYH87Do1ofJqJ56aWXxhk0q0bU0Qw0utAjBYRi4b912zZLDb+6vjjKPnDw4Jihj1nHH/5QWcegtaBRfW2jjpFU4T9crxCrfkZ+jumeMZWylnHXcx5VG9FN7pRtcHAQ9C5qvHfvHugRGsqksEE9BODll17ifvcSHP1DQJQaMtey2rzlAPDQaFifbGTHZuS10FVsVAefyHU2aMSiY1s/+fRTJcQtFUYLDesrr7wCOO2ghTtGC5iRpU8LV6YtgMRJq47vvvOO0imJfj+8ZlESJ3xueC+cMkGCx4OlVjt4z49lUZw2jbsz5iEEKDvc1NTkFB6gu57oQUCPG3rB0Bvw5ZdfKs8tHpnIhLBBPQTgpRdf5H3nEnX/EwGwKwdobGz8v2VZPsjbUaWqXFFhYdzQMS3jk+h5ZarhueeUxWmiKMKOHTuiutsRF1xch52y3+czPRe+uj3qlfM8Ruu5VauUVL35U6cqiwPVq/DV1zXqOFJbYOfOneMIQLTpC/zsww8+gMgFjUbVKfI6kXkbcHW9+l3HRYiYBjlaXdXlkj1WZ1HkMfA8ZfImToQN69fHVOvTbXVT+IVYQkPoQcB3HwkAEgEtoaF0Dxs0iQAkugAQApJ0x642MCPr1dLS8quyLK+RZXkk2U7Liu8//dRTSugYjl4xhttso6UVix6tzdGMlplrFXCuGjPjYYa8pUuXPqDah1MmRyIMGau3UVn6Ig2p+m8cUSM5iaUtgHXB+VvEKNYqfFwz8OLq1UruAMwh8MILLyiL9dT3SeZYK29DZFIpJAonTp4cRw4Ypkbu1c+Hx8jzlJk9cybs2b0bcNTsxA3rfWBURjtW/XEhoR6hoXQNG7QdARCl+ow0tHZrNAD8iCzLlbIsdxjZYVlxLVR8q66qUkbZFWVlpo2y2YgaDSsmrMHRn7p92MGgIdi+Y0dUxTlczIb5tXGVtxlGa83atYpiH48gDhpHXIWP88HqNrDjRLP0aRldrRF1tEyIOO8eK+HRqVOnxhbMGSE7zJO3AZNKrVmzJurUU6yERwxXo/bq58Nj5HnK+Kqr4eKFC7FsqG0/RwLAwgBxkWZHR0fMuuKiQPTYsPKZFjbYryMREBJsnvfGLQiJ5gDAKQAiAKkmA01NTf8ky/I5ozqnVFwHR9lK6FhRkfLSYqy7UaNsnhF1pLZA3FX4BhstHFGjYcVwORQWwjl/9ap6lgkxltGKtQof5595s/RpGX6tETWGKOLzi7dOAtsYaxU+dujF8+crz14SxYTWB2jlbcDV+TxJpdALFYsEGvnbUD8fzo5as0NnaYVxIZ2TNsRCLTSE5Bzd/9E2nC7A923v3r0KEdi3b5/yNyYkirVh2OCSNFAb1EMAMGSY871KNA0wBETxdqrtX8bev7m5+febmpo2G9kppfpa6JrFUfak3FxlpI3z2ui21zJQ0c7rHVFHu0asWHfESTFao6u8cR1BIsqEaLQWL16suPsxrA+NlPoZ8GZCxJHvrt27o8oOa2Xpi9Zu9hkbUaPaYWlpKbz++utJh/XFSnikXjCHhgwXNOIzZHWJtVfnbcBUyGhI1BhqCR/Fui4SUPQWmL0+QP18ODtszY7dibLDuMBPnQ8AFwDGywegN2wQB89OVxu0HwGQbmWsAU5Vw2VZ/slQKBSUZblf3dGl0zHLtY4dIkqn4vqAeKNLdScebUSNRoDhozWiVl+LHcdSnEvUaLGV8zgdUVtbC7t37x6rH9Yz0UyIaLRw/p21Vb0/cvgweD0exXiUoTHXWIWvNaJORlsgXsIjtmAux+2GaVOmKGGZ0daGoJdGnQkxMm8DPhskRdG+y54rzz4eCVTjm+yx+vkYRQQWzJunEKJYI2M7fo5CQ0iEmZsfpwhRcyDWlkjY4FtXnak2qIsAPP+8JlEcfc8SVQLEKQAiAFYRAQzrC4VCebIs30q2s3HK9/ft3QulJSXKi+zzejVH2UaNqKMZBhwNY2pdDE+KxE9ttHB9AIbERTM8uHIejTSOpnFU/c477wBmP2TXMyoTIsoOR65xwHuMTbXMnKlg+siSJQq5UrdXa0SNq7KN0BbAe8abajl54gTURpEdZgRPnbcBR44MQ9zjVAOSLHW7kj2ONdWivm+yx5HPxygisHjhQrh582YsG2rLz9HoI5llRABJAY76o23RwgbRsxJrGgGv4cSwQT0E4AV+AjCQeB6AwE2r7F9G36e5ufkvQqHQV8l2ME78PnaKGDqG2dBwVLji8ceVXPjqDt2sEbX6Huw4nuJcPKOFixBxqgAX+T333HMP5P1Ho2XUugesKxpKXIWvzsTHnr96qgWnW1Y995xiMHGuH9chVFVVKeGPOIpm3zEzEyJiEyvhEWYTxJXuaAwfe/RRCAaDypQJRkrgIkJWP9wj6dm0aZOhhp89d9yzqRY1Lur7G3Wsfj5GkQBMK4zzwh3t7dFsaEo/Qx2BaBvO6+N7h/P8SARYPoBMDRsc0LEI8PnnnuP1APQnTgCkGxltmM1ufH19/c/LsrxKluVhozoXp16HhY5hR8ZG2ThHbMWIWm0E2PGbb74J586dG2eAGLZqo7V8+XJYPiqIg8eRC+HMzoQYbxU+rhp/4vHHlVBM1D1gmRDVI2okYDgS45mPZ9gkuldW4UeM5hFTNLi4oBFd2tHyNkSG9SV6f97vxZtqYe+AEXv18zGKCKDsMKYVjmVEoxliMz/D0bvWQj69QkORYYOY/6E9DvHBkfXHt/qg/IC91QaJAJhtcW1yfQD4jizL82RZbjGiI0mna6hH2ejCZkYrMlmO0SPqWMYhVqw7M1q4hgFj5nGVPBpT9ix4Vs7Humcin+Mq/BMnTozdn9UD9zjVgosvI0fUqdAWwKmTWKvwUS1RPWWCeO7dt08Jn0wEk2S/g1Mt0RQc1dgacfzVvn2A6zaMIgF4HUxTXHfsmJm2neva6jBAnnwAdXV1Y9MC+BvXEzaI0wh9fX0x62V3tUFdBGDVKt73pS9RD4AkStdtYjLTpxqhUOgfZVk+bUTHkc7X2Pn554D5rrFDULfz/7T3JsBxXGeaoO0+3b2z7e6Y2fbYs9PTZ8z07rp7uqN3d3bs7Z2J2JiNHvGQLbVtSdZtWbxEkRQB3gQpi+IhS6IkyqIoiRIp0RIoVr5EkbhRmYWLxEWQBEAQFAEQIIEqSrLui5LIXH1pPPghkWfly6wq4EcEoqryePnyf5nv+99/fH/UK2o70ECmglMUPgBCNMMDtDRdzxto+c11r6munuZqsbv3KLbBffHiFyt+cVztvmPlb3JHeAQ0RtFHxHMgCBEuB7u+yd6G50ZkUZSlDIBWGG3n889aQRCKqlMRISgM6C8KDfH4gNOnTxuXL1+2vYVc0gb73/7M2NT1XsGVHQ6iACCDyucz8lGuCsCqktLBmYO8eb6Tixcv/ptMJrNP9sQxm9qrq683A8uimPD9tIkVoZe8EYyVL9DiTIgHDx707CeUqygIj7zkyHkbECjpJUtYA0AnjYluywMPmBwKXu2H3Q/lRKwtUFVV5dlPr/sIsp+7wmZa2WEAO6xmnA8A/n63QD5r2qCXG8GaNuhlbSjEtMGIFIAPSQHII/hfuHDhq5lMpjSbzb4fZCKgY7PTJl4UwLjpxhtNpje7KPywk7/T+QCEbdu3G4sXL57WJ+s4IagpbtBCvzkTIlwmcEdY+2X9DXMpj8K/68c/NjkAnO5fxnbEGCDIDv1DhL+1j5AblCdrP8WAOYBiGO4Ir/vwYkIEMx1qR8RBKwx3DcpC+1zl+ToONRryXXY4KP//bEobvHzFP93zzkcf9TXm8+bMyVkBWF1Sei6P0Fn8l85ms3Oy2eywdVKj39PB3Y9Mjnd1GSuWLzcf/MULFxpIC/Sa1MPsR4DdU089Zab1IXIeuehiPwFO+Be34XucoMVX1G61BdSKCgP+fms/8RtmVpGlLxfCIzcZ87Q+JyZE9AFBiMhQcHO1hOGOcOsf9lmZEO3iORALIrYDwiOsYO1kKnObOD6ylAFQc5/u67M1qce1ES4AuAK4mR+BfHAVOP1Z0waRVQLlwO4P1gYolGK1QTdrA9pA2uCOk+/n1S0QSAF45BG/CsAHISwArxU/CufhDsbHx/99JpOpljkRUFu/VhpMrvXbbjNfADPXXXJOOKwLWFHft3LlZBAiyHv4GMBHyUELvmJMNCAg4vv5Z5SghRU1ro0VNcDVSpQDJQTBdgBgDlyyCY94u06fIm/Dtm3bpjEh2tUWQFtuUfhBuSOc+obtnAlxyZIlOTEh4jmBsjBiowTyZ0DGJ0znB8vLDUT4y1IC0A7iA17Pc9lhALvI/+8WyGcH7AgOdiojHNTakO9qg0EUgEf9KwDvkwIQkxLw9ttvf20ire8zGS8+tfFr0LfKAho+yqWCFhWmYRQAwmrdbcL3sw+ghXQ+rKjt0voQkISUNWtbMB875brLBC2vFbUXE6JfwiM3lj7rvVt/w4rw8COPmDK0Y0L0myHx8iuvGGdsVtk8YM6NO8LaJ+tvjDOohXnxKChr4jMWhAnRjfBIbDPsd5GQSpYi8M/XXWe+R27R83arbJnbrIF8qAOAVFWnVEZr2iACBqEkQUGw+wuaNghffD7SBqNQAOZec00YC8DZmKCzuC9jGMZXLl26dHM2m70U9iWn851B3042fJUNfvkf3XSTac4VV73Wid/pt2gGtstFHxoeNol3nM7n252i8GWBlozaAuhrLoRH/B6dPr2YEKGcwFqC45zasG7HWDoRHvGAOZE7wis2JEomRDfCI7tnN9dtYqqsLEXg9ttuy3vZYSuwewXyAdhnUtpgEAXgkYcf9msNCmMBGChuZI6h95lM5h+y2eyxXF9mOi8Y4DvJCyb5ZRNlh5fcc4/vinPcDAzqXgT57d+/f0paH1YWKHcbBLQAQk657naghT5YgU/87bWizrW2AK7hRngklrXdsGGD8ayDqwUgDfATmRCt/vEgK2rx3vl3N8KjkydOGOvWrDEnRKeywzhfrC2AYD6MLX+eYFECFbSXAsH74/bpRHjEryXrU3SFyVIEVq5YYTIu2q2k49oWJG0QfZopaYOfBggCfPhnP/OrALwXwgVACoCTDvHGG298YyKt76qsF5raCacM8FX2zTfdZL4cZtnhPXscwRVmYJio3czAYYLiUOIXK170yzq2fkDLa0Utq7YAwMyL8MjJ1WK6TCaYEDdt2mQgmEu8V5m1BdBPN8IjBJSBTRBguH7dOlNh4S4Tp9oCGJsomBDdlEBRPmG/Q4mBSwrjI0sJ4GWH3YLyolYGYM7H2PC0QYwt3G9O/P9WN4JX2mBQa0McaYNRKABzr7nm3RAKwBkn/Ju128HiR2l94YA67KTndT6IedzKDotmYFDkWkvMygatffv3Gz29vVOAkd+DGOUNnzRW2XYraisjXRRMiF5R+MjFBzjccvPNk8V4oDyBCbGmpmaKoiNzRW232nYrO7zvhRdMjgO4Bh544AFTwbOrLRAHEyICGuMoO4w6CQ/t2GGOjyxFgJcddgLdqJUAtG8N5INCjWfLyd9vTRuEchek2iAyEz744APHW3vn8hUjqmqDBacArCztn7VAb3fjmUzm32UymUY+edNnYSsCiCjeuH69uTIyTcPPPWc8OZGLjsj5ZDI5JXqfR87LMAPbgRZMw3ABWJ8brOJE0Hpw61YTtOyCEBHzcCDCgjjoNxQka00D3meUb0Ua2aIFC2wj56NaUdvJ022VjSAy5EqjwFB1dfUU5QRBiNa0Prv2ZW5D2WHwCHA5RvXJx0eWEoB2kCYKJTmffwB2cCPwtEHc5y9/+UvHLqGMMI7hxyNA1wnYoUzgHeTWBi+SIlw0irTBIArAzx56yJ/F55pr3snZAkAKwK/VgEwm89+z2ex7Ub241G50ygReaBOwFiyYTOsTgXgycv7ppx3dBbLAgEfhi5z3fOxF0LLLRcc2WAdk9cWrHbcofKz4rcWS4lhR2/XZLQrfmp6JjAyvmAu7a8jaBrnx8Y7qE0oYnpXbbrnFH0jMmePrOLhVRvJcdrgg0wbb35XCHxBEAYC1x6eS93bOCkBJ6elfI+As/jbB3385qheW2o0O/LlsoeGDBQ1WAb4Nn/j9wr59sYEqBxK3XHcraLU0NwcKQuTXkPGJVXZ9ff0UmYny49/7T582du3aZZL5yLhukDZMl8kLL5irPd4fp88N69YZUXBHePWX8zbA5eTUN9nbRVeYT7DwBJXJssPvvuu4+o56B8oI4954GWGvtEHUEUBQKrcGeKUNgqQIQav8eC+SIllpg1EoAHPnzHkrZwWgtLRvFsP+r259omRvVvbLSe1FD/peMkY6FVaPUZn8vUABAXSYxLz6iWDGfIAWj5xHBoBXH2ENAMjceccdZgZGXJYKuCu4nx9R/F79LH/lFeP6733P5I544vHHI1esIAcEkoJJEvUPDhw4MKWPWK179Tnsfp4qK0sJQDs33nBD3ssOBw3ks0sbdCsjHMTaAKUnbLXBQArA9u2eytrEeJMCEEaLuXTp0rawLyCdn3+wtxsD+Lnxkiy4+27j+b17Y7MCIAd/+/btpp/fD2i9evDgJGg9/vjjUgiP3JQTKER79+41lq9YYbpM9u3b5wuksBKDqwUyLbnvPhP43K4TZh9fUTsxIWKFyFd61rHngBiWO8Kr/1DwNpaVmePsxoSIIlMI4rP2U/ZvcXwmwMEviDgeh/FGLn4+/woxbXDz8eDVBoMoADt8KgDz58z5Zc4WgJLS3jDYWfTnGobx5Ww2m5H9IlJ7haMQwMz3E546NhGF7zWx57qfr6ixEsSK0C4XHUqJ3aowTtByY0LkQYhmFP5rr00DLfQdZW3DsPS5yRcraqQCOtUWmIzn2L3bVOjcCI9E7ogVK1ZIU1ieefbZwEyIuC8nwiOZ84U4PrKUALQDWuFsHssOO6UNyiojHNTakEvaYBAFYPu2bY5KmTiu8+fOfTN3BaCkp+hBPMwNjI+P/4nMl4/aKhzgF8eC51KjPC5WhTt27JBadhgrar+1BQB+ICNyKt4jglYQwiM3UMU+LyZEniEhmvZxX0EIj8K6WrCi5kyIditqt3gOJ8IjDogidwRk4SUvu/1evA1QTryYEKEkgnjKGgciPq8yvouEVCJghPkOSu5nnn7asUhPHFYC1AVAGi8Cf6Hcx5E2iJgBp78gaYOkAIRB6wjOHRoa+hsZLxu1UZjAbx0XMOohdezaefOklR02iXK8agscOGALOEgbRGaAtZ8yQcuLCdG6orYDPr+ER3fdeafx7DPP2N6rXbt8m9eKOggTohPhkRgwB378J554wndAI5Qi2UyIboRH1uchzG+RkCoM+Ivn3nrzzUZNdbVjrr4TWMrcHmfaIBQNN5Ii3JeftMHPrviXwPatW31ZAOaFsgCUnooAVounSU3T/jabzV4J84LRucUB/uI4tbe3T5YdXrJ4sZkXz8HI76fXitpvbQG3VbYIWlh9PbZzp2/Qwn1AOXFjQjwZMEPCi/DIytLnJUuvFXWuTIhuhEewImwuKzMnVwQ0woUgWj2sfUYQIudtiIIJ0YnwSHxeZXwHiPHxEcE8zPfly5aZwOgf1uQfaRfI99FHH9leCG4EkAzBagB5wIoQSbVBh7TBIArANr8KwJw5b+TuAlh1snjQOoKeKory9+Pj470yXjBqo/gUAXCt337rrSYY+I3C91pRw90QtLYAQMeNUQ7ugqCgtXXbNjM4zY4JMciK2gqI+O1kufDravGzokasBCwDdtf3u82N8IhzRwAAS1aunKYEoq4A0h4XLlxoMiFaeRtkMiG6KYEy5xVxfMIAv3guXGpYrb7++uu2oBvHRitNMIIhnUoIoz9h0wa9SIqc0gajUADmz5nzOikAOSoHUADa2tpaZL5k1FZxKQLwfaPsMMzCXqtsrxU1covD1BYAsMGX7cQoNwW07rtvGmhZgxAZY1N8zbmuqO0A1w/hkZ2rxWtFzYMQ7a6Z6zYQHlmLF+E9BSAeLC83U94AZFsffNDYs2ePmSHB0/qQLQFLDH+v4Z6JorYA7g3jh9UprsGvF8UnJ6TC+IhgHuY73p9fHDhggmscoG93DTGQz6nUsHheHGmDT57+YJJEKIgCgGfRz3iEUwBKT+QInTPjNCgATGFXR0dGO6N40ajN4lEGzvT3Gw9u2WIGCSJgDCZ+bhoGaLmtqGXXFgAYJBTFkVaYgxYm8K1btpjWA/iUURAHK1aAmMiEiOdQxoraDoDdCI+muFruuWfKitqOvjdKJkSsstG+COb8/RQD5kpLSkzLCdI4rYGacTEhglbYqbYE77OMT4zPfcuX+wIaP2CEYwqh7DDSBp1qCYgKAP8OhQsppXAL4B8KOJQJuz87awMUKjeFo//tzwykDQZSALZs8TUu8+fOvZSrBaC0pLR7ZiB5jncxoQAYhysOvzM2NnZWxktFbRQP6NuNFVZgSxYtMl8+lE6Fn5rnoltrC8AMjCj5sNHvdsCKbW6+7KHBQQM1w8Hcdt+KFZOgZWVCjGJFbdffF196aRp1MJcvd7WsXrXKXF2LIOwnct7uerluw3hijO2i8I93dRm7n3pqWvGofNQWwP05uVq4XGV98vHxC/J+jlu7Zo0xPDRkh6EFuc0K7LKrDX521TCuBrhzLEb8yHnenDlZUgBCKgBMYcaRw0feHRkZ6ZL1UlE7xasI8Cj8H914o1FSUmL8/Oc/n7Kinoycj6G2AIDAbZUNt8OTu3YZqVRqitkYoBXlitoOgGExcYrCh6sFyoj4XqAyGywXdm1FvQ300NYVvtg3/r2zo8NUWqLuj1P76KdVqeN9k/kJZRausCjKDrux8QXAxFgORQAh5M2tAXD3uMU3wNoASwo/Hs+0W9qg35uIQwFYVVJ6PEfonBmncQsAFAD+39nR2ZzJZD6U+XJRW8WpDABErSCBySEftQUAEK84+LKtzxeqqiFewQlUot4O+SBtytov62+sEkVXS9T94u3DYoO0Pih21j5Zf6O4TxTcEbwvTp8iEyKCzqz9iuo3lDTuCvO5AvVcqd7wgx8Yh1591Sz96xcA830cqg2KwB6k2iCUAa+0Qa/7Q2lun/LPhLAAdM0MJM/xLuwUACgC1dXVr4+Ojp6M6iWjdotTIcC4bSoryynX3WmiD7qdr7JFM7r1ecIElA/QEoMQ/YDWpo0bzUlOJkuflzxhcUA63913323GSlhlZ/0N/y5SsiDPH910k/HMnj2RuXzQd4yvWFsAioo41rA+IebE2k/Zv0VCKp9A5AlYoOTuaG/3wr6C2R82bRCuJlhWgsQj8Jvf8tOfespzYlxIAcgR/7/kpABwa0Bzc/OpTCZDVMHZ4gVs2RMjVq148VavXj0tCt8LfGTuhy/biVEOQW1IzTJB68YbTaCLKk4B94S2xdoCCEI8f/78JEjBpWINSsS4cFeLDJY+L9l68TYAZCurqswIf/TL+tyIAY2LFy0y9j73nHQLC6w2brUFRN4GJ1eLtd9hflvHR5YigIqNkHex/FnTBpubm12B3Vpt0Ctt0E4OD9x/vz8FYO7c8VwtAKtWlnbmip0z4jwvBQCKQDKZ/Li/v785m81+HuZlonNnhhIxmTr2wx+ajIKyaYW9gMy6341RzgpayGawnh/2N0DLrbYATKEvvfSSqSSYUfijo9PAFWCAlfV13/2umY4ZhKXPq/9evA2T8RwTtQXQnhvhkRgw55c7wquPuTIhugWJypxvxPGRpQQgeBW0wh988IEd/hXktqBpg5cuXTJaW1sn4wPcuAmsNxyHArC6pLRjRgB5rjfhRwHg1oD6uvrRsbGx0zJfLGqreJUCROGDVhgTGWoMwJ8c5SrbC0TcGOWiAC2vFbUTEyLPdQfwWp9/xFcEITzykgmUk7Vr15rm/ocffnhaEKJXPAei8O0sF0G4I9z6KIsJ0Y3wyCrjML/F8ZGlCPCyw1euBODJtaJlzL9hGbGmDX788ce2vRCzC9xSBa0no/iSTxmP5WoBIAXgVzwAkwGAHOydPlWmGh0dHW2ZTOatMC8SnVu8wG8dOwQHrV292nxZFy9cGJoIyA0wvPZBAXEq3iMLtLxW1LCQ+GFCNC0XJ05MUwIgXxAeLbz7blOmdix9XnIAIG6bKMcclgnRjfDIjTvCrY/w83vVFgBvA7I/3Nqx7gPh0ZmBAVuZWp/bML/F8fEJUp5gdu/SpUZvT48VBwv2twjsiLnxShuEghAkFuD+zZs9ZTYh+4u5KgCrVpa257p4nhHnBbEAiErBkSNH3h0cHGzPZrNXw7xIdO7MUQSwyr7j9tt4xwvKAAAgAElEQVTNl3bD+vXGsyFpbK2Te5DffJVt58sWo7ythEde18CK2q22QC5MiFhln7MpiDTparnhBtPVAsIjRMa79VEMQgSTn0wmRLdUzGNHjxrLli41xx7cEc+5xAdAOXGrLRCWtwFKoBPhkcz5RhwfWUoA2jHLDmezBQv81o4FTRu0nu/0268CMH/uvAu5KgCrS0rbZgSQ53oTuSoAXBnQdf3s+Pj4sMwXi9oqXqUAkyL83XAJgFYYZmeAkhtoRbnPZJTr6bFdEYqgBTY4L9ByW1GHZUJ0s1zABO/lasGKGhaFOJgQMb59fX3TZMoD5sAdASDDBC6u4L1qC8jmbXALEpU5x4jjI0sRwLuD+ACnoj5OoJnP7UHSBv308/5Nm3xZAObPIwUgV/z3zALgQO/2WaFWfHby5EkECX4s88WitopXEQDv/EM7dkxG4aOcbj7jA5wY5ThoiVH4Imh5rahlMyHi2i2trbZc+OA2WDPhahHLDsMqwdP6tm7dauA48d0Ju6K2U9B4KqaY6cCvCSB/4vHHJ2NDEKgHa9DSpUuNRYsWGfv375+W1od0MQC23bXCbnNztfA+y/gUx0eWInDbLbfkveywH7DmxwRNG+Tn2X1u9qsAzJ2bswVgVWnpsZzBcyacGNYCICoGNdU1l0ZGRk7JeJmojeIFf3Hs2tvajBXLlpmafFSpY34Bws2XDdDa9cQTk6CFgEak9S1btsysLQDrAI7h9wbFIaqCOLgfWC6cCiJVV1UZd064Wh588EEzwA8pmflgQnSLwgcg8oBGcA7Y1RbAMVBg/I5hmOPMINEY+APgCuPjI0sRgIUKilyx/CFtEP3l7IAIGETQa5A/8I34kd/8uXNHc3UBrCopPToTcDzne1BV9T+KIC7je0tLS0c2myXuAOIOMAETYAmf7G1i2eGAwV1hJn7ruc8884wJ3hzMxU8xynvx4sWG3Yoax+zbty8W0HIriARTPMzsL7/8soEqh/w+MNFGuaK2yhO/scpG0B7vg/hZX18/rbYAXCawyti1FeU2N1eL2Oew30VXmB8Q83MMOC3yXXY4CIDjWKQNIi6GKwJB0gBJAcgZ1v2feOjQoX8jA/StbSQrkh8NDAygzDBxB5AiYAIDovB5rrtX2eEoQYC3jbLDdr5sTP4N9fXmpCUCASwAIJ/h58f1CctFQypllu4V+4Pv1lRCKCeIro+rb9brQGHBOFv7af396KOPTokPsLYT9W+kcMKCA+XU2jeZv8+dO2fGb8gsO4xaBfkuOxxUEYCcYQUIkgbIWTI9laO5c0dytwCUtPpHyxl6JFPYsBXAZf1uqG8YJO6AmWHOlzUxiqljt9x8c1648EWA8csoB792vgIascJWFMUTrFAmOR+uFqysoXisXLnSOHv2rGc/b/nRj4zrv/c94+dPPmlWfBTHI87vJuGRQ5CorOcd7YiEVJ6ANmeOL9P3HbfdZmipVFAsztvxWP0HSQMsm6DJ9pLX/DlzzueuAJS2zFBY939bqqKulgX4du2oTL3a1dXVms1m35P5UlFbxa1YNDU2GosWLjQnO6/UsahBwc2XzZ+zm264wUBRF0SzxxXQiLS/Xbt2TcYh8L44fWJVC6UKkybcA+DUj1p2UE54ECJiEvxYAERXy5133GHALYPAwqj76tS+U5Cok5xz3Y74AO4K8wI2v/vXoezw8HDegD2qC4Nl0o8MSAHwj/W2R5aXl3+VKWzADrxlbqs8Uvn20NAQFAHPFQIdMztkBNOgkkgYTqljThN2VNvdGOXiJDyCggFgRS4/IucRkChG3ENu8LmDotb6rsgiPPKSsV8mRFgGuv0QHt13X15rS7gFiVplHOa3OD5+AM7PMYgPePSRR4xiKjvspTjEowCUNNuC4mzbyBj7a6awN2UCvlNb6XS6J5PJDIV5iejcmaUgIJf6yV27TO4AcAjI5ML3AjK7/WCUQyqj3XNmJTwCj71dG7luQ1T8uvXrzeh+u8h5s7bAgQPmNeGScCqIJLpaghIeufUdQAnLwj333DOpnIiKiFMQYhDCIygXbn2Icp9bkKjd85DrNnF8/IC8n2Nu/OEPzbLDQYLtvIA4X/s3rl/vzwIwd+5wCBdA02zDesf7ZYz9b0xh55yAW+b2pJr8tLenF0GCn+T6AtF5M0sJwHiePHHCWLd2rfni//jOO/NadhircCdGOTHKWxbhEUAVxElImQN/vzWtz6m2AMAQ1oLu7m5bhUUkPArragnLhAiZOlE1i4Q6hVBb4kUHwiPZ887Ro0eNe++5xxfY+VECcAxopDs7OvKF3VKui4qJvu537twhUgAcYT3YDtMdwNhOmWDv1tYEd0CP7JeK2itu5QBpQwt+8hNzAigpKYnFl+20qgRBDdLqrBH3eMashEdYuQaND0D7iCtYuHChuapGWh8UDP4M47uf2gLov1NBpLCuFrhGtm7bZiondrUFgjIhuhEewdViR3jkND5RbncjPOLjI+PTOj6+gM9HsCBAFC6HYvzzqwDMnzNnMHcFYFVjMIScJUczxv6JKWzIDbxl7mttbe3IZDJvyHiZqI3iBn8+fnyV/cPvf99kFETZYS8u/CjBAKtsgBPvn/hpJTwCYHr1BeAiFsQB+RDSxsR2c6ktwFfZdsF4vKwtrBb/fN11nq6WqJkQ3QiPREKd9WvX5rW2hJ8gUXHccv0ujo8sJYCXHf7www+LSg9Y79MCEE4BKE3PEkgPfpuwBiiKUsYU9olMsHdqa4I74BhxB8wMAM91ErSex8sOI5e6EEzDpi/bAtToM1ZxIuGRlQtfVAhgSr///vvNFfXmzZtRYXMK8AddUYtt8+8Ab1gu0C+rTEWWPjtXC5QTKDyoLbBgwQKz1DNM9LwdtCmTCdGL8AjjjkA3KIH5SsWEXCETJ8IjLhsZn+L4yFIEkMWSrKgwiqXsMJQ+P/d+7dy5ISwApAB4agbJV5N/yRRW5wTcsrc31DecHxsbOyPjRaI2Zo4ycaK7e9I0XOhlh50Ij3jkPMz9yJmHwiACtOzaAgAtWBmcLBc6XC1C2WHEIUA5KSsrM5WTOJkQOeGRm6sFSiAyRvJdW+IVlyBRmXOOOD5+wNDPMcvvvdfo6+0teGsA0hv93M/8efPOhXAB6J4ASAf8SgJqQr2eKeySbMC3a2+CO+AocQfMHACXNTGaUfi33WZODhs2bMiraRhA5LTKBssgpzMFacuePXuMJUuWGKAYBo2vaKKXvaLmVgDx0ynXXXS1YJWIIESn2gJxMCEiPgDWBbvnRSTUAeGRH1eLKAOZ3yeDRH0wH9rdi99tGB8QPCHC3w8g+j0GZYcvXbpUsIpALArAylKN8D2ABBRF+Rr7VZDgFTvglr2t8kjlO4ODg+1+XxY6bnYoDBy0QIs6GYUfUTU5P6BhMsr19tqCFgiPAFYInkOUP4qkiM9pnLUFeHwALA1iH/Ad8QcoiFReXj6ltgBkDSrioMGNfuTmdswvXn7ZOHPmzLR+oq8ioU7Zhg15pRWGEogKjlZ5yv7NXWHw6fsFea/jwMb4wvPPGx9//HHBKQJr/VoA5s59LWcLACkAAdBfOHSiimCHbMB3ai+tm9wBw7JfKmqvuBUGAMRk2eGbbjJpheMGKhHEsMoWfeX8+YJZ25qmNzg4aMD3LZ4f13esstva2jxBC0WG9sdU+Mju3s1sgZYW236KhDr5rC0Bl8lPf/pT2z7y8Zf5KRJSeQG83/2333qrSSschKo3ao2BZ4J43cO1c+eezVUBKC0pTQmwRl+DSEDTtN9UFXUpU9h7TsAtc3uFWvFZb28vggSJO6AA2RQxIYMHXmSskznxubUFkzF8m5gs7lm82ED5XjtAiWObX0a5Z595xjMKP6r+glkQAXVuMsU+RKVDphvWrzdkEx653RuUOATcgQnx0KFDrv0UCXVkEh659Q/7zIyUxx4zXSarVq1y7aOXnHPZLxJSeYGk3/33rVhhWl2iBnc/7a9ZtcqXpWN+CAVg1crShiCYR8faSEBV1W8whe2TCfZubdVU12RHR0dP5PLS0DnyV/zgIdc13RDHrL6u3kAke5zyhh/djMK/5RZz4jCj8PPIKOfmy4ZcsLLGxHzXj39sUv16AY6M/WJtAfAreI0PZLr3uefMlEGssh/duTPyKHwAP2dCfOihh6a5TPC82fVbJNS5b/nyyJRAkQkR8Rz79++fQskMlwlInOrq6qa4Uuz6HHYbd4UhS8IvyHsdx2mF33rrLT84HdkxpADYgG0hb0okEtdEWVlQBBh8P3b0WGcmk3kz7EtE5+emFGDywcpbZarR0NBgNDY2GbqeNpqamg0tpZkKQWNj45TJMQ5Z81zq6777XTM+4LGdO/NacQ4Bf05lh0XCo9IICY/EFbVdbQG4KNKNjYau65ERHnkpMCIT4po1a6YxIYrlmKMiPPLqI8z9YGlEoKRdPIeVt8F0YbS2Tsn0iOIdEAmpvADe735edvjTTz+NDOTdGl7t3wIwEMIFUF/ImFp0fUsmk783wR1w2QrYUfwWuAOuRPFiUZvTlQOsCnt6eowjh48YlUcqzSj4mppaw/qfTjca9fX1RoVaYbS3tU9ht4tDrgi2e3DLFnNlhCj8fFacc2OUgyLFo7x5rrtMwiOAFl9R29UWQM45juHg52a5EAmPTFeLD8Ij3q7TpxcTIpQTZFrgOLENKDWgFRazKfhzxZVAWC38EB6J7dp9R7bBtu3bTeDPhQnRjfCI91nGJ+I6VixbJs0aAGXh7rvuMpqbm92wOpJ9q0pLfd3H/Llzz+SqAKwqLa0rOpAthg4nEom/YgqrjwL07dqsr6s/OzY21i/jJaI2poM+lwkixWHeB6hjUq6trZsG/KIigP04DooC/gE2UCB4e3F8ptNpY9GCBeZkAh8nVpp2k3wc29wY5XiUN3LdwX4IZsAwAY1eK2qMpVsQIgoinbEpiDTparn1VlOmboRHbjLlTIjgQ+BkQ7kwIYYhPHLrH/bJZkJ0IjyS+R5Mjs+EK8zvit/rOBDzIL4nrj+/CsC1c+flbAEgBSBCbcIwjC8zxm5WFfV1O9CWvQ3cAd3d3UgZfF/mC0VtZc1VVktzi2nWh3kfPk4R6L2+19XVm4oA3AXwjeYjPgBlh5HnDoDdumWLmTHgBQBR7XdjlAtLeISVMlbxMPWjYp+1tgAi+/2m9XHLBVbU1vcAK28nwiMvueH+vZgQDx48GEhR80145MPVEiUTIic8guXHKlOZv8Xx8QJ3v/uRgohU0XffeSdyPWBVSYlPC8C8nC0Aq0tKayOEQGoaEjh8+PAfxswd8PbQ0BBIhCJ9wWZD+zC/wq+ZrEgatbW1po/fC+zd9qdSmgG/N5Q/xAfYmW+jlCsvO4yJjNMKY0L2Aqyo9rsxygUlPOIragT3Oa2oEbORS6ldKBV+yg57uVriYEJ0IzzirhYogU60wnCHbNq0yTT3R8mE6OZqkfkOiFkSfoHe6ziQEoFW+PPPP49MEShdudKXAnDtvHn9IVwANYTSMUkgkUh8mymsR/bK36m95uZmVBm8KPNlmk1twYdeVVll+vqbGps9zf1uwG/dh/iA2ppa05UAbvXMeLxuAbgiONOYHRd+VIBv1y7M/GbZYRtGOR7l7UV4BNByW1FjLF86cCC0ooOVu5XPgL8TjXC1LFxoTtrWssM8ch5MiDwIUbQqwGwN5URW7AOPD7AjPBJdLVwJxPFIc3z00UdN4IcSVV1dPWUBIQYh2o1jrttAeNTvQHjEZSvjUxwfL4D3ux+uta7OzkiUgBL/CsBpUgBiAvGwlxG4A953Am6Z25Nq8lPiDghmCTk/fN5M68OqH6t0mO+tAC7j96/iA5ongwkRWChjogvSBqwRCHLChIfo7meffTY0SOYKBNyXDauL9R6cCI+8VtQALSgXsA7k2i+785yi8NH3V15+2aStxSobQYcvvPCCgah+RM4DYE+fPj3l/jDu+yIiG3KLwu/s6DBW3nefOfYwN3OXST6YELmrJWoODSha3BXmF+T9HAdaYbQt8y8OBWB1SWl1WEyj83OQQDKZ/CZT2Ksywd6trdqa2tELFy50WydW+v1r5WBKWl99ykwJkwH0Xm3U1yOFsNFMJ0w1pGyZ9KIcJ77KFivOyVqJ2oGn1zZzle1Qdri1pcVYumSJCVqIRucramttAafIea9rB9nvusoeGjKe3LXLTMNEXQEoV4gkF8cxqhW13T24ReHD1QLWOaT1IZ1O7CPcX3ESIEEJdHK1iP0K+527wpAl4Qfg/Rwju+xwyYRy5nXta+fNy90CUFJSlQN80SmyJMAYm8MUdt4NvGXua29vhxJA3AFCfAQ0d57WV1NTYzQ1NkWy4vdSBDRNN/kDECiIgEM7823Yic/tfFDz7nz0UTNI8KYCqDhnlh0eHJwCSOg/xgureuRJA7SsK2qAVpxFcrjlAv2yyhe0tVVVVVO4BaBw+Q1CtAPzMNucovCtVhdkIyALIsy1wpz7wr5908bVKlsZv0+eOGGs81l21wuI+f5bb77ZqKmuDl12GG4k3qbb5/x58/pydgGQAiALynNvJw/cAR8ODAw0Z7PZWc8dAOpe+OKR0+8nrc8LxGXsB6EQ/K9wQQDM7IBFxuTn1AYqzoFJDpPOkjzTCrutshHNL94DVnVQGsIAT5hzX3zxRZMKWuyT3XcwIObL1fL000+b5ZHt+iVua21tNbwCGsPIyu1cHs9hjUEQ+yf7u0hI5Qa2QfYtX7bMON3Xl7NXACm7fq537dy5vbkrAKWVuSMXnSlVAqqqfosprEXmit+tLV3TXxsfHz8n+2UqhvYQfY9VNlbbYO+DGV4GeMtqw4wPaGw2lYDqqmrHqnBRyhqmYRRJwSS0cePGWE3BIkDAz49UPq97hU87b6D1/PNm5DyAxKuf8BcjPgDWi7hcLVCkwIuwdOlSsyqjVx8ROb/g7rvNsQdDYxwWFVMWE7UFEIToFGzp1fdc94uuMD/A6+cYEFtt37rVeD2HssN+FYD5c+eGsQAckQpi1Fg4CXDuAKawN9zAW9a+2cYdAFMnT+tDPj7AXxZoR9FOQ0PKAJEPFBXwD8BvnOsEl8t5cEOgXCrY5OAvBa2wlZFOBGuZ3xE5j6I9KIizbds2z/uGNWdhzKCFIDseOV9aWmq6krzkLEbhyyA88pI5VtRuTIhwU1h9/7gHWJ4QMHdjxNwRPEMCnA12GRI8ngOxCLDSRW0RE11hfkDezzF4f4KWHeZWOK/2vztvXggLQAkpAOEgO5qzy8vL/0hV1N1MYVdlgb1bO1WVVa+PjIy0eU1exbyfp/UhtQ8TSRSAHVWbppVigoEQ6WJYrcQ5FpxWGCuaH02UHZYdWS8CmQla69aZkfN29L09vb2GlTVPBK2oCY/AaIgVNUCLF8QROR0wPghmQ0AjxsturMISHonysvsehAmRR+GLqYm8zzxgTuSOgEXB7ppBt2Gcg9QWQPtuhEe8zzI+OwRXmBcI+91/+223+S477JfS+Nr583tCuAAOR4Ng1KoUCaiq+n+zBOt1A2+Z+1qaW3oymcyYjBeoUNqARt9Q32Ca0xvTTZGl9UUF/mK7iA+AAnM4edg40X0i8tWQdQwBZssmyg4vuece6RXnsMqDaRwpcwAGKGpiH4aGh42KigoTfNziA6IGLZ7Wh74iRVHsIyxMAF8RDBEf4FQQSSQ82rhhQ+j4gDBMiG6ER+COWLtmjekWuOvOOw2UcxbvMch3a20B6ziDKdOLCdGJ8EgcCxnfxfHxC/RexyHAD1YXtz+/CsAPf/CD87krAKuSUoCKGolOArt37/4tVVGXMoXFxx3Q04sgwcsyXqB8tYEgMQAWN5+DhU8E02L9PkkrrKomOyFM33HKmJuGUXseEx248HNh1xMBg3POL1y40Ja+l6+osfIWz8N3t1x3M8pbImiBGQ/KSVlZmYHCM6LcQWZz4Be/mNY/sb9QXuxy3bn/2YvwSGzL+h2reKyOZTAhuqViitwR69etC6Sw8HGGqR+uHcbYlAwJuJxQ4MivhcFNCRTHJux37grD+HiBu9/9vOzw22+/basHIIjQT1uLFywwSAGIDn8LpuVDhw79GVPYEZkrfre2amtqRy5cuHAi7MsT9/kAKKxWsEquq60zwLpXrGDv1m8oNHANYAzTerooyw5jAgdohS2IAzDct3+/AdeA3fMWBrQQnIaVMeiFly1bNg20YPoHaPl1ibgVRLIjPPLTLo+ch3KyefNmo6OjY4occmVCdCI84gqLyB0BcLcqJfw37gFKxfLlyydpmmGl4WOFdxbKeq5BkW5KIL+GjE9xfPyAs59jnMoOL5+wtHm1sXjhwtwVgJWlFQUDcNQRfxKY4A4YcQNvmfuKiTuAp/UB/GXT97qBcT73wS2A6+er7PCpU6eMzWVl5mrlzjvu8F12GKC1+f77zRU1QAuUyOIk7WdFzQFG/HTKdc8VtAD6sEzs2bNnCkkTgtNaWluN3S7AJ/bL+h1mcOs98/sHGHIAcHO1xMGE6LbKFgPmnLgjMM5utQVkMiG6ER5x2cr4FMfHC6D97l/wk59MKTu8bOlSfxaARYtyVwBKVqn+UIeOKigJ1NTU/D5LsK1MYZ/LBHunto4cPvLu4OAgggSvyniBZLfB0/qipu/NJ9C7XZuXHQafAcoO54NWWNf1ySh80Jg6pY5x0MJqFSt/5HuLkd1BV9RWYMVvRJajeJOVKwDPnV/Q2lhWZionyECARUl8ZqH0gKzG7tpBt4FwxykKH4RHIJYBiJhlh/fsMa8pZki4Rc7LzNhwIzwCd8QKC3eEySAopPVZ8/qjZEJ0UgLFMQz7Hc+sOD5+gd7rOLhVRs6fN0gBKCjILczOJBKJv2GMHXUCbtnbtQbtbCaTKRjuAKzCsIpSVdUAjW6hp/W5gbiMfSatcLrJjHuor6u3jZQPO/G5nY9VtllxziZ1zE+6V5gVtR3wwjSM1Zpdn+0IjwBajzzyiAn8dgVxkHkAcLG7VphtWGUDTOyi8BEzwGmFkU721FNPudYWiJoJ0XS12NStACAmk8lJhQXKHbIk8lFbAGPh5mqxex5y3YYx42WhvcDd735kXGCs/Ry/JIwFYGUpK0xko175loDAHfCmbMC3a69CrbjSc7KnLZPJfJTrSyPjvDP9Z8zVbk11jdHU1Dwj/fy5KgWID0g1aKYiAFa3fNAKP/LwwwYmsht+8ANjz9NPG6snCuI89thjBnzS4jMgc0VtB8SoFdBnKcKD6wO0DieTxm233GJOtiiOA9BCBDqUGd5HWBLioO/Fih0R8VBs+bX5J0/FhHXFLkPCT+S8nWxy3eYUhQ8LDgARY24NUIVyYloGHn9cuhLldB9uSiCXrYxPPj5+QFvmMWEUgNKSUsU30NCBhS0BVVX/mClsX2zcAVVVr58/fz4vQYIANNPP39QktUxvroBbqOdxWmHIqvt4ty2wyJj8nNqA6RyFZlaVlpoMdNZ0r6hW1HZggEA0pyh8gBYACxS9AFLxfmBhihu0EDAHgh6xH/w7QFRUELjLBFYEu/uOchusOg0NDVOUJd5P6ycUBj8BjVH0F7I5fPiwrTyt/Qz7G8RdKBMsE+Td2gJdd65ZAKQAFDam59S7RCLxj0xhp+1W71Fsa21p7clms5mwL06Q8zHpzXZzv1+lg5cdRnyESSvcPzVvPYjccz0WUekiaEGBq62r853uJRMU4MtONzZ6gtbp/n7jpQMHYgdVfq8AS6vf3E7+KGC1dcuW0KmY/LpBPnmGhDUl0q6foBYGu52VIyHI9XI5FkGIYEL82c9+FosCgHuHZSmKssN2ikAYBWBVaWkiJ5ChkwpbAuAOYIyVfvH/cRSgb20zmUx+3N/f35rNZj+ze/mj2HbsWBuZ/WtqfcsAtMK87DBohcU0rCjGx63N6qoqY8eOHYZb6lguk72fc1AQZ9euXdMC+3h/RwKm9fm5ZtBjeOS8H9Bqamw0XS2gFYY847AE4BoActQWQBCik7WCyxSfyPnn3BEPbtli8jcElUuQ42G1eeihh8x4DrhMWlpapigAiK0QlVKxr7K+i4RUduAtY9s9S5aEsQAcKmwko96FkoCiKH/OGKuyAnZUv+tq60bHxsZOy3qB3NqBlt3b21dwhXz8rszzdRwsJ2BGBEHS0dajtpHybnKXsU/XNIPTCsNfHAdomUGIzz5r+vgBWtYywgADuChkRs4HASwcC3+1WFsACpsobwSc4bkXt+G7TJY+rz7zFTWyOOxomrtRArm62pbwSAyYQ5DbE088YQbreV0zyH6MH+SIMUY8BwpJifEc4jibhEfd3dPkaZVv2N/i+MgAfbGNe8K5AEgBCIWwRXLyBHfAaFTAL7YLYOns6DyVzWbfCfvi+DkfL3dX13GKBQhgDYDykW9aYTF1bPGiRcZeC31ukEnf61gTtFxqC2CCxjFe7US1329tARwXFeGR170FqS2Attyi8K3cEWFohXm/4TLxYkK0o2nG+U6ER37mnyDHiIRUIoiH+R5GAVhVWvpqkUAYdTOsBMrLy/+AMbYzLu6AyiOV7wwODrbHxR2A1UVr61HfJvF8rcAL6bqcPwBBgsimsPLaB5nccj0WXOu38bLDGzZIDbiDGdittoAZOf/qq3kDfoAPFI+gtQVwHoLq7Nw4UIiR9eCXpY8DqNOn14raK0PCjfDIyh2Ra3wAZHi/QCplZUL0kyEBKxQsF1FnzIjjEwb4+bkhXQAHw+IKnV9kElBV9T8yhR0TV+1Rftd1HdwBw7kCRNDzkHqEiaWQgLbQ+4L4AJFW2I6vPug4BDkeQZ3WssNYQTqBktd2gBZ8/U61BbxAy6t9GfsBjGFrC8CtEYbwyO0+/KyowbHgtw6EE+ERANHKHeGXEpiTSmGcwTsALgXRRQIwD1JbAPJwIzwK8kx7HSsSUnEwz+Vz6T33hIkBIAWgyPBbSnfLysq+oijKXUxh70QJ/rxtlQQ9GhcAACAASURBVKlXek71wBoQC3fAr+IDeik+IKBbAHUT6uvrzfgATO6YnL0mMpn7z/T3GwgQQ3wAAsYwwQdJHcMqzq22AJ6LIKDlBpC57uOR87JqC6AfbrnuoqsFEePP+XC1eK2okfPuVfjITj4YHyfCI1gzdj76qBnQCOvFz3/+c8fYECg+e/fuNQsK2TEh8nH2q0jY9RW0wk61JWQ+8+L45KIA3BtCAVhdUvoLKYBCjRSnBI6UH/n6BHeAWVSGA3ZUnzXVNZdGR0dPynyB3NrCCqCzs4viAwIqAgiGO3Kk0iRagn9cXFW5yVvWvqNHjxqY2DAhInXML2i51RYohLQ+BJ1FVVsAIOZEeIRxgavldg9Xi9eKGvS9APAgSpkduMJC40R4hIwCcEdg7O3KDkM5QVQ/ghDh3rEGc8qsLYC+OxEeyXrWeTvi+ARRBO5dkpMF4NNtW7el62rr9hUnclGvpUpAVdX/whjrjwr4re22trb2ZDKgDsjGssLExNXc3EJugQCKwGTZYaaaVRWtBDlRjx2UDuRS/+jGG00wMLnwbWrQc9Byqi0QJee8HbjZbQNoxVVbAODsRHgEhdjO1eK1ohYj5+3uL9dtboRHSBW98/bbzbHfuGGDGSuxbft2E/jXr18/La0vynF2c7XIfA/E8fGrBAS1AGzcsLE9mUyOIiBR07RyqUBCjRWvBLS92u8qilLGFPaJFbCj+J2sSH7U399/LJvNfi7zJXJrC0VX8OAXuk++kPqnabopMzwDSEuDv95NxrL38dSx7117rcmPzlPHMCkjaAypXnZm4KhAKwjYIQiR1xZAoF8qlZoiuyhByy0KHyb8n27ebLpaQIO8biJDAimI1hW1mSHx/PM5x2P4kRdW2WCFtD47YsAc+njvvfcahw4dmuKawjFx0DTjPp5xqS1h7XuY35xWGK4wL0Xg3qVLfcUAbFi3fuzASwc6JoDffKdJAShevI6s56qq/gVTWE0UoG/XZn19/cjY2Fh/mBcmyLkABkxqiIAvJKAt9L4gPqB2ouww6HEz49Pz0YOMQ9BjT544Yaxbs8acEH9y112utQXMgjg+fN1+wCmXY8TI+SVLlpi56GJlwjhBC6tsx7LDR4+aVec2btxomuTFMfETOZ+LbJzOcYvCh+KeOHRoWtZDPmoLoP8vvvii0dfXN01hEeUn4/uxifFxUwK8FID169Z//vTup9tTqdRlC/iTBSAyFJ0BDZvcAQl20Q60ZW8Dd0BXV1dXXNwBeDlhbkO6UKEDbyH1j9MK57XssKYZixYutK0tEDdoWcGMR86XlpYaCPJD4SNrqd981BZAP19xKTtsDfbMF00z+omAxq6uLk9wraysjJ1WmI83lBXEpcThFuOuMM6iaFUGUDbYrhbA6tJVxpO7nhyrra190wb4yQIwAzA68ltQFOVrM5k7AIoA0nFAilNIQFvofTHLDjc2mtkCKMNsl48uYwXk1AZW07DkiPvBm4+JmU/ScX/Cz//ggw+aPupNmzYZiO4W+4fvCKDLNdc97P1w5QTPu7Vf1t8IFuSulrDXDXI+wB9KE4oyWftk/f3Siy9OxgfEWawJFhXUFkDMibXaobWPMn+LrjBRCbBTAH6246GPKo9UDroAPykAkaPnDLpAxaGKv1MUpV32yt+pPT2lD4yPjw/JfIHc2oKWffp0v4F8+EIH30LqH+IDUHoYFpyW5pbISVTcxvDGG25wTR0LAkRBjuW1BZCLvnz5cpPz3qqc8H6/uH+/CVoIaIwTtKCcQCkBaPlZtW7etMns55133OErAyOIvOyORbwCwB/uksWLF5vcBlxmTp+yuSPs+iVu82JCdOqn7O0iiyIUgWX33jtpAdi8adOVQ68eOqdp2lUf4E8ugBmE0ZHfisAd8K4TcMvcXqFWfHby5MnmbDb7seyXyKk9mEK7u7spPiBAtgAUEl52GBUH4ZeNO20Q47mqpMQErcULFxpYpYmTdxTfvSLn7Z6xuEGLr6gB/CUlJWZ1QXFsYLlxynWXxdLnJXsoJ25MiKgtgJx8BFBaXRWQcVjuCK/+ifEcdrUF7MY5jm18fKAArFuz1nh+797RhoaGD3wCP1kAIkfMGXqBQ4cO/es4uQOqq6ovDQ8Po7aAp1lQ1jEwtx09eoysAQEUATM+oLHZgBJg0grnoewwcqnvmEgd27B+fWSrbIAWj5y3LYjT3W0GijnluotR3rkQHnmBFlbUPEMCK+r9+/dPyd4AkOrp9GQhHjMK38Y1gONElj6ZFRzBhLht2zbTKgFZWqv1ISsgoShTFDkoNCBysnvPRe6IlStWhLZccJcJFCfEc4CYyC5Twa4vcW3D+CQOHTpfX1c3HhD4SQGYofgc221VJCr+K1PYGZmrfre2Wlta2zOZzHhcLxeu89pr5wxEvxeS2b3Q+wI3SjqdNt0CKDuMVLc4xwyTIufCR+ogyGJklR221hawVuszgxAttQVgjYBVyU4GYpS3DNCCYuC1onYqiOMWhR+Epc9LOfFiQvRD0+xEeMQD5ry4I7z6CBm61RawG8u4t42Pjw93dXV15gj8pADEhpQz+ELl5eVfzQN3ANwCsXEHYFLp7SVa4aCKB2oLgFa4Qq0wV21iGlwckyWi7x/aseNXZYdvvNGkFc41SFBGbQGninOyQEtcUZeVlRltbW1TlI7+M2d80fdild3S2mrrxhFZ+hYuWBAooBEraihDTkyIeCaC0DSjPSfCIzFgDrTCfgMaOamUU22BOJ5bH9d4p7+/X0+n03ZpfRzY/X4SEdAMxufYbi35avIvmcLq3FbwMvc11DecHxsbO+3jZZkyCYY5HitLKjtcG9gaAgtKVWWVgdRB0LSGGYNczm1vazNWLFtmxgegdCqA0msFyPdDYXCrLYD+BAEtt1W2CFr/fN11vkHLa0WNuAMUxAFg8vvy8wm/OxRfO5nD1cJZ+uBqQdS+W5tYUUMpQSwCzP7g4RDbzbW2AK7pRniE62wuKzPH/sd33mk4lR3OJZ5D7H9M36+MjIw0NzU1vRFy1S8qB6QAxIaSs+BCakK9ninskkywd2pLZerVzo7O5kwm81ZML6A5acGkTbTCwRQB0ArDXK6q6jSmuTjGDqtspOCB9Q6R0060wiKIAbSiqi3gVnHOL2h5raiRiYCV/O7du13BWbxnu+/ww9uleYquFjDW2cUHiEyIPAhRHG+8SzJqC6DfsC44ER7pmmYsuPtuc+zRDzEVE+PsVltA7G++vo+Pj/e2t7f3SQR+rgSQAjALcDnWWxS4A644gbfM7ZVHKt8ZHBxEpcEpq4qofxOtcDAlAC4EpA36IXmJauywGn5mzx7juu9+10B8wGM7d04GwnHw42ZgrFZRYhb8AlAgeJ9k0ve6VZzzAi23FTVSxV7Yty8U8HN54BMrZNDt2qU3clfLtfPmmXUboHBAwYErAQGIdkyIaAcBknCtiNeR8d2J8MhUWF580fjh979vuoVQedCttgAf73x+ol5KT09Pc4C0Pg7sfj9JAYgVHWfRxRRF+XumsA6ZYO/WVlpPn8pkMoNxvrAABqzYsMIN6iOfjccjU8APEU3UYyhG4d9x220mx7sYOR93bQGninNW0EJdgYcfecQ0pSN1DqlgoqxkKid2YOwWhQ9XCFLSYGGBW4BHzlt5B/C+wK1i176sbXC1wLIwYlO3Ymhw0Cw7jHG3qy0gyjOP3y8PDQ2l0+n0+16rfsRBPP7YY34B33ocKQCzCJNjv1VN035TVdSlTGHvuYG3rH354A7AJAFaYTC/zUZQ93vPiAU4d86bhS7OSRfZCosWLDBBq2zjRhNYwUQHBUHsRxy1BbDKrq2ttSVT4qB1849+ZLuihqIQV0EcgPQvXn7ZOHPmzBQZQV5QiFXGjF1PPGHSbIsyNDMkDh6MFPitCoSbqwUBjXauDbHP+fh+4cKF9paWFl6tzwrYk7/xrDy560kDlL9lG8smt3spDJb9pADEjoqz8IKqqn4jVu6A6ursyMhId9wv8NAQ4gOaSREQ+ANAG3zqVM8UM3rc4+J2PZijX3n5ZXNViFxy8dh8gJZbFD7SCa0r6mNtbaa53Qp+Uf9GDMKRykrbVbYoQ3zXdF1aKmYu91VeXj5lXK39K4TfmUxm6Pjx49ZqfdOAHYRIL734krFh3fpJBkBSAGYhqBbjLScSiWuYwoZlrfi92gF3QDabjZU7AJMJ/KKgyPW7Op6Jx8Hcj2JLcaf/yZrMUw0Nkfio/QLYq4cOeYIWTP5REh659RVmdgTeJZNJz34+9eSTRhSER279wz4oU7DowKUj67mQ3c6lS5fePn36dKOu659ZVufTwB8VER+4/6eTwM+LAOWiAOi6XqNp2r8vRhyhPhexBATugMteAC5jf7Ii+dHAwMCxOLkDMElgZQl/J4BwJgK82z0hSwLgJHuyjLO9Rx5+2HBLHfMCn1z389oCoJ31ul8ENSJlEAGNO3fujG2VDeDnkfOoyufVT6RiLlm0yHS1rLzvvkCpmLnI0Vpb4OWXX/bso9c9RLDfd1pfVVWV8djOx0xzPwd98TOgAnBO1/XrixhCqOszQQKJROKvmMLqZYC8nzbq6+vPjo2N9UXwIrtOLrOp7DCsHiiqFLeMo7heU2OjcdePf2yC1prVq429AfgDcgEtxAAgnx7AjxUr6HvF+4JCiX9xG77zKHyk4oEBD1kMWJ3n0gevc/wwIYJzwOqmQD8RH6AkEmYf/aZievXHbj/S+sTaAtZ4Dqv88vF7bGzsxLFjxwa8Vvwg0nru2eeMtavXTFv1cwXg/k2bjYMHD06zFljb1nX9Q03TyjRN+92ZgB90DzNAAoZhfJkxdrOqqK/7AfGwx4A7oKur62g2m30v7hcfPOLIhXdbORfrPlg54J+2A6i45SzzejzXnaeOIdcdxDt2wBNmG0DLrbaAGTn/wgumSduJCz8M4ZFX34MyIXLCI1gorOORK+GRVx9FJkTIErE41mvn+3cmk8n4TetDOuOmjWWOwL9+7Trj+b3Pm0WSrGBv+Y3KgOV1dXX/dgZABt3CTJTA4cOH/5AxtpMpLC7ugLeHhoagCMQ6SWAVNNPKDqNokt1EH7dso7wej8JHrjuUARSGkbHK9rOiRoqgFfxefuUV48zAwLRnF8+XSXh0662m5cIP4ZG1bfE3Av3CMCG6ReFDqfHD0if2x+67FxNilM9FgLY/OncOlnfds1rf4cOHjW1btzkCP6L+dz2xy8wYsQD9NCuArutdmqZ9eyZiBt3TDJRAIpH4NlNYT9iVvt/zJ7gDhgK8yNMm3VzOxcqy2MsOg+vfztSbizyK5ZyO9nbjvuXLTXBF2WGRUc4OnJy2BV1R27UDcEYOOFbUVvn5ITyya1PcJpMJEe4Mx7LDLix9Yn+s372YEK0yyddvpPU1Nzd7pvVxMH/h+ecdwX/71m1GsqJiGtDzc4XPNzVNW1peXv4bMxAm6JZmsgQE7oD3/QJ5mOOSavLT3t5eBAl+Evckgcm7tfVoUbkFkNYHjnisNuOWV6Fczyw7fNttpiKwYcMGTy58Dl5hV9S8HfETygRK+9q5X8709xsPbtliMt9xwiP0QTzf+j1KJkQ3wiOz7PAPf2jAymJHKyz2E8qJGxNigTwn5/ym9SUSiUlQt1MAyjZsNFP/kAIogLzd9091Xd9ZV1f3BzMZI+jeZoEEksnkN1mCHQwD7kHOrampGR0dHe3Kx+SBssNYURdyDECxp/XJHlcEd2Ky/v7115tR+GbZYRdqW5krahEM+XdE5nefOGGrlCGgcdHChabCct+KFcZzzz03TQkwgxCfe24yCBFBj6J1AQqGDPpeP4RHUAJQxc/qavGqLSB7jHNp79KlS2/19/eng6T17di+fRLMRQUAwX+7n3rKrKrpAfw4vz6VSv0vswAa6BZnkwQYY3OYws4HAfMwxx47eqwzk8m8kcvLH+YcrKgLtexwSwvS+s7bgkuYe54J54IRb7Ls8E03mVH44io7yhU1B3/x06vs8E033GCusrdu2WL2FedCOeFpfVBkrJHzUTAhuhEedXZ0GEgXRLYAXC1QRvbs2WPWFkCWBKLe4UYrsOfns+HhYa2xsRHm90lAt/tuTeuzUwB+9tDPDKRY2p1v2fYapfXNJkSchfeaTCZ/T1GUMqaweLgDkskPBwYGmuPmDsCEhomtUMoOz6S0vqjBAkrS0iVLTNBavmyZCVpYsQKwUBTnwIEDU4IlZa2oRfDn33kUPqwU1vsG/S2KIH13/nxzlQ1zOwofwZWRDybEFz3KDt9x++3GwgULzNoCIPVB2qP1nvL9e2xs7HhbW9sZCzBPA2+ntD5RAThYftAA4Y9XW5qmIaCQ0vpmIR7O2ltWVfVbTGEtYVb4Qc5tqG8YGBsbO52PCQZEOvkqO4ziRojSns1+/lzGnEfh33rzzebKFcAa14qag7/46RqFf+KEsW7tWmNTWZnBGJsSQwDFAfn8MjIdxP64fUfZYTvyKPQFK36wSuYyJhGfMyYjrU9UAHwAP6X1zVoEpBv/EucOYAp7IwiY53osuAO6u7tBKRw7dwAmr7Nnz5pldOOKD5gNaX0Rg4Jx/vx548BLLxmtra1TQCsftQUAuvsQhd/TM6UvXAailQAKDCwZUBzcwDqqfQhoRJwB71sBf3549uzZOl3XPav1IWof0fucuMf6ibS+Z595xs+KH9Ufu1Kp1H8mGCAJzHoJlJeX/5GqqLuZwq7mCu5Bzqs8Uvn60NAQ3AKxT1AwF6OgTpRlhxsbmwyQFeXj/mbDNU+dPJlz2qAMwH3hhRdcV9FQEPbt25cX4Mf9wdqAQMb777+/oJ9Bv2l9YrU+K+jz35TWN+thjAQQVgKMse+wBOsNAuZhjm1qbDqByl35AC2s1mAKlWkNoLS+eBQ6lItGUFvJfffFqgggDgG+c7gjdF2fBq4wu4NPQIaSkWsbYm0BRP7n493yuub4+Pjpjo6ONi8TvV21Pg74/JPS+sLO+nQ+SUCQwO7du39LVdSlTGHxcQf09MIaEDt3ACYqBHI1NYUrO4y0vs7OrkKMpi5IAPACCK/9MK+DC98uCj9X4HQ7DwVxQFSEAMQlS5YYKIgjVmZEsGlDKmUgLc+tnSj3QTlBjASUE2QhgCrbS45x7w+S1gfl4KmfP+Vo7l+zarXxzJ5nKK1PmLvpK0lAmgQOHTr0Z0xhR8Ks8IOcW1tTO3LhwoXjcU9KuB4AJVda4ZaWVtNPnY9+z/ZrQnl7cteuySh8a667DMAFfW9paakJrABYa+Q80vpyZTGU0T/4+lH1cOHChWaWBJSTQk3rS6fTnml9olXgySd22SoAlNYnbZqnhkgC7hKY4A4YCQLmYY4Fd0A2m42dOwBgivgAv2WHKa0vHnO/HyUHY7Z2zRrTLXDXnXeagWBhwRX58lu3bjWBf9OmTUZbW9uUFTXy+w/84hd5W/H7YUL0I7uojxkbG+vyU61PBH7+3aoA/HTz/carB1/1E+RnpvVVVlb+jvvsRntJAiQBTwnU1NT8PkuwrUxhn4UBd7/nHjl85N2zZ8+ms9nslagnKLv2wdp27FibbXwApfUVDvBbxw7Acfddd5mKwPp163zTCovKgldBHNQGQFqfSFAknh/HdysTYiGm9WUymfMnT55Ma5qGVDs/oD3tGK4ABK3Wl06n/2fPSY0OIAmQBIJJIJFI/A1j7KhfIA97XEN9wxkEDFkn+rh+nz37mgETP0AfK/6uri5DTPWKqx90Hf9KB8zfL730kknMM3/uXE8ufA7YPHJ+2bJlpjkdbHliLj2sQy2trXlL60M/vZgQC+Q5+cBvWp+XYvDkrieNJx5/3KipqZmmHNic29nQ0PB/BZvR6GiSAEkgkAQE7oA3wwK8n/NVpl450X2iJZvNvl8gE9wUUzD1yT84xymrwcFBY+ejj5pUvTfdeKOxe/duRzIerKjXrV9vmvu3b99unDp1asoYnzx1ynghj2l9XrUF4pSry7Wujo6ONjc1NV2wAWc/AD7tGLD9+WjLrNZXVlb2lUATGR1MEiAJ5C4BVVX/mClsX1zcAVVVVZfyxR3gMulNAQo6rvCUAaQMrpgoO7xk8eIpxXsQvMcj59esWWMg7UwcQ3A5gFWPWwny8elVW0Dsb76+ZzKZvs7OzmM+wNoPoPs9hqr15T5905kkATkSSCQS/8gUdtrPal7GMc1NzSez49mL+Zrs6LqFB/JeY4Isj2QyaYBWGPwB92/aNBk5v3TpUuPQoUNTIueR4oe0vjjpe63KxXN79xrbtm+fTOtrbm6eopx43XNM+3/pt1qfZOWgjqr1yZm/qRWSQGgJgDuAMVb6xf/HMkDeq40KteJy76+4Ay7HNNEV4uRLfQrIJIn4DZSI/efrrjOWL19ukvqAHlp8hjo7Ow1U17MCcly/QR2MtL5FixYZ99577zTlROxrHr9/OjQ0VNvY2PiGZGD3Wv2fpWp9oadraoAkEI0EFEX5c8ZYlReAy9pfW1t7/uLFi3nhDsjj5DsFsKgfwS0Sp0+fNpC/L8quENL6wOIHxWTBggUGOA0QxyD2sRC+j42Ndeaa1hdCWaC0vmimbGqVJCBfAhPcAaOygN6rnfb29u5sNvtmIUyQ1IfggFwIMnvwgQfyRugDPz+4BsDi9+CDDxonTpwoOOAHZXd3d3cqTFpfDgrA1VQqtU/TtK/Ln6WoRZIASSAyCZSXl/8BY2wnU9jnXgAuY//hisPv5JM7oBBAjPqQu/KBAEGkDT64ZUtsLgCxtkBJSYlRXV1diGWjpaX1BVQAKK0vstmZGiYJxCQBRVH+linsmAyQ99OGrusD4+Pj5wgMcwfD2Sg7kD89s2eP8b1rrzVjBJ544gkDNQCi8P1bawvs37/fAMFQgcn96sjISKqpqWk0IHB7+fG99o+nUqm7KK0vpgmaLkMSiFoCeJkVRbmLKewdPyAe9hjOHZDJZD4osEm10CZ56o8lkBAcAJvLysxsgTvvuEMKrbCoRFhrC5w5c6bgxiCTyfT4qdYnWTEw0/oqKyv/x6jnI2qfJEASyIMEjpQf+foEd4ARFuT9nF9VWXVpeHi4nZQAsgYEfQZQ7nfh3XebikDJypWh4wOQ1udWWyBo/6I4PpPJZPv6+hp0Xf9cMrh7rfrr6uvr/zoPUxJdkiRAEohbAqqq/hfGWL8fEJdxTHNz88lMJjMWxaRJbc5c5QK0wgfLy40bb7jBZBTcsWNHYCpgr9oCBfL8mGl96XQ69rQ+TdOuiXv+oeuRBEgCeZZAeXn5b8fMHfBRX1+fns1miTvAYvYuEBAqOFM4l8vQBK3wd+fPN2sM+Ck7jGJBSOsTawugfDFvs1A+J9L6zsS84qe0vjzPv3R5kkBBSEBV1b9gCquRsdL300ZdXd3IhQsX+gplAqZ+FI8FAel5a1avNt0CP/nxjx3jA5DWt96ltkAhjHkmkxk8fvx4Q8zAT2l9BTHrUidIAgUmgQnugAt+QFzGMQhyymQyxB1A1oDAq/LamhrjzttvNxWB9WvXTpYd9qotUCDA/87AwEC9rusfxQz+R3Vd/4cCm3aoOyQBkkChSEBRlK/FzR1w7rVzqDR4tRAmZ+pD8VgDUC/g+b17zZRBpA4+/thjZhlhu9oCBTKuVyitr1BmOuoHSYAk4CiBikMVf6coSruMlb6fNjRNOzM+Pj5YIBN14BUp9Tt/isPAwIDx0I4dxrq1a21rCxTC2GQymV6wZca84qe0PscZjnaQBEgCrhIQuAPe9QPiYY+pUCs+6+7uThN3QP7AtBDAMtc+DA8PF5zilkGd3r6+Wk3TKK3PdbahnSQBkkBBSuDQoUP/Ok7ugMojldmhoaGOXIGAziMFogCegcvDw8MN6XT6zZhX/WdTqdR/L8iJhDpFEiAJFK8EKhIV/5Up7EzYlb7f81tbWkEgRNwBFCRYcCt7NwXj4sWLR1taWgZiBn5K6yveqZV6ThIoDgmUl5d/VVGUMqawT/wCeZjjKtQK4g4gBaBYFACk9TXGDPxmWl99ff0fF8cMQr0kCZAEil4CyVeTf6koSm0YcA9ybn1d/XniDiDTvtvKO4/73h4YGKjTdf3jmMG/Q9f1/1T0kwndAEmAJFCcElAT6vVMYZeCgHmIY692dnQ2ZzKZX+Zxsi+W1Sj1M3rLCdL60k1NTRdjBn6q1lec0yX1miQw8yQgcAdcCQHuvosTJSuSbxN3AFkD8qkEjo+Pd7a1tVFa38ybzuiOSAIkgVwkoCjK3zOFdcShBOAauqafymQy5/IJBHTt2aWIZDKZ8Xyl9aXT6f+Qy3tJ55AESAIkgVgkoGnab6qKupQp7L04FAGBO+BDAuPZBcYxj/dHg4OD9Y2Nje/Gae7XdX2A0vpimbroIiQBkoAsCaiq+o04uQOqK6uzFy5cOB4zKJCfPXo/e95lPJHWdzZO4Nc07X1N08oqKyt/R9Y7Se2QBEgCJIFYJZBIJK5hChuOwxqAa4A7IJPJEHfALADmqJU9uJe6u7uPxQz8lNYX6wxFFyMJkAQilYDAHXA5DkUgWZH8sL+/vzmbzX4eNUhQ+zPP7XDp0qW3zpw5U6Xr+icxg3+7pmn/Z6QvIzVOEiAJkATyIYFEIvFXTGH1cSgBuEZ9ff3A2NhYL4H0zAPpiMb0s+HhYa2pqelSnMCv6/pYKpW6C7U38vFe0jVJAiQBkkAsEjAM48uMsZtVRX09JkXA5A7IZrPEHUBuAcd4gvHx8Y5jx46diBP4NU2jan2xzDp0EZIASaCgJHD48OE/ZIztZAqLhTvgyOEjbw8NDR3NZrNXI1o9OoILXa+gLRDjPT09zZqmXY0Z/FlDQ8OfF9RLSZ0hCZAESAJxSiCRSHybKawnJmuAkdbTJzOZzCCBckGDchzK1IevvfZaVTqdzkda3z/F+Y7RtUgCJAGSQMFKQOAOeD8ORSCpJj89efIkggQ/JkVg9ikCFy5caG9paTkf84r/zKY5VgAACqNJREFUbU3TSsvLy3+7YF9E6hhJgCRAEsiXBJLJ5DdZgh2MQwnANaqrqi+MjIx0khIwO5SATCbT197efjRO4E+lUldSqdS+mpqa/ylf7xVdlyRAEiAJFI0EGGNzmMLOx6UIgDsgm80Sd8AMDRKcSOurT6fTl+MEf13X21Kp1P9RNC8edZQkQBIgCRSCBJLJ5O8pilLGFBYbd8DAwABxB8wsJcBM62tsbHwjTuDXNO1iKpW6GRkvhfAuUR9IAiQBkkBRSkBV1W8xhbXEZQ1oqG8g7oAZoASMjY0hre9kzMD/kaZpW5ubm/9FUb5s1GmSAEmAJFBoEuDcAUxhb8ShCKhMNbkDYDqm+IDiig/IZDLnT548mc5DWl8ynU7/aaG9O9QfkgBJgCQwIyRQXl7+R6qi7mYKuxqHIlB5pPL1oaEhuAXiSEuja4ST84dnz56t03UdRXSMGP/7U6nUf5sRLxjdBEmAJEASKHQJMMa+wxKsNw4lANdo1BtPZDKZIVIEClIRujo6Otrc1NQ0GiPoQ8F4S9O0pUhhLfT3hfpHEiAJkARmlAR27979W6qiLmUKi4074NSpUzpxBxSOEoC0vs7Ozlir9fG0vsbGxn81o14ouhmSAEmAJFBsEqioqPhTprAjcVkDamtqR0ZHR4k7IJy5Pqy745f9/f1pXdc/i3nVr9XX13+r2N4R6i9JgCRAEpjREpjgDhiJSxGY4A4YJ7dArBaBT4eGhmrzkNZ3AWl9M/oFopsjCZAESALFLIGamprfZwm2lSnsszgUgWRF8kPiDohHARgbG+s8duzYQJwrfl3XP9Q0ray1tfWrxfxeUN9JAiQBksCskUAikfgbprDWOJQAXKOhvuHM2NhYH1kD5CsDCL6cSOuLM7If10o2NDT8yax5aehGSQIkAZLATJGAwB3wZhyKgMrUK11dXSg3/B4pAlIUgQ/Onj2r67oOcp04wf+4ruvfmSnvAd0HSYAkQBKYtRJQVfWPmcL2xcYdUFl5ibgDQikAV0dGRlJNTU0X4gR+Xdd/ibS+8vLy35i1LwvdOEmAJEASmIkSSCQS/8gU1heHNQDXSKfT3cQdEEwRmKjWdyJO4Nc07TNd13drmvYvZ+JzT/dEEiAJkARIAl/60pfAHcAYK/3i/+M4FIEKteJyb08vmAQ/IbeAszKQyWSyfX19Dbqufx4n+H9h6m/QNO1/pZeDJEASIAmQBGaJBBRF+XPGWFUcSgCuUVtde350dLSLlIBpSsCnw8PDDel0+s04gV/TtHO6rl8/Sx53uk2SAEmAJEASsEpggjtgNC5F4NjRY52ZTOYNUgSyxsWLF7uOHj16Nmbg/wBpfV9U7Ptd67NAv0kCJAGSAElglklA4A74PA5F4MjhI++cPXs2nc1mP5+NigDiIrq7u5tiBv6rmqaV19XV/dtZ9njT7ZIESAIkAZKAlwQURflbprBjcSgBuEZdXV3/+Pj4rOEOyGQy7wwMDKBa38cxg39nKpX6z17jT/tJAiQBkgBJYBZLoKys7CuMsZuZwn4ZhyIA7oAT3SdaZjh3wJWRkZF0c3PzxZiBH3EFlNY3i99nunWSAEmAJBBYAkfKj3x9gjvAiEMRqKqsmpHcAbBwdHR0nIwZ+D/VdX1nXV3dHwQeeDqBJEASIAmQBEgCkICiKP8PY6w/DiUA12hubj4xPj5+YQbEBmT6+vpqUTo3ZvCvq6+v/2t6ekkCJAGSAEmAJBBaAuXl5b8dM3fAR319fXqRcgdcHhoaSjc2Nr4XM/Ajm+Ca0INNDZAESAIkAZIAScAqAVVV/4IprDoua0BNTc0wUuWKxRpw8eLFo62tra/FDPxmWl9lZeXvWMeLfpMESAIkAZIASUCqBCa4Ay7EpQh0dHS0FTJ3ANL6jh8/3hYz8F9NpVL7NE37utTBpcZIAiQBkgBJgCTgJgFFUb7GGNvJFBYLd8DhisOcO+BKoVgEhLS+T2IG/3Zd1/+T2/jQPpIASYAkQBIgCUQqgYpDFX/HFNYWlzWgob7h9NjY2Ok8KwFI62tuamp6PU7g13V9LJVK3YVUzUgHlRonCZAESAIkAZKAHwkAkBRFuYsp7N04FAGVqZ91d3enM5nM+3ErAuPj413Hjh2LNa1P1/XLSOtrbm7+F37Gg44hCZAESAIkAZJArBJIJpPfZAl2MA4lANeorqoeO3/+/NFsNhu5WyCTyQyfPHkS9L2g1DVi/Ffq6+v/LNaBpIuRBEgCJAGSAEkgFwkwxv5JVdTBuBSBmpqac+fOnauLIm1wfHx8oLe3F9X6LscI+sYXlfr6dF3/f3ORP51DEiAJkARIAiSBvEmgvLz8qyzBHmAKuxyXInD48OFP2tvaTwwPDZ/IZDIf5+oeGB8fPz04OFjT1tZ2PE7Qn7jWW6lU6h5N034zb4NHFyYJkARIAiQBkkBYCSQSif/AFKbFpQTw66hMNepq6z5pbW0d6T3VOzA4OHgSnAIXL17sGRsbO5PJZPrGxsY6L1y4cHRoaKipv7+/obOz82hTU9MbeQB9uBQ+/yKl7ylN0/5lWJnT+SQBkgBJgCRAEigYCagJ9XqmsEscoOP+VBW1K0/A7ide4FhDQ8P/XjCDRR0hCZAESAIkAZKATAkI3AFX4lYAmMLyYc73Av+LqVTqZsMwvixTztQWSYAkQBIgCZAEClICiqL8PVNYR5xKgMrUQlIAPtI0baumaf9DQQ4QdYokQBIgCZAESAJRSQBBbqqiLmUKey8ORaCAFIBkOp3+06jkSu2SBEgCJAGSAEmgKCSgquo3mML2xaAEdOc5BqA/lUr9t6IYFOokSYAkQBIgCZAE4pJAIpG4hilsOEJFIF8KwFuapi2ltL64niS6DkmAJEASIAkUnQTAHaAoShlT2CeyFQFVUU/EbAH4TNf13Y2Njf+q6AaCOkwSIAmQBEgCJIF8SCCRSPwVU1i9TCUgZgUgVV9f/618yI6uSRIgCZAESAIkgaKWAFLjGGM3q4r6ugxFICYF4ALS+opa8NR5kgBJgCRAEiAJFIIEDh8+/IeMsZ1MYaG4A1SmRlbBT9f1DzVNK/site93C0Fm1AeSAEmAJEASIAnMGAkkEolvM4X15GoNiFABSDY0NPzJjBE03QhJgCRAEiAJkAQKTQICd8D7QRWBCBSA47quf6fQZET9IQmQBEgCJAGSwIyVQDKZ/CZLsINBlACVqackZQG8ibS+8vLy35ixAqYbIwmQBEgCJAGSQCFLQFGU+UxhI34UgbAKgK7rl1Op1MOapn2tkGVCfSMJkARIAiQBksCskEB5eflvI1uAKWzATREIoQCAt3+Ppmn/blYIlG6SJEASIAmQBEgCxSSBsrKyrzDGvqMq6iMOykCPXxcAovp1XT+iadpPaMVfTE8B9ZUkQBIgCZAEZr0EysvL/0hNqP+fmlCXM4U9VsEq9mqaVqdpWrumaZ2apvVqmoYKgYdTqdRzXwQY/lTTtLu/AP5/gFVh1guQBEASIAmQBEgCJAGSAEmAJEASIAmQBEgCJAGSAEmAJEASIAmQBEgCJAGSAEmAJEASIAmQBEgCJAGSAEmAJEASIAmQBEgCJAGSAEmAJEASIAmQBEgCJAGSAEmAJEASIAmQBEgCJAGSAEmAJDDTJPD/A6ut9BOzKlbbAAAAAElFTkSuQmCC;" vertex="1" parent="1">
          <mxGeometry x="650" y="150" width="107" height="107" as="geometry" />
        </mxCell>
        <mxCell id="afmU8dC9JJLxZKjYQpjQ-17" value="&lt;div&gt;Otros equipos en la red&lt;/div&gt;" style="rounded=1;whiteSpace=wrap;html=1;" vertex="1" parent="1">
          <mxGeometry x="757" y="370" width="140" height="40" as="geometry" />
        </mxCell>
        <mxCell id="afmU8dC9JJLxZKjYQpjQ-19" value="" style="endArrow=none;dashed=1;html=1;rounded=0;" edge="1" parent="1" source="afmU8dC9JJLxZKjYQpjQ-36" target="afmU8dC9JJLxZKjYQpjQ-17">
          <mxGeometry width="50" height="50" relative="1" as="geometry">
            <mxPoint x="676.9565217391303" y="380" as="sourcePoint" />
            <mxPoint x="780" y="340" as="targetPoint" />
          </mxGeometry>
        </mxCell>
        <mxCell id="afmU8dC9JJLxZKjYQpjQ-20" value="Wi-Fi 5 (802.11ac)" style="edgeLabel;html=1;align=center;verticalAlign=middle;resizable=0;points=[];" vertex="1" connectable="0" parent="afmU8dC9JJLxZKjYQpjQ-19">
          <mxGeometry x="-0.1496" y="2" relative="1" as="geometry">
            <mxPoint x="9" y="-4" as="offset" />
          </mxGeometry>
        </mxCell>
        <mxCell id="afmU8dC9JJLxZKjYQpjQ-21" style="edgeStyle=orthogonalEdgeStyle;rounded=0;orthogonalLoop=1;jettySize=auto;html=1;endArrow=none;startFill=0;dashed=1;" edge="1" parent="1" source="afmU8dC9JJLxZKjYQpjQ-36" target="afmU8dC9JJLxZKjYQpjQ-45">
          <mxGeometry relative="1" as="geometry">
            <mxPoint x="610" y="450" as="sourcePoint" />
            <mxPoint x="610" y="580" as="targetPoint" />
          </mxGeometry>
        </mxCell>
        <mxCell id="afmU8dC9JJLxZKjYQpjQ-22" value="Wi-Fi 5 (802.11ac)" style="edgeLabel;html=1;align=center;verticalAlign=middle;resizable=0;points=[];" vertex="1" connectable="0" parent="afmU8dC9JJLxZKjYQpjQ-21">
          <mxGeometry x="0.026" y="1" relative="1" as="geometry">
            <mxPoint x="-1" y="-21" as="offset" />
          </mxGeometry>
        </mxCell>
        <mxCell id="afmU8dC9JJLxZKjYQpjQ-31" value="&lt;b&gt;Red Privada&lt;/b&gt;" style="text;html=1;align=center;verticalAlign=middle;whiteSpace=wrap;rounded=0;" vertex="1" parent="1">
          <mxGeometry x="488.5" y="110" width="430" height="30" as="geometry" />
        </mxCell>
        <mxCell id="afmU8dC9JJLxZKjYQpjQ-36" value="&lt;div&gt;&lt;b&gt;Modem de Empresa VTR&lt;/b&gt;&lt;/div&gt;&lt;div&gt;&lt;span style=&quot;background-color: transparent; color: light-dark(rgb(0, 0, 0), rgb(255, 255, 255));&quot;&gt;Modelo: Arris TG2482A&amp;nbsp;&lt;/span&gt;&lt;/div&gt;&lt;div&gt;&lt;span style=&quot;background-color: transparent; color: light-dark(rgb(0, 0, 0), rgb(255, 255, 255));&quot;&gt;(Router + Switch Integrado)&lt;/span&gt;&lt;/div&gt;&lt;div&gt;ip:&amp;nbsp;190.162.63.232&lt;/div&gt;" style="rounded=1;whiteSpace=wrap;html=1;" vertex="1" parent="1">
          <mxGeometry x="530" y="440" width="160" height="70" as="geometry" />
        </mxCell>
        <mxCell id="afmU8dC9JJLxZKjYQpjQ-37" value="" style="group" vertex="1" connectable="0" parent="1">
          <mxGeometry x="550" y="320" width="155" height="75" as="geometry" />
        </mxCell>
        <mxCell id="afmU8dC9JJLxZKjYQpjQ-34" value="&lt;div&gt;&lt;b&gt;Firewall&lt;/b&gt;&lt;/div&gt;&lt;div&gt;iptables&lt;/div&gt;&lt;div&gt;(Filtrado de trÃ¡fico HTTP/SSH)&lt;/div&gt;" style="rounded=1;whiteSpace=wrap;html=1;align=center;" vertex="1" parent="afmU8dC9JJLxZKjYQpjQ-37">
          <mxGeometry x="-30" width="180" height="50" as="geometry" />
        </mxCell>
        <mxCell id="afmU8dC9JJLxZKjYQpjQ-35" value="" style="shape=image;verticalLabelPosition=bottom;labelBackgroundColor=default;verticalAlign=top;aspect=fixed;imageAspect=0;image=data:image/png,iVBORw0KGgoAAAANSUhEUgAAAgAAAAIACAYAAAD0eNT6AAAABHNCSVQICAgIfAhkiAAAAAlwSFlzAAAN1wAADdcBQiibeAAAABl0RVh0U29mdHdhcmUAd3d3Lmlua3NjYXBlLm9yZ5vuPBoAACAASURBVHic7b13nCRHfff/6QkbLwddVDjFQ5lTQomsAAoPNhhjTJZx/OFsjDFgMCb6wTbY8LPBDxls8EOQEAjpENIpoHSrrAvS6XK+vbvNYXZm6vljd+9md2emu3qqer5V/Xm/XnrB7VRXd3V11ffzqa6qDpRSIIQQQki6yDT7AgghhBCSPBQAhBBCSAqhACCEEEJSCAUAIYQQkkIoAAghhJAUQgFACCGEpBAKAEIIISSFUAAQQgghKYQCgBBCCEkhFACEEEJICqEAIIQQQlIIBQAhhBCSQigACCGEkBRCAUAIIYSkEAoAQgghJIVQABBCCCEphAKAEEIISSEUAIQQQkgKoQAghBBCUggFACGEEJJCKAAIIYSQFEIBQAghhKQQCgBCCCEkhVAAEEIIISmEAoAQQghJIRQAhBBCSAqhACCEEEJSCAUAIYQQkkIoAAghhJAUQgFACCGEpBAKAEIIISSFUAAQQgghKYQCgBBCCEkhFACEEEJICqEAIIQQQlIIBQAhhBCSQigACCGEkBRCAUAIIYSkEAoAQgghJIVQABBCCCEphAKAEEIISSG5Zl+ASd70jltyAXABguBcaJRNKWXxquLlryxflG722hejeYIErkf3CO1DlO4Rlssc6xFSeqfRTK5/Tfp1oHcA9Nua/m21e4+UdqEt1xlitR3dE1its1hltvywalzTAICuB+78ye6whIHt4GebN73jlpOz2eyHMkGwJshkzgbQpt8Py+qI9TtJWdcf5xhpAkDc9cc4h+0yxzhFAoLBqgazf/1IIlhZFyR289cXC3rpYxySSB+pLzAOKKjHAdwNhc8/eNftxelJnBYAb37Xe/8wl8t+GghmH/ujsI47iQdDmgCQGDxdFwC2n4k455AYPF0XAK4H//FjdNPLEgDxHjvb/UVjgzwKeBJQ73zwztufrvy7kwLgTe+4ZWkul/tOJpN59YwfHe+4pQX/8VO4HTylBX+AAiBa/rI6err/KOm1ktsPhOMnsZlcqvuvRkFBfezBO2//5OQfnJwE6Erw9wHng79AGPyj5O9DTeshLfh7QQLuX5cmBX8AaAkQfOLK6258x+QfnBMAb37Xe/+wavAXiA/u33mECRhiCWECxge8cP9kBgGCf7nyuhuXAY4JgDe945aTx9/5V4HO0zjS3L8P0P2nA2nBM5U9GN/912I+gK8AjgmAbDb7oSkT/gQjzf37gLR3/8QOrr/79wF5AoaYJEBww5XX3fgypwRAJgjWVP2BHX0o0iYv+lAH0iaQ0v3LgMHTPJz5b4XLnBEAb3rHLbmJdf6JIy140v1HOSB9gsQHpLl/P3B75j+JiP5boYudEQABcAGAthk/sKMPRZyA8QBx7j8Gtjt6H3B/3b/70P1b4yJ3BMD49r6Jw+BpHmnr/r1AYJldX/fvB7IEDLFEPCF5pjMCAEB+xl/S+PQJc54+CBhpexfQ/ctAmvv3AWm7/sXBoz4y65IAaBhpHbfgB8MadP8WEFhmae7fB1zf9U8iEstg+dtOU+rZXQEgseZsI0zA+IA0958E6axnzfQMnsah+5eHuwJAE2nu3wfEBU8P6kCiE5YWPH2oZ12kuX8fkFjkJN0/kCIBIA1p2/6mswMQJmASIJ31rJmewTMU26sXJO4f4WM9uykAhHXcPj4YYaQxeNpGohNm8DSP/aV/KawDga9ghGz7ezx5letxUwA4jjT37wW2BYkPnaQP2F5nn8bgqQndvz+4JwDoPI0jbdtfH+rA+ihSjA5J2ra/vnaq9ZDm/r2A7j827gkAYUjb9jeFzZ/uPy0IEzA+IG3nwjTWQRLUqge3BACdp3GkuX8foPtPB9KCZyp7sATcv7htfw1Wc85cVm7yn2cuj3+w7QYaq6ItBxPta5KW/9T0v71pj+4JQ3n/igV46ez26AfYLjNgf9xT2shWMuO8Vf/8pT2H8YveIaOnumZeB/5oxcJY12OMJASJvnq2fII4h5jv8x7tG8RHdnbrXsh49nXukTMjAErzrqbReTof/AVif+8C6wcIDAweIM79ewCDf+I4IwDEIdL9O07C7p80CR/cvzTEibwU1kESGBaSXgqAVKpnce7ffeS5/xiksi1Yhu7fPHT/TcFLAWAdquEI8PWCeQSWOY3v/qUhzv0TK1gQkhQAEpE2FO5D+5e2goTu300ErjmXh+X+JZEJntYPEIF3AsD68BndfwTo/s0jsMzS3L8HiNsO2gsFI7AMtqeQRaw37wSA80hz/z4gzf0nAeu56fmnsQro/t3CKwHAz81aIAUTYRLHhw6G7t844ty/Fwi8R5bbv85z5JUAkIewoXAvOgzLgceHQOVFPWsizP17QRqXOku8Jot4IwDo/i1A928euv9UYH3pXwrvqcz5V7JMnu5z5I0AkIesB8MPZLl/Ygdx4jyNzwXdfyrwQgB4MWxrG277axz7tyjGPZUWDBk8IyTnPQ2F7t8KXggA64hTwx50AMLmO9D9y0Cc+08jIoMtCSPOVwudFwB0/xGg+zcO3X9KsBwMU+n+rS/9i9N2LB8gtE91XgBYR5z79wBh7p9YghNz3YPu30niuH/AcQGQzmFby8EwhbdU3ra/dP8ikOb+fYDuXxROCwBd7DsMfx6M6AgbCktjpyoRun/zUOSlBLtCsjK9swIgleqZ7t848tx/DFLZFixD9x8By/0L3b91nBUAuohz/14gzP17gcAyS9v214vgqQndf0pIzv0DKRIA4pA2FO5D+7dcZpH6hR23eSj+IyDN/cdAZINOllyzLyAOJodtVfehxi4GiPewCptfoD8kKbEDkDFfYLS3B+WRgWSuR5yQTKLjlnVN09tOYWRMK32EM2B0ZATlQweiJtdH2D1N5nqk9WG104+MFKtk3/hogZMCwCRqaLDKH1PYGISVwb4gmUzfYjz3UmEUqjiSgMhLQDBIK4MDgqdUzMP04Gp5rAg1MBL7moymFxc44xyTwAipwXoolTMA8jEuoj7OvQLgR38sICz4e4HEYWTXg78HJCdsU4TEMtueN2OozM4JAHFIC54SG4Mm0jpJkXfUg3rWRpr79wGJztk6Ii/KKrX6VKcEAN2/BaQJGB+QOLlImvv3AbGvtRxGouGx3Xaa5P4BxwSAOBg8jcNOMiW4/u7fB+j+U0G9PtUZAcCP/kRAonp2HH3xn4Bzth086f7Dkeb+fUBi/yXM/ZvGGQFgHWkV50NwltZJ+nBPfUCa+/cBaTP/iRVMLP2rxEsBkMpHVZqA8QC6/5Qg7p2tB3Ug0jkLazsC2pqXAkAbBytOPOwkU4LltkP3Hw7dfyow7f4BCgCZ2G7QaRQwlueQ0P07ijj37wEinTPbTjW8EwDWl/45WtGJQvefEqS5fx+g+E8FQoSndwLAeej+zSPO/ceAwTMCstqOH+5fmHOm+zeKVwLAesftcEUnRio7SV0EllnaCgyBt8g+sgQMsYTltqbTp3olAJyHDToCll2bXu50/2Jg8DSPD86Zbace3ggAuv8ICNu7gO5fCNLcvwdwTwsLSCyzsBUYus+dNwLAedIoSLSR5f4TIY31bHvpXxrbmrRtf+n+ReCFABA5bCsNYe7fB0SuXrDeEacweGpC928BiWUW5v7j4IUAsA6Dp3GkdZIiayCFz4U49+8D0tx/Ioi8KKvofy9HuS8AUun+pQ1h+nBPNaH7TwkeuDxxSOu/AIHLF5N5LpwXANZh8DSONPdPLCFt218fngtpgUfkLRV5UVaJ4/4BxwVA+qoZMtWz49gfRYpRB+K2/U3hcyQt2PqAxP5LnPtPDqcFgC6pXPpnG2nb/rLOZCDN/fsABUlKsNunqor8nRUAXjyq3Pa36dD9pwS2NfOIdM7C2o7w58JZAaAL3b8FpLl/YgnbwVMvuR/PRXzXFu0AtjU3Sc79AykSAOKgIzGP5cBD9+8obGvmEemc2XZ0cVIAWB+29bCijUP3nxKkuX8fsNx22H/JQNi2v9VGkZwUAM5DR2Iece4/BgyeEWDbMY8w50z3nxjOCQC6fwFYd/8+ILDM0lZgCLxF2ghzeey/hCDtuaiBcwLAedigIyAr8ND9S4Hu3zw+OGe2nTBqTSJ1SgDQ/UdA2M6FqXT/Essszf37gCMuzykkllnY/gsmnwunBIDzpFGQaCPL/SdCGuvZ9tK/NLY1adv+0v2LoN4SUm8FANWzg/kLROQokvWOWGCZpeGQy3MGiWUW5v5N460A0IbB0zjitv2VWAUpfC7EuX8fkOb+E0HkRVnFxNK/SrwUAF6oZ2nO04d7qgndf0rw3OU1hTS2HQefCy8FgDYMnsYR5/6JHaRt++vBc2FfeNL9u4hp9w9QAMhEonp2HdtL/+LUgbhtf1P4HEkLtj4gsf8S5/5l4J0AEDls6zrStv1lnclAmvv3AHHun1jCbp8a9eNR3gkAcXDb3+ZD958O2NbMI9I5C2s7Dj8XXgkAbZXkcMUlhjT3TywhbQWGD8+F5bbDtuYodutZ59PRXgkAcdCRmEfatr90/zJgWzOPSOfMtmMSbwQA3b8F6P5TgjT37wPS3D+xgrD5TjruH/BIAIiDjsQ80tx/HBg8I8C2Yx5hzpnuXwS5Zl+ACRpx/91jYxEP0jqFuOVF+g5DL3kyDdpGGVr08pySf/UTDJaKOFQqaR2je47a6fWSW3ckSbwisZ2/ZvpiKQOdrjXKPSqVFQ4WChMHaF3O5Enspk9iJY91QS+sbVbkP4gcgLxmBuFwBCAK4oK/D8hqbDLdfwqfC2nB3wekBf84SGzPwtAd/lfKAwGQxor2w/07jsQyC3P/XmA5eKay/xJZZlmGJKl75LwA0EVcMBTZGGwjrLElQQrrmRPbLCCuP6L7l0Ac9w84LgDSWNHi3L8HiAxUjr/7F4mwibmp7L9EljmFhmQCpwWALuLcvw+4PtEmCVL4XIgUVa4jzv0ngMBLso7lpX+V2adKAIjD9Zn/HiAyUElz/z4gzP37gbx75PzM/4RxVgBY3/iH7j8caY2N2MF6W0tfPdvvvzyoA4GXZJ0E3T/gsABwHmnu3wdsTxZKYk073b950hg8rSPvHolz/w7gpAAQ5/59wPqIBxubk0hzqh6g339pn0DzAGIFy/XWqPsHHBUA4hC21IbuP0LyVLr/FEJBEo5EMW996R+fC8BBAUD3bwFp7p9YgsvajGP5HtH9O4ow918L5wSAOIS5fy+wLNro/oVgO1jR/Ycj0TlLc/8eUOsWOSUA+MnfcOStdkhfHciE7t840tw/sYOwPtWU+wccEwDWsR0MGTzDkeb+48Bh23CkuX8fkNYf0f2LoN4tckYA0P2HI8/9e4DEMtte+iexzLaxHDzp/h3F8z7VGQFgHXHu3wdkvQdPQhSmcRmcuDJ7cE+1keb+4yCwPUvDxNK/SigAxCJstUMKG5vIMtP9m0eY+/cCkWWWZUgk3CMvBYC4YCigopNHWGNLgDR29OLcvwdYX/pH9+8kpt0/4KkAcB9h7t8DRAYq6/UmsMy2sb78ku4/FJFlTp8hiYJ3AkCc+/cBabOFBVZBGjt6kaLKceS5/wQQeEnWsb4bbLR0uXo/vvHt75kTBMFlmSC4JMgEFwBBx9ST2H/4Jo/IZjMrtA+OwPfLrVrptWfzaqWGfYfRQB3YOof9FR7JdpL3lnN4pn7Tsl6GeHsXWXbD2vWgmVyIm3/Bgq96XmXw9XLbjL/brzNN4vQvwsqQSJ+qeUy39hmiEVS7kDe945ZLcrncVzJBcB7qjBLYDobSPpkZJyzYLoPrgiSOc/ahQesPeghrC5avf/wclq/JugiTdf2xNpARVoY4x0gTnravXyf7KTbljW9/Ty6bzX4sn8//VQDk65/EfvB0HWnB3wcY/KPk7/5zIS14prIHs1wHcZAW/F3nmAB449vfMyufz63LBJk1zbygSaS5fx/wwf0TCwgTMD4gT8AQG7js/oGK4f1sNvuFqME/jQ+ftNcXrIMI6VPo/n2AwdM8+k5Y3pwTun/zZADgTe+45fW5bPZdtk4iLXjS/Uc5gILERaS9+/cDt9/9EzuIEzAxyD7z4s7ZLfn8nUEQzIlyQBofPnECxgOkTSCl+7eD7fkLDJ7h0P2ngzhtIZPJZK4LgsDKEjuAwdMGrs/8J3ag+7eBLAFDLOH4zP+4ZIIguDSRM0lBmPNMY/AU5/5jwI4+HGnu3wfsvwen+3eRuCNhmSAILtI9KHJ6vWti8IyANPfvBQLLLG3dvw+4vu6fWEKY+0+STCYTnNfsi0gMYQLGB6RtXET3bwdpexf4cE91keb+4+BT8LSF7aV/lfc0EyBYrHtQpPR615TOihYWPFPaqzb7CmZA928eae7fByQW2fVd/xJmv7MfA5K27a/wiraCOAGTAOmsZ830DJ6h2F69QPfvJkm6fwBdkQQA3b950hg8bSPRCTN4msf+0j/WQRgSiyzN/TvAeidHAKS5fy+wLUg8qAMvOgBhexd4cU81Eef+EyCd9Wy33gzc0nAB4EPHbRtp2/6yDiIdYOdCGjgFg2c40ty/FwicgClt218f2tq0MuwAcE/TRwCkbfvrfjXHQJiAIZYQ5v59QNrOhRLrII3tX7j7VwBueeTuOwbrCgA6z3CkuX8fsD6HJMY95ba/5pEWPFPZg9H9p4Jp9/RLj9x9x91AxdcAm4E09+8D2iWmgHESadv+UsBESW83f2IHz3Yu/BWA90/+o6YASOPDZ9t5MniGQ/efDhg8zcNtfyMd4Dwx20IBwIcAvPyRu+8YmvwtZ+yidNPT/RtHmvsndpDm/v3AtpjXSs62JgRxAkafMoD1AH73kbvveGr6j1UFQKMP30va81icq68t7E/mEzYrNI7z1D5ARkB/bngUB8dKRueQLMlncHZbq8YRVfKPU1wh97Shc9iey2P9HinsHyvhmaGC8fyvmdsxeZDeFVmuZ9frePwQu3MwTLTnn/cO1UjYEI8A2Gkj44hlHgTwFKAeVwqPP3L3HQO1EhoZAZh+TdfOn4XzZ7XXOSCByTn6T7hmcttDT9Lyj57+P/cexcExsw3r7LZW/O6KBdOuSTeXWGOY+sfYzF9gR69NjPbf1TeEZ4aOGL+UP1q5UF4djx9kNbkffXDj+f/8mdpxugH3/4Vfrf3pd7UObhJNXwZoBUHBME72PmD/uwW6B8SAw7Dm4cz8CDD4m8+fVGOGAJD3wZk01rQw9+8FAssszf17gLi5QhSRQrA9x8PNevZvBECa+/cB6xNhNKH7t4O4YJjCOhDn/mMgskGTakwRAPLcvweIGwpLYR1ILDPdv3G48Y8NBN4jy32eq24+DsJHAIQFwxQ9GMewPN9B5B1lPbuXv0RsCxK6fxG4LBiOCQC6fwuIc/8e4EMHI+09tUhsu7Y03lNdBN4jun+jCB4BEOb+vUDWageRNeBBByBOnHtwT7WR5v6TQOI1WcZ1wZABEnD/PuD8un8P8EHk0f1HgO7fOCLvkaw+1fVgHodkRgDEqeH0VbQ090/sIM79pxFx/V0CSLwmy/ggGDJ0/xGQ5v49QL/ECTgYDoWbx/p2sBKdrTBE3iP2qRKwPwKQRjVsG2mrHdJYB0nAibnuITLYkjDSsvHPdARPArSFtGDox4Okg/7qJbp/JxHn/j3A+tK/OG3H8gHsU62hJQDsOww6z1CkuX9iB7p/C0gTeWmsA3mk1f0DqRsBkOb+PcDyLfLC/acRun/z0P0Tw0QWAOLcvxcIGwpLY6eaBNK2/U1lPUtz/8QOdoWkb8LT3REAacHQr+ciGuLcfww8a9AioPiPgPXGo3uAZvo4h7BPlUYkAUD3bwNh7t8LBJZZmvv3AHFL/ygihWC5rXlYz26OAEhz/z4gbNtfun9LiFvtkMI6EOf+Y0BD4gWhAkBkxy0NcUNhKawDiWWm+zeOOPfvBQLvEU1eIggYARAWDNP4YAhz/4nAenYvf4lIW+pM928FX41trt6Pcd3/cPchlI+Uox6keRZNbH98Rdr1IwGXFJL/cCEPINC8hsrsZ+Y/PDCI0vbeWkfEOYlmesv5SyyD9Ymz0dMPlTJQqm53Ve0EoSlK216MdT3xjxH23MXqv1wvQ2X6Vs1j/aK5IwACg6frNDv4N5g7iYrrwd8HpAX/RBB5UVbxealgTQHgThEM4oH7dx2RG/9IdP+uY/0e8Z4aTx8Hce6fVGJsBEC742bwNI40908sIc39+0Ciw87mkyeDyIvSxK6bV47do6oCwK0iGEKagPEA+ytIfHD/HiBung3rwHj6OND9i8fICIA49+8D1t87sc5kYDt46iVn8LSQPo33VCR0/9MRsAzQAuIcSfqg+08JbGvmEemc2XZ8ZIYAsN5xs6LDkeb+iSWkuX8fkCZIUlkJ9rFcD2lw/4CPIwB0JOaxvaOdD+7fC4S1nVS2Nd30dP8kPlMEAN2/ACQGTxKOtDkYqaxmy22H/ZcMhLl/l/FrBICOxDy2twlOZDYyg2c4bDvmEeacJbp/D3B1+B+oEAB0/wLweMcpcwgsszT37wPSXF4a6yAJhM3BSFuf6s8IABt0BGQNO4t0/z5ge+kf21oEhLn/WND9h+Gy+wcmBID9JVseIGznwlTWQRKNzXpHzOAZCl2eeSSWWZj7TyPJjAAIC54iG4N1ZLn/REhjPUtz/z4gbdtfie7fA9Ky9K+SDN1/BKQJGA8QuXpBmvv3AWEuj/2XrXPoppf1XKQV+yMADJ7GEbftb/qqIBmkbfubwrYmzv0ngsiLskoa3T/g0yTAqEh7XZDCTjWRGdjitv1NXz3T5VlAWv8FCHT/JCpaAkDc0pkUPhji3D+xgzT37wH2+y+6fxnYfS3ki/sH0jYCIE3A+IDtpX9euH8PELfJFuvAePo40P07TWQBIM79+4C0bX9ZZ5aQNgcjffUszv0TS9D96+DuCIA4R5JC6P7TAduaeUQ6Z7adtBFJAND9W0Ca+yeWkOb+fcBy22Fbk4GwEU/f3D/g6ggAHYl50rjtbwqr2b4gYVsLhe6fCCFUAGi/I2FFh0P3H47E50iYI/GhmvWR5v6JFaS1NU9xbwSAjsQ8dP8pgW3HPMKcs0T37wE+Dv8DIQKA7t8CvKfhSCwzHYl5pG37m8Y6SAJpczBYz8dwawSADToCsoadRbp/H7C99I9tLQLC3H8s6P7D0HX/Lt2imgKAzrP5+bMObJ1DNz0diXEstwW2HSFIc/9kCsZGAKw3ODqSCMhy/4mQxnqW5v59QNq2vxLdvw9YXvrnWtOpKgConh3MXyAi38FKc/8+YLme9auMdWDnHLrp6f6lY2QEQJz79wBx2/6mrwqSQdq2vylsa+LcfyKIvCi70P3PwK1JgFGR5jxdfDIaJJ3b/qavnqW5fy+Q1n8BAt0/McEMASBusk0KHwxx7p/YQZr79wBx2/6mrwoSwrbw9N/9Az6OAFB5msf20j8v3L8HCNtkK4U1kFD/JaztpLGtCWGKABDn/n1A2ra/rDNLSJuDkb561u+/tM+gewCxgiz37zKyRwCEOZJUIlH90/2bh23NPBLbjjT37wEuF/mYAKD7t4A0908sIc39u4/tpX90/0IQNuKZJvcPSB4BoCMxjw/OmcEzAsLaTirbmm56un8Xcb3IGYDu3wp0/+FIfI6EORIfqlkXee6fWEFaW0shMkcA6EjMQ/efEth2zCOs7Uh0/x6QlqV/lWTo/i3AexqOxDLTkZhH2La/aayCRBC3/wIrOgo5G5kWywqjwUQFSHsw4hwirQzal5Osw7AhaMplhdGytHqw7aosT3iS6P5rnKNUzlo53Wi5bDZDiatgDDrbIQXsUlmMBsAcKMwFMD8oO9/W0uj+AUsCoFAuo18Vx//heLDV7yT1kicznJeswCiHPVYxylxWCn3Fos5F6Z1AWHAeP0RYgG7iq7kRBQD5ackbL29vsRT7moykT8LZNtiehwHcq1pwXzmHg1XeGp8UlPDyoIhLgzF0RjlZEq/yfInQltESAOKCYSorWVbwTwKlFBA0+yqSRVzw9wD92Cws+MehgVOUAdylWvBT1YKhOvnsUBl8S7XgR0Ee786M4qXQEOo2sLz0z6emZmUEQC7C3L8HiAxU0ty/DwibmMt5M7ZOMX6OI8jgK+UWPK/qh4jK4DmgAvxrqQ3XBGN4S2a0umZnnyqKyAJAnPv3AYnDhcQ8Prybdxx57j8BYl5Sl8rh66qtruuvx1qVxxwF3BCMxsugEej+tXB3BMD1d/8SETi50Po56P7DEeb+/UDePRopK/wXWnF/OR+eGPWD5w/LeZySKeGcoOJ1QCrrWTaR9gGwvlQwjQ8G3X86YNsxjvWlfymsg50qg4+VOyIH/zAUgO+WWxqTy9ZHkdPt/gGpGwGFIc39+wDdP6kG3b8FZM38fxxZfLLUjgMa4SDK0Pk+ZLBhcg5BKutZPqE1TkcSAWFKldhC2MS2FLY1ce7fce5QeXyp1I6CpfzvUzFHFNinJkLz5wAIW2rjhftPeN1/hAP00idxDg+q2ToUJOFIfJUX4ZAigG+pNjxQzumLKo0y7FF+rN/19dGuKwDoSCJApZoShLl/H7B8j+j+q9OPAF8qt4Yu8TPBQWSglNLbxoN9amI0dwRAmPv3AmnuPwYUnhFwfdc/H3DQ/Xcjg8+V2o7t6GfT/QPjIw39yGAODG+5nCD6TcGdtlBzDoBLhTAF9zqwgMQy2176R/cfDmdsJ043MvhsRfBPBAX06dQF+9REMfckiJst7MODIes9ON2/EKS5fx/woT+qc4rJ4H+4ostPSnj2i9rH266QdE3MVxUArhXCBHT/FpBYZmHu3wssB89U7tZmsBDVgn8cdOthMnl/1POyT00cMyMA4ty/D8hy/0lA4RnpADsXklT+EvHY/dcK/km2tQExKwHo/qfj5kZAoVh+B5tCpSouUMU5B92/eYS5fy8w9ByZcv5AfPcPAL1BBAGQwmqWwIwnw/76a3aq4dD9pwGRospxUrntU/mzOAAAIABJREFUb5VLMhn8G2WPsnANwiaRutp/Nf/pMI4w9+8B1tdfx0Ga+/cBYWLeD/efvMAIC/62l/5NT/5iWJjxoZodZUrNiHP/PiBxrTAxj+2lf6znUKy7Nol1MO2SJDn/SXpVBj0mr0eY+3cZOU9JNaxXdArdv/WhLf2bJG/bXx8qWhOKfwske4+iBP+k3f8kO2y8BhCCq8P/QIUAoPu3AN1/OqD7N47tpX++1YFE51/JdmSr/2B9QjXdfz2CN7/rvQqw3yD069lupxpHtekbSVllsF0HcVqP7fkFcd4jW28Llstg/Z4KHBWyXQZ9J2w/8NjvL+yPkEorgzQhGa//wiCAJwGsn/jvgcfuuXN7tbS58QP8UsM2kBb8iR1cD/4+IC34EztIC/4+MHGLOgFcOfEfABQuedV1fw/g04/dc2epMn0i40U+uH9p0P1HSJ/KDoDB0zR0/+nAB/dfgxYA/wDg4Utedd3ZlT9k6P7DoftPB9Lcvx+4/vqCRML2KxgKmFAi3KKLAayvFAHWRwCkuX8fEOf+YyBybwFhuP/u333o/tOBNPdvkXYA37jkVddlAenLAC1gO3gKqujkEFhm28GT7j8KsgQMsYQw9+8DlicvXqyU+gCgKwCEOU8fHgznZ/7HgB19ONLcvw9Im/kfhzT2kbq4PvM/IT5y8SuvPTlVIwB0/xYQWGZp7t8HbC/9S6OAkVgG20v/KGDCSUjAtAC4OroA8MB5SkOa+0+CdNazZnoGT+PQ/acDce5fNhc7OwKQxuBpG4lOWFrwTGP0lOb+fUBikSvbziuXHY5ygF7+EgttG8vCs0EBc3EGQNn0WVLp/oXtXSDxjnpRz5qIEzAeYNu1SZwFn2Q9v+fMHfjoRRswN19M7JzVcH7XP/lcmFFKvdjsq9AljcHTNhKdMIOneex3eimsA4GvYOIGzzeu2ov3rN6BXEbhlcu76x1g9Xq8QJiAqUJnRin1lMmzpLCaxbl/Ygnb6+zTGDw1ofu3x2tWHMKfnHvcD752xcFEzlsNae7fB6rd04xSan0TruUY3PbXPNZfwcS4p9K2/U3lcyHM/XuBJ+7/ssVH8eGXbkImOH7sBQt7sai1UO2A1CFt219Tz1FGKfWQqbP48Fxol4ECJh0IEzA+wJ0LZXDO/H584tINyGWm3q9MoPCalYcazl/azoVpfCxq3dPMD7/9tfvK5fIvEr4eAHT/NqD7Twfygqf7dZDGbX9PmT2If7zsWbRlS1V/v37l/mkn0MreC6S5f5NkAKBUKr0bQO+UXxg8IxxAQeIi0rb9pYCJkt5u/mlkWcco/vmKZzCnZaxmmjPmDuLChb01fw9Dmvv3AZNtIQMAP/rO13cXS6X3N3RRuukZPEMRt+0v3b8IGDzNkzb3P7+1gH+6/Cksah0NTfvm0/ZoXYdkrLcFxwTMsY2Afvitr365VCp9HMCYD+5f2ra/aexUJSLN/fuB7Vd5WslJCJ35Iv735c9iZedwpPRXLTmM5R0j2p0k3b95TAuYKTsB/uBbX/3IWLF4eVmp57ROondNdP8REOf+Y8COPhxp2/760Nakbfsrzf1/ZM1mnDmnP3L6TKDwplPdHwWQ5v4lMGMr4B99+2tdxWLxpcVS6UNlpe5WQJ3dIGQizf17gcAyS9v2V+AtSgBZAobU542r9uKKpRG2+Z3GjSfuR0eu+kTBatDkhSNh58IgSqJf++13nRwEwaUAZsc5yZT0WqmPnyAIgisymczvaBwSib9YsUD/qqTNqNa3/5oHxHFJuieI0wE03oA+tbtOZxgzWL1xwSyc1dkS63pCjtBMHsd66ia3fE3Wr0cveaxp8BHK/OPufjw5VJhIbid4njZ3EF9++RNoyZRjPBsKX954Cr75/MlGr2l6+tfM7cAr53VEuRy9/IU9p7oHPTcwim939+nlHqEMuSgZ/eg7X98BYIfW2Q3zhre+EwBCBYDug3fhrHbNK7HTATR2CmH5A/atm+3huQau/6zOFqyZHaET08UDIamN82UOT390rITnho9o5qtHa7aMj67ZGDv4A8Dbz9iF23cuw5GR+uK2EQHzq/5hvHvZfJyQDwtNtkeSZAkGpfTG4qPWgbNfA3QGacE/CdI4nGe7yClcl+9+8I/G9w72YGwib1vu/33nvohT5gxpX1sl7bkSfm/1tobyCGO4rPCZnd0o1y2XsODvMF4JAH70JwI+NAbB7t9ZhARDvwi/R/tHi/hZT7TZ+HG5elk3/tcp+yYuqTFR9fqT9+PMebUnEJp4l//M0Cj+76H4ew8kjjCTp1MHXgkA+8gaFvIiOHuAPPfvAdLcvyW+daAHpZjuPwqL2wv4wIUvGMsvAKZ8MKhRapX5awf78MJwtT0K6P5N4o0AoPuPgA+NgW4+Am4OhYvGgiDZOlzAvX3x3X/oGu9A4UNrNh3f6c9QGS5Y2ItXr5j5jQCTAqakFD69sxsj5bKxPK3guMnzRgDYR5r7J1aQtkyNwTbKAVaT2+Lr+44e+/823P9bT9+NNYt6jOcLAH949lbks40F57Ay7yoU8eV9lZMjhbVNgeg+R14IgDSuIeXMfwvpvYDu3zgWBMkzA8PoGqryqd2oZwi5pnPm9+N3XrK98gDdM9T9dWnHCN562i7NPPW5/cggHu0btH6ecaSZPPttzQsBoIv+bZX2YBArSHP/aSQFqx0UgK/ttzfJrTNXwkcu2ohsYPfevO2MXVjYNv6e3ubGP5/dfQRHx2p/sKh6/lrJvSBOHTgvAOj+zSf3wv37gLShcB/qwHqZw9M/2jOIzSPHA5rp4Pm2M3dieedI5QFa+Ue9Se25Ev7gJXaXBQJAX6mMT+/sPjZZ0g7pNHnOCwBdxLl/Ygdu++seKXD/JQV89aA997+4vYDfSHDf/utOOoDVc83vUDclPRQeHxrFN/bZmc8gE3sjKpXpUycAxGHbndP9u4k09+8DAtz/ut4h7C4c31PftPu/5aztaK2cnGe57QQA3n/h88hn7M/W/6/DfXioJ3w+gOu7/iWJ0wLA/tI/un8nofs3D0VewxQAfOfwgLX8V80ZwutOOtBgLvpt58y5A/jdygmHdZPru/9KPr3nMPaOxJ886QbJuH/AcQHgPOLcfwxS0HEnDt1/BKTNdwhP/+BwCfsrNrcx7f5/7yXbkKmc+Jdg2/yt03fh4sVHwxM2yFBZ4aM7ujFSqj7iIM79C8dZASDO/XuBwDIL2/bXs/YfDbr/hlEAbrfo/i9Y2IsrY3zmdyrx204A4MMXbT6+6VDV5GbqeVthDP9S7yuekrAsSBoVkc4KAHFIWxNK9+8mKZgI1zjS3H84m4rA833H99A37f7/8Jytsa7LJItaR/HBCzcby6/eJ3zv7hvCbdO+F0D3r4+TAoDu3wYCy2zbzevl7gcCgqF/hN+jn/cMoVy2cy9fsbwbZ8+f9oEe66+Rqqe/etlhvGHV3irJzZf9Swd6sXFgJDxhsxDm/qvhpAAQhzT3nwQpDAzytv31oA6kzXewUMndKsADR+24/2yg8PsJrMXX4X3nbMVJsxv79HA99z9JSSl8dOchHB0r8qM/Eaj2HDknAPjRnwj40Bjo/s0jIBj6R/g9+uXgGEZG7cxcv+nk/Vg5a9oHhZrk/idpy5bwsYs2JrI08EipjE/sOISytHkqDrh/wEEBYB9pa0IFdsIpDAzy3L8HSHP/FigCuPPI8cl/JofCO3IlvHv1DmP5meTMuQP4vbO3A2h86V8YTw4V8NV9OisQBDwYCVOrDpwSAHT/EUijwEhj8HRwKFw8FgTJpjHg4ED82f/1+rwbTtqPBa3TRhaa7P4rectpySwNBIDvHe7HryJsEhQLj01ermlnFoIaqnhoRDoSaSMSMQ6S1oAsL/0rDo9A6Qx/JhFspYkqiW3NwjXd3zd2bPKf6Ylw1ze86Y9dAgAfWbMR77z3IhwZaYl0jK77r7yln95zGF8MSliZC6IfFO2iNDHf1oqW9o9wRgDY+uiPOnSwgXMIC4RJTCLzrgzROiYdCn29UIMWBYDE+RHWBYaw5y5Kpw3g3pFWzQupPEXtc5w2dxBnzp02siBwEunCtgI+cckGvO/BC1AshwTmBhkuK3xo1xH8W1sBnbVOZXj55cwD9JJHPaBQygDI62YeilOvAHTQb//Cgj+xg2X3r+tgvEBa8BfCM+UMBixd+vUrm+D+Y9bbBQt78cfnvhghdeNtc68K8NlC3tEnJhzT+0d4KwCcR7xztnCKNIokYe7fCwS4fwD4Vel492qy484ECtesPDj1j8JF1ZtO3WPgOwXReLiUwffGsjN/EOf+m4+XAkCc+yeWkPXu3wf3rz+CSfdfDYXxQGSDSxb3YGFbwh/EMVBvf33B8zhrXvUJkabbztfHcnjc0v03h11BEiW99DvkB+KcM92/COj+zSPE/W8vB+hVwcQhZjvu60+c5qQdqeeWbBmfuvS5ut8LiEpYkRWATxdyODhRB3T/1fFOAND9pwVZ7t8H5Ll/d9mo7HStnfkirl7W3WAuzRu1Wdoxgo9fsnHKVwttjZz1qgD/MJpH0UrujdJ89w94KADE4YNzTokabgTtTozBMwLC2o5G+k1lO+7/lcsPozVbscLEwefiksVH8fsTmwTFQafIm8sBvjRaZT5A3fzdu6dx8UoAWHcwXiCwzMJWYHjxWNhe+kcBU5eNlt4/v+7E/Q3mIGPOxtvO2IlXrzikmXc8bi9msbaoJwK0sLT073hye23HKwFgH9suTy853b8M6P5t4G7b6VEBDqjAuPtf1jGK8xf21k3jEh986Wasmq23e59+0xk/4AuFHF6MsA+BD+5fpwzeCAC6/ygILLMw9+8F0tx/ExnBeEBu+Ip1hv+VnQ1vXr3iIKbkLK7t6KXvyJXw6cueQ2eupHkefUYB/P1oHkOmH12H3T/g0E6AzUeY+08Chzp6U1hf+pfCe5rkrn+9KsD9pQAPlzLYXM5gcrFcK4AVgcLF2TKuyZZwgsVN6TaVM1YmbZ0zvz80jVMohRM7h/DhNZvwgUfPiZJcM/upB+xTAb44lsNftcicFmgC3efOixGAFHapySz900Xa8kUfgq20bX+F3lMF4GfFDP5gJI+vjOXwTEXwB8Yd4FYV4PvFLH53JI8vFHIYjloUzTJvLNlRF2fNqxAAHrWdVyzrxttO35XIudYWs3igxvwMKdv+JokXAkAbaY1H3nMhtqO3Cd2/BRJw/1vKAf5yJI//GMshyhtlBeDuUgZ/MprHDsP70xcBbLEgABa0FnBC+2h4wqbRWFv4g7O3Yc2inqjJI2Rf+4B/KeRw2NJrGqPY3rsAyn0BkMIule4/LUhz/8IoAfhKIYu/HM1jS9QOveIeHVAB/q5ys5iQ9FF4cdrIQ7RLCj/H6sod9KQZGANkAoWPX7IRi6Z/3tgCfSrAPxemvv1Oo/sH0jgC4GHjIVWQtu2vD8+FoG1/+1SAvx3O4fZStqGu9agK8LFCzthmMVs0PgKpw2rR7//NPBcLWgr45KXPIZdRUZI3xKOlDH5ic2lgoyTg/oE0CgBpSHTO4pYvehA8daH7r8n2coC/GMnr77ZX4x7tLgfV14nHiDx7NF8pRO24V0++//e87Zy3oA/vOyf8y4H1iHpPv1zIYVdZf7mmY7e0Lk4LAPsTmFLo8nxAmvv3ASHu/+FSBh8YacEhw+9w/7uYgYnFaHstvVuu9REd4wjoI9986h68duJrhza71FEAny3kYWnQpgLLYr6BOnNaADiPROcszv17gO3gmZJ7el8xg8+M5jEC869gelQwdfe+WPdUaY0ARO24T2gvYEFrwXv3X8kHL3weq2YPaR+nGww3l4AfVPt0cM0TaF6QcJwVAOLcP7GEbfWsmb0Hz4X1tmOhrT1ayuDzhbzVu/9YubHusAjUn1AYk7Pm9RnPsyoC3P8k7dkSPnVpMpsEfXMsZCJoQ0hz/1NxVgCIQ5xzpvsXAd1/wzxVyuAfR/PHhuhtTcB8rhzv07ETB2F/OYg8nKzTca+eN5CKep7OybMG8bdrNkVOr/8ufzx9AcAXCxH2xPOiCqYWwkkBQPefFmwHT73kPiDP/ddnczmDT43m0fgX5MPZVg4aWg1g6/3/6nlxVgA0f9SmsfzHefXyQ3hrApsEPVzK4FfGP+Ak2/0DjgoAcfjgnBk8Q+FHf2xQu8zbygH+fuKd//HU9u5pEcCOWCPO4+eI+v5ft+NePdfeEsDSQB6Djy+2ln98jt+jPzpnK166sPYmQUB891/Jlwq5Kc+af8wss3MCwL779wGBZZbmMATeIm2kbftrsK31qfHgP5hwPT2ru7Swgj0WRgCWdoxiTovu+Ee0m1YezqFn7YkY2jAfakyn3MlWSjZQ+MQlG8YnQlrkkArwjVqvAvQbj2by5nRIzgkA+wgLPHT/IqD7t0HtMn++kMPRaQE1ic2XHizqdonHz7EvggDQdapLO+x4UjWWQe/dK1Hqb4EqBRjeOsfKecZP1rj4X9BWwN+8dHON7M09F7cWs9hqeHtoGzSy9K8SpwQA3X8UBJZZmvv3AWnu3yC3F7PoMv4+NhylxuccHInp5PdZCByLWnX3/w+vN1UK0PvLFRg70nasnkdemGcsf1tcvfQwbjp5v9VzlAB8oZCbWkpP3T/gmACwjzD3nwSpDJ66yZOfnOMchkTetnL1Ydiktl5WAH4VeTng1HP0hAiHOM/FItMfAFJA330rUDjQOeXPxSNtGDvcZvZcgHHx/6fnvYDlHcMV2ZtvaxvLGdzXBAEaFVPuH3BIAKSwS5W5ekHa8kUfgq20bX+bdE8LAD5XSGbG/3Qqi/xQjM5/FDB+3QoKi9t0BEB4vfU/tAyju2ZNJJ+aPvooQPPozJXwdxdtQiaI+YxGfLa/UciNL+m07f6bjDMCQBtpgUfic+FD8NSF7t88htraVwo57K4yjJ705kvPlTLoDX0NMPWa+i0tAVzcZm7i22DXYgxvmVvz95Ftc6DqzoGQsbTwgoW9eNsZu6y2tT2qxvchTJPgtr/V8FcAuA7dfzqQ5v6bxK9KGXMdboO7QZYBPKy5K2B/yCl1O+5J0bMo8ghA/fxHts/G4HMLKy9oZg5jGYzsmB31EpvKe1dvx+lzNb+PoFkH3xzLaI7quNLajuOnAJDm/okdLI/C+LDtrzZN2PZ3WAH/XmP5VbPq4BeaTtjWCMCi9sZHAEqDefQ/tDRS2pFN82v8IsP9T5LPlPGxizbN+HSwSQ6pAD+1OQrQZPcP+CoApCHROYtbvuh+sDW5HMlEelfu6K3FHPpMBVBD34LYXM5go8YoQD0vGtf9BwAWRVr7Xid/BfQ/sAwq4gdvxg63YcTmkkBjKJw+dwBvOW13xOTx6uC7xQwMT8MUhX8CgO4/HdD9m6cJ7r9PBbg1iXetMfiRxnXZGAGY01JEPtPYx2qHnlmIwoGOqX8MqbeBrhOmzQWQ5f4rec/q7VhocJ7EdHpUgB9FEk+yxH/U6/FPAEhDonMW5/7dR5r7d4UfFLMYrlE020v/wpI/UspU2d+/+kEDtcoQ03kCiLgCoHb+Y4faMfD0Iq3zA+M7BA49szA8YdM4XubOXAnvO+fFkOTx6wAA/qeUTXxHyqTwSwA04WMKxAQpXIFhGetL/wwI1SMqwB0632JPGAXgu8UIX4kD0AfzIwB6SwCnosYy6Lt/GTB9VUXEehvasAClgTxcGCG9/qQDOH9hr7X8+1XYaJC74t8vAWAbcc6Z7t8G1pf+CeoAmsn3xrKoNXjbbPc/yX3FDJ45Nheg9kHVVgE04v6BxiYA9j+yFKWBltjHq1KAgceWxD5e40wNpw8A/MX5W6rvDWCo7fyklGnoS5HJEr3M/ggAun9Hofs3jTz3P5P9KsAvhL77n86/j+VCO/8BC3MAFoduA1y9Hka2z64+kU+z3kZ3dqKwrzM8Ycz8TbJ6Xj/ecMq+hvOpJTyPqgAPVN0gym3x748AsI0PzpnBMxRx7t8LZpb5u2M51PryrhT3P8mucoDbQr6WN30EoFH3DwCzWvQ9pyoHGHz8BO3jajHw6AkW+wGzI56/f/Y2zK38cqLhtnab9oeimoFemV0oUTjsVGXAFRjmkbbtr4E62FEOcL8TnelxvjuWw7Y6H/sZsDAHoC1bbwVADfe/af7Eu/vpyePVc7GnFYOiJwQeZ27LGN591o7Yx4cJz2fLmWlfCnS//3KrFRrC/jtbveR0/5bQLjLdv3lmlvmHxVzNO53UR3/0TqEwCuDjo/maH/zpU1PTm6C+AJiJKmQx+LT5YD341CKMdbeHnNz2/KVo6X9t1T4siLR3QjxuS/K1leV7qpQPAoCdqgzo/s0jzf0bYBTAI010/40U+ZAK8PHRXNWJi43MAagletpztV+SVGPomYUoF6oEqEaFajlA333LoEJeg0igLVvCW8/Y3fDSv1rcXcpMLAn0o/+SX6OGEef+k0Dow2cVae7fBwyIvEdLGYzUTN1Y21zROYLXrDikl0foKaae4/lyBl8YzU+50lHgmCgw+Vy0ZmoJgJmUBvIYqrmNb+OU+lsw8GiNVQFC3P8kb1y1B3Na7HxTchTAnSV5HwmK4/6BFAoAcUjcMtf6Kww/1LMW0rb9bdI9vd/iEOotZ23H76zejmyN/eFNFXldKYNPjuaPCRkb7h+oNQJQPf3gk4uhSlWuw2A9D2+Zi5Ht8j8W1JEt4rdOj7hFMPSF50/GMiJ9Xhyi7XIhFQNL//rH6qls+4FKf0RC+wy6B9ifGGa7DFrX02Lc/Y+WSugtR3dvNU4iK73+kMoMhhDg8apLqWK4/2mcPncQr1pxCAGAm07ahx9vX95QfkD9en64lMFfjrTgw61jNXcybJTWiHMAikfaMLLN0P79YdsEP7wU+cUjyHaORUpf5QTxrkuTN5+6B99+4UQMjpkPcbtVgF8VFM4NIrZxA3FqRGUBVJncOX6EZv7H/7/bAsAAo6pOI7O937zIjX+EBXPASANKkiIURiuvQVwwjzPcrnuCmQc8osLX08fN/3dfsv3YPPy3n7ELd+xaitEKsWHjkdhRDvBnI3nckCtPnMPse+eZIwA13P9Ti6r/ZKHQ5dEs+h9YhnnX7oSFhQ9ViNcWZuWL+M3T9uCrm04OyT1e8HyglMHpmYivGQz0X0VLg/XuvgKwHRR8GHb2Acv1nMaP/jQj+APjAsDI9UzjgoW9uHTxkWP/XthWwBtX7W0oz6jPUb8K8N+WtjOOMgJQHslidI/GZj31iFjmwv4ODD69SKz7n+Qtp+1GR82JlI2xXtVeyTIF6+alsXvqrgCQBt2/jQPEIW7bX0eEao8KsLGGANBmuvtfvX1Gkt86bRfmT0wES2aVrXnh2T5lEmD19KPb58zc7z8BBp9ahNE9syyfpbG2MLdlDG84pbYQbER49iCDrcqNnSwrmf6YuikA6P7TAevZOM1y/4+rrBX5d8HCXpyzoG/G32e3FPGn52+xcMbkaMuFjwBU3fIXsC8kywr99y9DqT/q9waa09ZuPHm/sbym36LHw96gC3f/gKsCQBp0/6lAnPt3iIdV9QlMjS79u3bFwZpJX7GsG1cv7dbLHzHcvAX3nwkU8plJAVA9fbG3NXyDHouUR7PovXcFVI2JnY1hpu2cNmcQZ80bqJJ7421tfdmtKXTVbpF7AsCxCWFkErvBMJX1bHu+gyH3f0AF2A7zw6X5TBmvWF4/wP/ZeVswO8ae+s0mV2MpYyWjLzbJ/VekLx5pRf+vluodnzCvO7HxUYBqt2gPMtinaoRQR/ov9wSAbTjzP0J6veQikfZ6wWMBs75cPfg36v4vX3IUs/J1grtSWNBawP93zosap2i++weidcw1h/8TZmTrHAxtrLcJkeU+L6QOrjvxYPVPBRvgSVPzWrSJt3phOm4JAEdUFZkO3b9xpLn/Omyy4P4B4NqVtYf/K7l+5QFcFeNVQDOpWMBY9ffC/g6Uhsx99KfR9APrT0DhQIdeXgmxoLWAly05euzfcZf+VWN9tWfbof7LLQFgG3HuPwZ0nuFIc/8+UKPMRQDbqkyWatT9z8kXcdkJR2oknpn+Q2s249Q5M98FTz1EhvsHwpfYF3YK25GvHKBv3QqUh6fXdXPd/ySvN/AaoBrPqxx6k9kQoQJzAsYdAZDGTlXiWLvtpX9prGfLAqOZ7n+nyqJgoYN85fJDFZPkwmnPlvCZS5/DfItfijNJECjUq4ix7raZf2yyUC0Pj08KbMayxDBevqwbHfmiUfcPjNfQ05WvARzrv9wRAJpI++gP3b8dbNezvivUSu4HdQq9pco++SY++fvaGB/9OaF9FJ+4ZENV4WDb/euSqRdDywGKR6sIANtEKPPYwXYMdJ0weYDuCbQvKSqt2TJes9zsh6Im2dzAfgC254SFZe+tAHAfgZGE7t880ty/YV6wsFnKnHwR5y3srZ2gzj06Z34f3n/B88avKQz9eqg9ulHsaZ354R9B4n9ow/xkPhqkWYaoc0Z0s98yOQ/Awf7LSwEgzf0ngoMPX6NIc/9eYGjp32RWz0+bJGXC/a+e39/QS4VrVx7EH53z4rE8pLl/AAjqFHDssEz3X0n/A8tQ7GnVOYHe9cTgwoU9aNF4bRSVPar2J67r0Wz3D3gqAKTRjB2ewk9hW/SkL3jqV7Pf7n9POcCwhS7mJfP6a/8Y8R69+dQ9+KsLN1tbHlZJnDkY9T44W5wuAAQKVVXMoO+elVBjlkJMjD61JVvGOfPrPDsxs1cAdlla6WIb7wQA3b+jCJuZT/cfJX39A/ZP615MCZKzI3biYdxw4gF89KLqcwKaTbaOMClWmwCoQ0J9ZLG3BX0PLNM71jJrFh8NTxSDbdNfyYRgu3+Jmr13AkAadP/pQJr7l8CBRruXGmWuOQIQ4x69Ylk3PnPZc2iL+NU461+bnEi+avZQ9Z9LAcYqh9aFPxejO+Zg6LkFIalst4Xj6S9aVGfuSNzsAbzWLR6XAAAgAElEQVQY9l0AoXglACS+yyMREOb+faBZ2/5WUrlNqin3v7xjBHNaIn6HPZTxa7p48VF8/vKnsaQjzptcO6yuIXKKR9saW2bXhBHSgfVLxGwSdP6CXuPzAJRS2FJrS+Aa6aXglQCwjvWlfzEejDS+8rCM9aV/KREwexvpXmq5/1rD/w3eo5fM78c3XvE4Xn9S7Q1jknL/AHBWLQFwRGdinRAU0HfvCpRHqr0nT879A0BLtoxzF5h5hVTJfmRQfcwmeXRukTcCgO5fCsLezaewniW4/xJmzgEwQd0JgA3SkS/iAxc+j09d9hwWNHHDoADAS+ZX37WwPFix/W+Ttv2NQ3k4h4HHlhjLrxHWLKo9D0D/Fh0/YHuEJa/S4o43AsA6dP+pQJz7d5TDKoPixEI7E0v/JqkqAGLd09rHXLnkML7xyq4pXxpM0v3/2qo9WNJe/XXEzK12BRFS5JEX56KwZ1b0A2bkb6ZPjTIPIA7bLOx5oYvuLRL8NEWnEVX1dORbYHnNZiLR1vY12RUY8eo5+YC7tZw1Jq2tC0lLgme3BW+RzSicMbf+fv6mmNs6ho9fvAHrD83Hd7aciPUH5yZy3uUdw/iDs7fV/L00GHPTGSEjZ/0PLcWCN2xFkGveyovzJuYBFMrTVqk02B89gSxOqBdPGrinz9f4omajeCEAdKmsuK+Vwt+p6Zs8+40tiS1q9ffNlhF8jqW3fP21kq9VLeNj4A3mP3GU5jVZvqfWnXDt9Cd2DqMlOy1wWL6nFy8+iosXH8Gmnln49gsn4f59C1Gusr3x1NzjdfQBgA++dDPa66xIKA9X+QKgBCIWuTSQx8ATizD7kgOa+ZsTJC3ZMs6cO4hnj5rdrXCjymFjqXZIlbDxz9T0yv1XANLeqfiC68HfD2QF/2azwNjsf31WzxvAP1yyAd9+9XrccPJ+tE4XIo2ggM58ER9aswkXhgxPl4dyYtx8XIY3LMRYd7vls9Qv84mzpk7Zsy6EhdXBJKkbAdB3MHbzj4PvHb0JmuX+faaZ7h8A5rVNm5iXyCuhqelPnDWMD1z4PP78/C145sgcrD84H12H5mFz7yyUVRDL/b9syRH89QXPY3H7aP0rKQUoF7Izrsk4tucKKYX+B5diwU3bgUyEgy00thWdw8bzNEsyI3mpEwDiEBhJpLl/H7A//Oe/gJnXxBGA6bRkyrhoUQ8uWtQDAOgv5PB49zx0dc/DnoE2HCm04OhIHkcLeZSmvTIIMP4646x5A7hiSTeuifiRmvJg3nn3P0nxaBsGn12AzvMPW8g9vMwnVggA2+5fMk4LANvDMD64fx9w5d2/zzTb/QPA/NZGBYA9ETa7pYhXLO/GK5ZN/eSsAtBfGBcCR0fG39+fOXcQHfmi9jlKwwnMMre+Uuj4AUNPLUbbKf3Izkl+yeXKzuQ2fZL47n8SpwWA8yQiGDTT0/0bR5r7d5X5LRWBQmKZq1xTAGBOyxjmtIzh5FkzDtDKvjzoV3etSgH6f7UU867fWSeRnbazYtZwrOx9a2vOTgKU5v6TwLeHLwriBIwHuDTzv5LGRgDsirAkUEXN7lrcPiEzDyjs78TwC8kssaxkQWsBnSYnctZAmvufjrMCQBoSnTCDp3nsOwbWQS3mTs4BkFjmBPZrUJpfnHOFoScWQ1X7voHle7qsU8rmvckxvb9wUgDQ/TuK4+v+fUCc+9dgfuzteeNdk7Vv2cdF5yNA4tx/bUpDeYw0YRTgRM2VAPaX/iU/F0nYE+4mdP/pQJr79wKNezS/pZiQ+x8/R+8vV6LYG+HjO0nVs9MjAPXLPPT0oqkCJ4ERlZUpGwGo1h+5JAD6gSRUGLGCMPfvA87v+qdBPlOumDmvQ7xrGt05C4UDHRh4bHGs440yUQ9Vh8nrpNfNP3p6veRRKA3mMfziHPMZ12HlrOgjANLcvyEGnREASqnHEjmPbvoE3L/1jp7BM0J6u/nT/ddnfstYcu5fAYNPjgf+wt5ZGN05Y/p+RfIE61nnFYAoopV56OlF40kTuqcntDfvi4+NYqg/esIZAfCT7317R1mpQ+Epj0P3bwdp2/5SwERJbzd/28xreA+A6IxsnYtiz/Gh/4H1S5o3Aa+iHiJdg8DXkVEp9bdgZHsCowATZe6s882Fqcm9dP8AsN4ZAQAAUOopq9nrpqf7d5K0Bc8ksLX0b5LWbLTOetpJYqUf2jB/yl9LA3kMP7uwSvKEO3oJIwAGlv7VY/h5XQEQ/57OysV5pdR8DPZHbgmAslK/bPY1pB1p7t8PLK9q8UDAtGSS+XxssacVxaNtM/4++OxClAYS/hLftHpQpZDu2mH3P8nYvlnjHzyyRUWZOyPMKfF4zlkBwANOCQBVVv9bKfVspLSWl/754P59QNq2vw51AMaw7f6VAlq1BUA8dz66rboDVaUAA10VEwKbUM9N3wfAsvuHGp9/Mbw1mcmAHRFfAdilaf3Rx564/+4dTgmA27//7bFSufwOAHK+CuIw0rb9TWHshDT3L5V8Aru2AcBIDQEAAKM75mDk+XkxczbQduoJAF8qGsDolqj3uLF7OitkBMBj9/8YgM8Abi0DBADc/r1vP1Eulz9ZL4049x+DtHb0Okhz/z4gZdvf6cnHwoa/px6ldY7J9IUD7aHD/H2PLkFhv+1v2Vcn8jLASJnZXvoX/7ko9rRi7MjM1zCmKTZ9TkVT3P8wgHc+cf/dJcBBAQAAt/33tz5aKpffC6Cn2dcSCYGRRJr79wFp2/76VAX9RfsfwhndHmE3unKAvntXoNTfopGzobZTK2D5VNETjGwJq4vG7+lAnWfKITevw2MALnri/rs3Tv7BSQEAAD/572/9Z7FUOlcpdVfl39Po/n1A2s6FKawCce6/ksGxqJ/CjS/Cxg5Ec/blQhY9v1yJ0lCykwKNjQBIc/9VGNtdZ+8FQwyNmROV0rb9nXY9BQB/C+DyyuAPOP454Nu/9+09AK676TffdhWC4PIgCC4GcGEAnAYggY9nRyARwaCZnu7fONLcvw9UFnnQYGdd9VzFTLRtfyfqrdTXgp6fn4R51+xCdna9DWXMtR0lYc6aDaqUudjXgvJwDpn2au/pzdzTwVL1EOFBWxsE8ASA9RP/PfDE/XfvqJbQaQEwyU++9+0HADzQ7OsghACvvOEN5yEInp7yxwY71aEanfVUGnD/h1u1Dy8N5nH05ydh3mt2I7dgRPPc+pSrzU8Qt+2vueBZ2N+BtlV9xvKbjilROU0wPNO1bu35RjJOAGdfARBCZKKA3Q3nMS2ODFgeASh2Rxn+nxncyiM5HL3rJIzsmB0pff3sa6cvj+QSf+WQCHXKXNjfUe0AY/kPFq0MEu+zkaktKAAIIUZZ99MfH4WC3rdWQyirAMN1RwEac57F7vizztVYBn33rUDfA8tRLth58zh2uMrrCXHu3yzFfZ1W868mKg0s/dsT/4qShwKAEGKD407I0ATMvYMml4ZNPcnY4bARgPAyjGybgyO3rcLo3s5I6SOjgKFnqmxFLA6zgmRyHoCt/PcYfZ6OsddGpragACCE2MD4UOj2/mpDwkCjwbY8kjW2zW95OIfeu0/E0Z+dPP4VwaiXVidYDW1cgLGD08ruufufpHCgVp03zou9U0cYDG3845QA8GISICFEHOMdocHll9v7OwFofRC01lmm/Ks0GBb89YPtWHc7eu9dieycAjrOOYLWk/qRadWfxj+ydQ4Gn1gcnrDp2BEkpZ7J/RbMK5It/VaWGjr1CoACgBBiA+MjANtqjgA0RnnY3orhUl8L+h9aiv6HlyK/cBgtS4eQXzGA/OIRBJmJoFYlGJYG8xh4dAlGd1UJUilalht7ZCakzIVyBrsHjr/2MbjtLwUAIST17DH9LYjqrwAa339BjdTrBg0FTwWMdbdjrLsdeHYhgoxCpq2ITFsJQVsRmdYSMq0llAbyKB5ube6M/wS3/Q2j2Nein38EdvZ3oKSsbAVMAUAISTuq4aWA09kz1I6CyqAlMPthoKkTzRokYnBT5QCloTxKgzkAUTYg0ss/dnphlAd0tlyeIEKZt/Qff/9v0P0XARzUyqzJcBIgIcQ4SuEpzfShlFWAHVNGAczsvliuOQLgdvCMhSD3DwDloZyVzyC/0GNlieGGrnVrndqvkQKAEGIBtQFAv+lcHzs033SWKI8Y6gatz8xPoyBRKPVpjAJEvEePHFowkdzoltyPaWUmAAoAQohx1v3sVqXG9yMPRacPfvTgpAAw9+2F2iMAjiNt29+YAkbvy4vhHB5twfM91XZubBgKAEIIAQAo8x3iM0fmhOwIqE/1OQDC3HxK3T8AlIYiCrSI9+jhAwugYOWjP4+YztA2FACEEFs8ajrDYjmDx7vDvhU/nfodfXlUxodDjSLN/TeAMry98kMHFsS7jvr3dBjAs7EybiIUAIQQW4Q6ojgm7OGYHXhNytMnmdHNG6eBe6TGIkwCjJh/WQV4+OACG+7/ya51a6t9u1g0FACEECus+9mPd8DwsiilFB45aHYioJohAIQhbtvfZAWMyRGADT2z0VvQ32MhgmAwPtqVBBQAhBBrKIX1dX6Lxf6hNmzuibqNq7nJgtWT0/2H0uA9ChVoGvn/Yre1bZUpAAghZBr3m8qo0oXdtmOZqWwR5M1uLGQUce4/eYKcmfoZK2fw013LTC/9m8TYc54kFACEEJv8sNofGzXCv9hzAoaLYUPD0U6SyU/u3UI3H07yIyRBSx0BoJH/PXsXo2fUyhbL67vWrd1lI2PbUAAQQqyx7mc/fl4BzzWaz3QXNlzMYu0eM8O5dQOMSaQtFXREv5gaofnRNmvu/0exLkgAFACEELuoqR2kKeN8247ldU8alSBf0ko/nr0j0dMozREwGQMCYNdAB7q6ze8iOcEPbGVsGwoAQohtrHSQz/fMwvO9jX/TPduewOotae7fITJtNepHo8w/2r4MZTvuf0PXurWbtTIWBAUAIcQq63724ycVsBWIF6fqdcQ/2FptFEDvJNl5o5pX5AHStv2tkz43v7H6GSpm8ZOd5iaNTsPZ4X+AAoAQkgQKP7aR7Z27l2DnQHtDeWTnagYYaW7eY/cf5MrIzi7M/EGjzP+1ZSWOan7vQWOugLPD/wAFACEkGX5g2v0D4zu7fWXTqsojdE+A3LwqAcZnpLn/OmTnjgIN7NPUW8jjW1tOMnY909jetW5tpA9eSYUCgBCSAOohQFlZKrVu7yJsPBr/627ZzjEE2YgTzejmzVNv+H9BldEZjXv0tc0nYUBzJ0EN9/8/WhkLhAKAEGKdic8D//86x+gs2fryxlVoZF1b/oSh2Mc2FWnb/hoWMPklw7GP3T/chv/ZutLg1UyhBOBLtjJPCgoAQkgyKPwHxr+aZpyu7nl47JDmMq+KYNW6IoIAoPs3T0iZW1cMaKWv5CsbT8Foydp3Hn7StW7tdluZJwUFACEkEe6749YjCuo7UdLG2bDli8+dimLMD/vklw/GOq6pSHP/hsnOH0WmI94SzU29s3H7zqXax2k8d5/XzlwgFACEkORQ+GdYiiwv9nbiWy9EnPA1raPPzR1FtmMscnrd/FOB4XsU1/2PlTP4WNdqlOxt8Phk17q191rLPUEoAAghiXHfHbduANTd9dI08q32bz5/El7o7Yx1bMvKJo4CiNv2t/kCpuXEgfBEVfg/m0/GlhgbRGk8d1/QzlwoFACEkERRyuzwaWXHXSwH+NSTq+u/CqjR0bef0aOVXjd/rzF8jzJzCmhZWjEvI2L+m3pn4+ubT9a7Fj0OAviuzRMkCQUAISRpfgqoF6r90Ij7n+SFHo1XARXkFowgv9DKHMX6iHP/zafjrBpirA7Hhv5VYOujPwDw5a51a73ZOpICgBCSKPfdcatSCp8zkVetjrvmq4CQjr5teuBJo5tv4ra/ABBkFNpOr6iHiPnHHfrXYBDAv9k8QdJQABBCmsF/AmqDrcyL5QAfXn8O+gt6W8C2ndKHTEsp/omlLRV0UL+0nNyPTJteHTx0cAG+NjH0b9H9/2PXurUHtDIXDgUAISRx7rvj1pJSeH/l30x33HsG2vCR9S9BWQWTB4TmGWQVOi/ojpzeP5rv/metOaSV5a6BDvzto+ccr2c77AXwjzZP0AwoAAghTeG+O279adiKgEZZf2g+/vXZ07SOaT+zB7k4XwiU5v4dpP3cw8jOqfg2Q0iZB8dy+POHz0X/WG4iuTX3/+GudWsd3S6yNhQAhJCmoRT+CkDZYseN/7t1OW7fobEpTEZh1qUejPRK2/Y3bOZ/5xg6LzgcObuyCvDh9S/B9v54yz41eArA122fpBlQABBCmsZ9d9z6hIL6lu3zfO7p0/D04bmR07csGUTbKf3RT0D33zCzLjmIIFexe09Imb+0YRXu37+oIrk1Efn+rnVr7W0r1EQoAAghTUUp9UEAkYdXtTt6KIyVM/ibx87B1v6OyMd1XjQtILmENPcfQn7ZINpW9UVO/4Nty/GN562u95/k513r1t6VxImaAQUAIaSp3H/HbXsB9U+2z9NbyOGPH7wQ20JFwHhwy3aOofO8CEPSdPPh1CtzRmH2y6a9cqmT/gfbluMzT541LbkV918E8JdaGTsGBQAhpOko4OMAng1N12Dw7Cnk8McPXoDtEUcC2s85guzsQnhCm0jb9tewgGk/+0jkSZeTwT8hCfWprnVrn0vmVM2BAoAQ0nTuv+O2goJ6GwCj0VZVCRVHC3n88YMXYMdANREwNX2QUZh1SZ0JgXT/4dQpc9BRxKwLuyOlrxX8TeweWYUuAH9vI2NJUAAQQkRw/x23PQWoj9b63WRHf6SQx/seuAA7B9pD07auHETnudFnpxtFmvs3SJArY96rdiPIh8+zMOn8IzxHIwDe3rVubbxvETsEBQAhRAwK+AyAB83kVb+jP1LI4w8eeCmeOrY6oHb6zjWH0H5677QT0M3HTp9RmPPKPcifMFw3vQLwHxtPwadrBH9L7v+DXevWbrSRsTQoAAghYrj/jtvKCuodAOJ9C1aT3kIOf/LQ+fjJjmWhaWdfvg+tKxu4LHHb/jZPwMy+cj9aQz73O1rK4IOPnoP/3LTK2HkjCIZ7AfyLsRMKJ7CkoAghJDZXv+7m3wkQfGXy33GW/mkegN84dTfed+5WZILax6pSgJ61J2LsQPirg5kHOy4ADF1/50WH0Hl+98wfKtIfGmnFnz90Hjb1zA45hdHZ/30Azutat3anVqYOQwFACBHJy1/3v24FcDOQjAAAgMtOOIq/v3gDOvO1X/+qQhZH7zgRxZ5WjfylBf8YBxkoQ/vZRzD7shqTKifSb+yZjb946DwcGql/fy0s/XtX17q139DK1HH4CoAQIpKJVwGbkgr+APDIwfl4730vrf4p4QmClhLmXbML2c4xvfOIIvng37qqLzT4/2THMrz3vjWhwd8CX0xb8Ac4AkAIEczVr7v5dCg8DGBh1GMaEQCTZDMK7zlrO95+xq6ZrwQm+sxiXwt67jgZ5dFsSP50//llg5h37S4Emer5HB7J45OPn4X7Krb2rZ+9Ufd/F4DXd61b28B3oN2EAoAQIpqrr7/5lQDuBNASltZE8K/k7Pl9+PCaTThxVsVs9Yo+s9Tfgt57l6N4tK3OOaQJgGSDf9sZPZh9+X4E2er53LNnMT755JnoGc1rnMKYANgA4PKudWuj70PsERQAhBDxXH39ze8F8OWwdKYFAAC0ZMv4w7O34o2n7kFQpb9UpQADjy7B8AvzquSfwEZBQgVAkCtj9uX70TZ9+eQE/WM5/ONTZ+COnUs0szcW/A8BuKxr3dptWhl6BAUAIcQJrr7+5n8C8Ge1ftcO/uMHRWbNoh78ybkv4LQ5g1V/H9k2B/0PL4Uaq5halVL3n503irmv2lN1i18F4Be7TsC/PHs6Do20xDiFEQEwCuC1XevWPqB3dr+gACCEOMHV19+cAXAbgBuq/W7D/U9JrhQygcLrTjqA967ejsVtM4NbsbcVfeuWj68QSKn7bzu9B7MvP1D1S4pPdM/DF549Dc8dnR0ze2Pu/51d69Z+U+/s/kEBQAhxhquvv3k2gF8CuLjy77bdPzA1mLRmS/it03bjt8/YhY7c1LljqhRg4JGlGH5hju4JNNPrJbcd/IOswqyX7UP7GT0zfts50IF/ffZUrNs3dZJfkwTAR7rWrf243pn9hAKAEOIUV19/81yMTwq8bPJvSbj/aixoLeCW1Ttww0n7kc9UOl6F4S1zMfDokqmvBOqfRPOi9JLbFAC5uaOY88rdyM2fOipyeKQFX918Mn64bTlKKoib/UR6I8H/77rWrfX+Iz9RoQAghDjHxEjAzwFcATRPAEyyoLWAX1+1F7+2ai/mtYwdO0F5NIvh5xZgaNP8+kLA0eCfnV1A54XdaDu1F6hYLrm5Zzb+68WVWLt7McbK1cvdBAHwoa51az+hd1a/oQAghDjJ1dffPAvAHQrqKq0DLQaefLaMa1fsx1tO24NTKyYLlkezGN6wAEMbawgBxwRAbu4oOi44jLZVvUAwnn9ZBXhg30J898UT8Xj33LrH2w7+VY75m651az+tnYnnUAAQQpzl6utv7lRQPwXwisgHJeQ8L1l8FL9+6l5cvuQIWiZeD1QVAtKCP1DzmmYGfuDIaAvu2rUY33txJfYM1dkPITz7Oukbcv9/3bVu7Wf1zpgOKAAIIU5z1XU3tSPA7QBeHZo4eeeJjnwRL196GK9ZcQiXnnAU+Ux5XAhsnI+hjQugRoMaOdU6gfYVaSafmT43bxQdF3aj7eQ+IACOjuZxz97F+MWeE/B49xyUVfQyJOz+/7Jr3drPaWeQEigACCHOc9V1N7UhwPcB3FQ3YfOWnQEAZuWLeMWybrx25SFctOgossUAI9tnobBnFgr7OqEKIRMGE3T/2dkFtKwcQOvKQbSsGEDPaB737FuEX+xZgscPzT0W9HXnXyTk/ksA/qRr3dov6p0tXVAAEEK84KrrbgoAfAIB/qZqgia4/3q0ZUs4e34fzl/YhwsW9ODcBf3IH25BYU8nCntnoXi4ygdxLAqAIKuQWzKA1hWDaF05gO58Bk8enoMnu+fhqcNzsbWvc0ZutoP/+DHaAuAogLd0rVt7l/7Z0gUFACHEK6667qa3IMBXAbRP+aHJ7n9G+mkXlAkUzpwziPMX9uGcBb04OVvACb0ZZA+0o7C3A+WRkI8O1ThLPbKzC8ivHMDwCQXsbQe2DrXh6SNz8WT3XOyP8D5foPvfCODmrnVrt+idKZ1QABBCvOOq625agwA/BnAigJgj4ckKgFrMyZewsnMIp7cOYVV+FCuyY5hbLqO1EKB1DMgXMsgVMsiMZoHhLNRYBkFbCWgtotRaQrFVoZAvYySvMJIDjgRZ7Cy1YutoG7aMtmHPYDsKpYx2dBbo/n+qlHprWj/sEwcKAEKIl1x13U1LEOBHAC6X7v7D89dKPnGM3Z3/hLn/zyilPti1bu3M/YdJTSgACCHectV1N+UV1L8HCN6jc5zrAkBa8I9xiqhlGAbwO+vvveu72hdEKAAIIf5z5XU3/laA4F8BLAxLKy34j59DN70sAWDp+h8D8M719961US93MknETaoJIcRdHrzz9v9SSp2joG5r9rXo4nrwt8AogA8CuJzBvzE4AkAISRVXXnfj2wMEnwcwf/pvdP8RkjfX/T+Ocdf/rF6upBocASCEpIoH77z9WwrqXAX1s2ZfSxjSgn8TGQPwdwAuY/A3B0cACCGp5crrbnxPgOBzAObZdv9A091zwydo0vU/CeDd6++960m93EgYHAEghKSWB++8/atKqdMV1BcAFGyey/Xg3wT2ALgFwEUM/nbgCAAhhAC44tobTw+AzwD49bC0dP/Gs6+8/gEAnwXwufX33jWklwvRgQKAEEIquOLaG68MgM8BuKxWGufX/cc4SQJlKAL4PwD+bv29dx3QO5rEgQKAEEKqcMW1N/5mAHwSwKnTf3NeAMi7/tsBvJ/L+pKFAoAQQmpwxbU35gH8dgD8MYCXAh4E/xgnsVSGIoAfAPjnx+658xGtExAjUAAQQkgErrj2xpcHwJ8qpW4GEPnTfOIEQPOD/2EAXwHwb4/dc+cercyJUSgACCFEgyuuueFkjI8IvAfAvHpp+dGfKWwE8HkA33zsnjuHtTIlVqAAIISQGFxxzQ2dAN6N8aVqF1ZLQ/ePAoCfA/jSY/fceadWZsQ6FACEENIgV1xzw+kA3gLgNwCcD6Ta/RcArAXwfQC3PnbPnb1amZDEoAAghBCDXHHNDWcCeIuCehOA86Ie57j7LwD4hVL4PoAfM+i7AQUAIYRY4vLXvn41gN9AgFcBuBRAZ620DgqAPQAeAPBzKPz40Xvu7NG7INJsKAAIISQBLn/t63MA1gC4CgGuAnAlgBMAJ4K/ArAB4wH/ASg88Og9d27XuwgiDQoAQghpEpe/9vVnALhaAZcDWI3xTYeWAQjqHWdZABQU1HYALwJ4GuMB/8FH77nzqN5JiXQoAAghRBAve+3r2gGcBgRnjP8vTp/431MBLFRKdQLIRc5wZh8/AmAQ40P4WwFswXiwf2Hif3c+8suflxsrBXEBCgBCCHGMy17zulYAswHMwvi8glkV/24BMASgH8AAlBrE+Ad2+gEMPPLLn5eactFEHBQAhBBCSArJNPsCCCGEEJI8FACEEEJICqEAIIQQQlIIBQAhhBCSQigACCGEkBRCAUAIIYSkEAoAQgghJIVQABBCCCEphAKAEEIISSEUAIQQQkgKoQAghBBCUggFACGEEJJCKAAIIYSQFEIBQAghhKQQCgBCCCEkhVAAEEIIISmEAoAQQghJIRQAhBBCSAqhACCEEEJSCAUAIYQQkkIoAAghhJAUQgFACCGEpBAKAEIIISSFUAAQQgghKYQCgBBCCEkhFACEEEJICqEAIIQQQlIIBQAhhBCSQigACCGEkBRCAUAIIWNtgqoAAABaSURBVISkEAoAQgghJIVQABBCCCEphAKAEEIISSEUAIQQQkgKoQAghBBCUggFACGEEJJCKAAIIYSQFEIBQAghhKQQCgBCCCEkhVAAEEIIISmEAoAQQghJIf8P1ZW+anPyAvMAAAAASUVORK5CYII=;" vertex="1" parent="afmU8dC9JJLxZKjYQpjQ-37">
          <mxGeometry x="100" y="-28" width="70" height="70" as="geometry" />
        </mxCell>
        <mxCell id="afmU8dC9JJLxZKjYQpjQ-40" value="" style="shape=image;verticalLabelPosition=bottom;labelBackgroundColor=default;verticalAlign=top;aspect=fixed;imageAspect=0;image=data:image/png,iVBORw0KGgoAAAANSUhEUgAAB4AAAAMrCAYAAACoNo/4AAAABGdBTUEAALGPC/xhBQAAACBjSFJNAAB6JgAAgIQAAPoAAACA6AAAdTAAAOpgAAA6mAAAF3CculE8AAAABmJLR0QA/wD/AP+gvaeTAAAACXBIWXMAAAsSAAALEgHS3X78AAAAB3RJTUUH5wMfBhwsWG3xjwAAgABJREFUeNrs3XeYJFXZhvF7c2YTack55ywiQSQHBREUEBABRQyYMKFiQsGAogRJKioqQQkCAoJ+SEaQnHNaMpvz7nx/vNVsbdE9sWdOdff9u666Zqa6Z3h32anwPnXO6YckSZIkJXLcjc915e0DgaHZNhwYk22js20cMDb7fCwwChiZfRyUfRyY+36AAdn+/p34788GpmefLwCmZB9nALOAmdnrk4GpwCTgzWybnNsmZd9b+Z5ZQFtn/gJO3naFXv3/IUmSJEmSGl+/1AVIkiRJam6dDHn7szCYHQuMBxYHlgKWAZbItnHZa6OBYdn3DMk+9ifuccp0n9OWbXOJoHd29nE68BbwRra9BrwCTAReze2fnPu+dhkOS5IkSZIkKFdjRJIkSVID60TQ248Iahcjgt0lgRWBlYDlgGWBCUS4OwoYQYzYbaX7lgXAHGIE8VTgdeClbHsOeAZ4gQiJXyNGH8/p6IcaDkuSJEmS1DpaqZEiSZIkqU46EfYOJUbrTiAC3tWAVbPPl2XhKN7BdG76ZYX5ROj7FhEAPwc8DTwBPAk8T4wknkqMOq7JUFiSJEmSpOZkACxJkiSpXR2Evf2I0bqV0bxrZduaxKjepYl1eAel/nM0uTZimug3iWmknwYeybbHgBeJKaXbnUraUFiSJEmSpMZnACxJkiTpbZ0Y2TuMmL55FWBdYL3s4/LEmr3DU/8ZtIh5wDQWhsL3AQ8CDxOjhd8gRhVXZSAsSZIkSVLjMQCWJEmSVCv47QeMIUb2rgtsmG2rESHwiNR1q1vmA5OJtYQfBv5HBMOPEkHxzGrfZBgsSZIkSVJjMACWJEmSWlCNwLc/sW7vKsDGwObA+tnXY4EBqetWr5kJvEpMGX0PcCfwABEST6/2DQbCkiRJkiSVkwGwJEmS1ALamdp5DLAqsCmwJbARsDIR+Kp1zQVeIUYF3wXcRowSfhGYVe0bDIQlSZIkSSoHA2BJkiSpCbUT+A4FViBG+G4NbAGsToz89f5AtcwBXiJGBd8G3EqsJfwasKD4ZsNgSZIkSZLSscEjSZIkNYl2Qt/xwFrAu4H3ABsAywADU9eshjUNeAr4L/BvYsroZ3H9YEmSJEmSkjMAliRJkhpYO2v5LgNsAuxABL9rAKNT16umNB94mVg7+N/ATcDDwORqbzYMliRJkiSpdxkAS5IkSQ2mRug7EFiRmNJ5J+BdxFq+Q1LXq5bzFjE99P8B1wP3A69Xe6NhsCRJkiRJ9WcALEmSJDWAdkLflYgRvrsAWwHL49TOKo9pwKPADcB1wP8wDJYkSZIkqVcZAEuSJEklViX47Q+sQIS+exAjfZcHBqSuVerAdOARYlTw1cC9xGjhRRgES5IkSZLUMwbAkiRJUsnUGO27FBH27gFsR0zv7EhfNaqpxNTQ1wD/AB4AZhTfZBgsSZIkSVLXGQBLkiRJJVAj9B0FbEyEvjsDawFDU9cq1dkbwB3AlcA/gSeBefk3GARLkiRJktR5BsCSJElSQlWC3wHA6kTguzewGTA6dZ1SH2gDnifWC74MuBl4rfgmw2BJkiRJktpnACxJkiT1sRqjfccR6/ruA+xIrOvr9bpa1SxiiugriJHBDwBz8m8wCJYkSZIkqTobSpIkSVIfqTHadw1gTyL43QgYlrpOqWReBf4NXAT8H44KliRJkiSpXQbAkiRJUi+rEvyOAt4FfIiY6tn0SurYbOA+4K/A5cCjwPz8GwyCJUmSJEkyAJYkSZJ6RY1pnpcFdgE+DGxFBMGSuu554GrgL8DtwPTiGwyDJUmSJEmtygBYkiRJqqMqwW9/YC1gv2xbh5j6WVLPTQFuAi4ArqUwPbQhsCRJkiSpFRkAS5IkSXVQJfgdAmwOHEis8bt86hqlJjYX+B/wZ+BS4On8iwbBkiRJkqRWYgAsSZIk9UCV4HcksB1wCPA+YFzqGqUW0gY8BlxMTA/9ILCg8qJBsCRJkiSpFRgAS5IkSd1QJfgdC+wEHAZsC4xIXaPU4p4HLgPOJ0YHz8u/aBgsSZIkSWpWBsCSJElSF1QJfscRUzx/HNgCGJq6RkmLeBX4O3AecAcxXfTbDIIlSZIkSc3GAFiSJEnqhCrB71LA+4GPAlsCg1LXKKldrwNXAb8DbgZm5180CJYkSZIkNQsDYEmSJKkdVYLfJYB9gcOBTYEBqWuU1CWTgKuBs4gg2BHBkiRJkqSmYgAsSZIkVdHOVM9HAVth8Cs1ujeAy4FzgdvJrRFsCCxJkiRJamQGwJIkSVJOleB3MWBX4FPA1jjVs9RsXgcuAc4G/gcsqLxgECxJkiRJakQGwJIkSVKmEP4OBd5HBL87ZF9Lal4TgT8B5wAP518wCJYkSZIkNRIDYEmSJLW8QvA7EHgXcAywBzAydX3q0DxgTm6bnttmADOBWcCU7PUpxCjPmdl7IO6NFmSvzWXhvdLwbGvLvh4AjAb6A8OAEYWPlc9HEP92hhKjxgdnm/dg5fcU8Dvgt8AiBweDYEmSJElSI7D5IEmSpJZVZbrn9YCjgf2BxVPXJwBmZ9tk4E3gLeA14FXgFWL63rdy2xQi2K18XyUUnk+EuG1d+893qHJP1Z8IeAcBQ3LbKCIwHpttiwNLAEtl21hgPDCGCI+H4PrSZXEfcCZwIbFe8NsMgiVJkiRJZWYALEmSpJZTJfhdFjg821ZKXV8Lmg1MI8Lcl4Hns+0F4EXgJSLcnZpts4lAt9ecvO0K1f6d1FN/YrT5CGKd6dFEILwM8e9xhWybACxJBMRDs+9T35kH3Az8AriaGEn+NoNgSZIkSVIZGQBLkiSpZVQJ9EYBHwQ+A2ySur4WMBeYRIzcfR54Angy214gAuA36UbAW/Ygrhthcj9iRPEoYtTw0sAq2bZq9nFC9tpQvLfrbdOBy4FTgdvJjSQv+789SZIkSVLrsUkgSZKkllBlnd9tgc8DOxNBm+prNjFt7gvAI8DDwKPA08BEYkrnWZ35Qa0UsHUyKB5IrC+8JLAcsCawVvZxFWIk8Si83+sNLxNrA/8aeCb/Qiv9O5UkSZIklZsNAUmSJDW9Qqi2JnAMcBAwLnVtTWIBMXL3OeAh4IFse5qYvnkqHYzoNTzrWCfC4WHEiOAVgHWB9Yl1rVcmRhAPSf1naCL3Ab8k1geeUtnpv2NJkiRJUhkYAEuSJKlpFQKzMcCBwGeJEFjdNwd4DXgMuAe4mwh+nyWmeK4Z9hqQ1V8HwfBIIvxdA9iImOp8HWLk8KjUtTe4ucA1wE+A/xAPQgD+O5ckSZIkpWUALEmSpKZTCMT6A9sBXwZ2IqbPVdfMA14lQt47s+0h4EVgWq1vMgRLp51QeBCwBBEIbwpsQYwSXoEIi9V1rwG/AU4jRsG/zd8BSZIkSVIKBsCSJElqGlVCrxWI6Z4/DoxPXV+DeZNYs/dO4FZipO/zwPRqbzboKrd2AuGBxFrCaxFh8NbE1NHL4NrYXfU/YjTw34CZlZ3+bkiSJEmS+poBsCRJkppCIeAaCrwfOI6Y8lYdm0MEvHcT09neTkzxPKnWNxhsNaYOpoweQkwPvTHwHmArYrTwmNR1N4iZwMXAj4H78y/4+yJJkiRJ6isGwJIkSWpoVcKstYnpnvcHRqSur+SmEyHvzcC/ifD3BWJt03cwwGpOHQTC44jRwdsQU6lvRKwp3D913SX3FHAKcD4wpbLT3yFJkiRJUl8wAJYkSVLDKgRXw4EPA18hRiyquinAg8C/su1eYg3TdzCsak3tBMLDgFWJaaLfB2xGTLM+IHXNJTUXuAo4Ebgj/4K/W5IkSZKk3mQALEmSpIZTJaDakJjueV9i+mctairwAHAD8E8i9H2r2hsNplRUIxAeBKwIvBvYGXgXhsG1PE+MBj4PmJx/wd83SZIkSVJvMACWJElSQymEUcOAg4CvEiMTtdAM4GHg2myrGvoaQKkraoTBA4GVgG2B3YgweNnUtZbMPGI08PeBO/Mv+DsoSZIkSao3A2BJkiQ1jEL4tDbwdeBDwJDUtZXEPOBJYqTv34lpZ18vvsnASfVQIwweDKwO7AjsSUwTPTZ1rSVSGQ18Lq4NLEmSJEnqJQbAkiRJKr1C0DSYCH2/QYTAgleAm4FLgf8jQqa2/BsMmNSbaoTBI4jp2fcAdgXWxYc1IB7UuAz4HjEyH/B3VJIkSZJUPwbAkiRJKrVCsLQC8BXgUCJcamWzgPuBK4jRvg8Bs/NvMFBSCjXC4CWBbYh1urfHKaIBngBOBC4g97vr760kSZIkqacMgCVJklRKhRCpH7AL8B1gi9S1JfYyMcXzxcB/cIpnlVQ76wWvRUwP/QFgI1p7VPBM4PfAD4FnKjv9HZYkSZIk9YQBsCRJkkqnEByNAT4NHAuMT11bIvOIEb6XAn8DHgTm5t9gYKQyqxEGLw5sC+wP7ECMEm5VdwLfAq4hN327v9eSJEmSpO4wAJYkSVJpVAmJNgC+C+wF9E9dXwLTgFuAPwHXAi8V32BApEZT5fd8MPG7vh8xKngNWvNe9Q3gZ8BpwOTKTn/HJUmSJEld1Yo31ZIkSSqhQig0EPggMeXzmqlrS+BVIvD9I3ATEQQvwlBIja7GqOCVgL2BDwOb0HrTQ88nRvp/ixj1/zZ/5yVJkiRJnWUALEmSpOQKQdB44EvAp4DFUtfWx54B/gr8GbgHp3lWC6gRBI8H3gccDGwPjExdZx97APgmcDmwAPz9lyRJkiR1ngGwJEmSkiqEPxsC3wf2oLWuVR8C/gJcCDxKbg1QMPhR66gSBo8AtgEOBXYBxqWusQ+9BfwcOBWYVNnp8UCSJEmS1JFWaqpJkiSpRApBT39gH+AHtM6UzwuAe4ELgIuAZ/MvGvKoldVYJ3hz4HBgT2DJ1DX2kfnA34DjiYdDAI8PkiRJkqT2GQBLkiSpzxXCncWAzwFfBEanrq0PLCCmd/4tcAnwUv5Fgx1poSpB8EBgY2JE8L7AhNQ19pF7gK8C1+R3eryQJEmSJFVjACxJkqQ+VQh0VgG+B+xPBDvNrBL8/oYIfifmXzTIkWqrEgQPIILgw2idIPhl4ETgbGBWZafHDkmSJElSkQGwJEmS+kwhxNkG+DGwVeq6elkbcD9wDnAxBr9St7UTBB9JBMGLp66xl80GziKmy3+lstPjiCRJkiQpzwBYkiRJva4Q2gwEPkKM/F0xdW297DHgPOBPwCJ/CQY2UvfVmBp6S+BoYo3gZp9O/mrgy8CDlR0eUyRJkiRJFQbAkiRJ6lWFoGYU8AVivd9RqWvrRS8A5xPTPT+Rf8GQRqqfKkHwEGBb4NPATsCw1DX2ovuIEPjayg6PL5IkSZIkMACWJElSLyqEM8sQ05YeTPOu9/smcBFwJnAvMf0zYDAj9aYqQfBIYHfgGODdxFTRzWgi8C3gd8Dcyk6PN5IkSZLU2gyAJUmS1CsKgcz6wM+A96Wuq5fMBK4BTgX+A8yrvGAQI/WdKkHweODDxNTQ66aur5dMB04BTgamVnZ67JH6RpXjTkPymCFJktRcDIAlSZJUd4Vm6E5E+Lte6rp6QRtwO/AL4AoiiAFspEopVQlkVgGOBA4FJqSurxfMB34PfAN4qbLT45DUOXUKcQcRM5wMyD72z/b1A4Znnw8ARmTv7599XpmhoC23r38H/635xDVHGwt7e5V9C7Kvp2f75gIzsvfOzV6fl3ttHj3ksUaSJKl8DIAlSZJUV7kman/gIOBEYLnUdfWCZ4BfA78FXs6/YCNUKodCqNMP2AI4FtibCGSazTXEOusPVXZ4PFIr60awWwltB2cfRwCjso8js210ti2W24Zn7xlBrEU+igiBRxIBbyX87Z/97H7ZVvm8ol/2/R316xYAc8gtNZF9XtlX+XxB7r3zgWlE6DsNmEWExDOybTIwhZhJYHK2Tcu26dn+6dnPmsvCMLnTPB5JkiT1HQNgSZIk1UWhyToU+AwxGm106trqbCpwITHq9/78CzY2pfKpEgANA/YCPg9sSfPdF98NfA64qbLDY5OaURfD3UrwOoQIbEcDY4BxwBLAksSU8eOzfWOz14cTx4yh2VYJZzsaodvoFhAh8mximYvKx+nAJOAt4E3gjWx7FXgt2zc5e8/U7PsqQXSneLySJEmqj2a70ZUkSVIChSbsaOCbwKeJRmmzWADcQqyzeQ3R0ARsVkqNoEpYtAxwBHAUsGzq+ursKeCLwKWVHR6n1Ii6EPIOIALexYjwdjwx3XtlWwpYmgh6RxMjdEcS1ymVkbnqvgXECOPZxIjhKUQQ/CoxS8orwMTc9ma2TWXh6OQOeRyTJEnqPANgSZIk9UihObs0cBJwMM3VTH0BOA04j2hmvs1mpNRYqgRKWwBfIkYFD01dXx29CnydmKb+7XDFY5bKqJNB7wBiRO44IuBdFlg+ty0LLE4EwKOJcHdQ6j+bFjGXCIknEaOIXyeusV4Ans99/kb2+gw6EQ57XJMkSXonA2BJkiR1W6Fhuyrwc2DP1HXV0WzgCiLU/m/+BZuNUmMrHL9GAB8iguB1U9dWR1OIddh/ThzPAI9fSqeTQe9gFo7iXQ5YEVgZWIUIeivTNQ+nuWYaURynZhDB8KtEGPwU8Ey2PU+Ew5PIzcRSi8c6SZLUygyAJUmS1C2FJu4GwC+BbVPXVUePAD8B/kyseQfYTJSaSZUwajVi6uSDiClim8Fs4BQiCJ5a2emxTH2hg8B3ELHO7pLASkTIuzrxQNnyxKwiI4mgV5pBHMNeJoLgJ4HHiYD4WWIN4knEKOOqPO5JkqRWYgAsSZKkLis0dLcGfgVsnLquOpkBXAD8lAiB32bjUGpOhWPaIGI66K8Bm6WurU7mA+cA3yBGzwEe01RfHYS9I4lRuysQD1qsTYS9KxFr9I6muaZgV9+ZScx28BIRBD8GPEwExM8Saw1Pq/XNHgclSVKzMgCWJElSlxQavDsDpwJrpq6rTh4AfghcgtOlSi2ncHxbHvgc8HFilGKjawP+BHyZCEoAj2/qng7C3lHAUsSI3rWAdYjrhBWJNXpHYT9KvauNGC38OjF19KPAQ8SDfU8Ro4Wn1vpmj4uSJKkZeMEtSZKkTis0fN8P/IJo6Da6yqjfk4AnKjttAEqtp3CcGwDsBnwL2Dx1bXVyKXAsMTIO8Fin9nUQ9g4jQt1ViaB3fWJ078rZfqdvVpnMIMLfZ4EHgfuzj88Qaw7PqvWNHiclSVKjMQCWJElSpxQawAcQ4e9Sqeuqg0eAHwAX4ahfSVQNvFYEvgQcRkxl2+iuA44mpkgFPOZpoXYC3/7EaPgViZB3IyLwXY2F6/VKjWYq8AoxdfT9wL3EFNLPApOBBdW+yWOmJEkqOwNgSZIkdSjXDO4PHAr8CFgydV09NAe4GPg+0eh7m009SfCOIGwwsA/wTWDd1LXVwf8Bnyamvgc89rWiDkb3DiLO9asBGwIbA+sRAfA4YoS81GzmE+sGP0McH+/JtieI0cNza32jx1BJklQmBsCSJEmqqdAY7gccAZxM46+H+Xz25/gNML2y08adpKIqAdmaxJTQHyICskZ2O3AkMeoN8DjYCtoJfYcQI3nXJMLeLYhpnZfD0b1qbVOBF4jpou8C7iZmkHmZeKDwHTyWSpKk1AyAJUmSVFWThr9twPVEeHNr/gUbdZLaUzgmjgA+DhwHLJu6th4yBG5y7QS+g4jAdx1ijevNidHtyxBr+0qqbgbwIvAQcAfw3+zzV3CEsCRJKgkDYEmSJFWVaxgPJKYJPQEYnbquHpgKnAH8FHi1stNmnKTOqhKkvQf4HrBd6tp66A7gGCLEADw2NroaoW9/YAlihO/mwNbElM7LAcNT1yw1sBnAc8SU0bcRx9RHgdepsoawx1dJktQXDIAlSZL0DoXw91gi/B2Ruq4eeAT4NvBXYF5lpw04Sd1RCNcmAF8hRtE2coj2QPZnuK2yw2Nk42hnlO9iwCrApsA2wCbAStl+Sb1jCvA0MVX0zcCd2ddTi2/0OCtJknqLAbAkSZIWkWsi9wM+A/yQxg01FgBXAscD91V22myT1FOFwG0wcCDxoMlKqWvrgfuAQ4F7Kjs8XpZXjdB3IDGF8wZE4Ls1MeJ3cWIEsKS+1UbMPPMIcAsRCN8HTCT3UGKFx1xJklQvBsCSJEl6WyH8PRI4icZd83cy8CvgFOCNyk4ba5LqqRDCbQn8CNg+dV094JrAJdXOKN+RwGrAVsC2xGjfFYChqWuW9A6zgGeJKff/Q8y68AQwvfhGj72SJKknDIAlSZIELNJY7g8cQWOHv08So34vAuZXdtpIk9QbCsHcMsA3gcNo3ADOELgk2gl9lwDWJwLf9xBr+S6BfR6pkVRGB98P3EgEwg8Qawe/g8dhSZLUFd4YSJIkqdhg/jjwExo3/L2BWI/zv/mdNs0k9abCcXQoEaB+A1gqdW3ddBvwMWLaUsDjaF+pEfoOIB4u2BTYgZjeeQ1i9K+k5jAVeAy4CfgXcS07kVjSZBEejyVJUkcMgCVJklpcodF8AHAqsGTqurphLvAb4ASiWQbYIJPUd6oEd7sAJxPrsTai64FPELMqAB5Te0uN0HcQsDwxtfNO2ceVgSGp65XU62YDTwG3AtcBdwDP4brBkiSpkwyAJUmSWlih4fx+4Exg6dR1dcObwA+B04CZlZ02xCSlUDi2rkNMqb9n6rq66R/EaOYXKjs8ttZHjdB3ILAS8G7iAYKtiBB4YOp6JSUzF3ieCIOvAW4h1hE2DJYkSTUZAEuSJLWoQuN5J+BsYMXUdXXD48SUz5cSa6kBNsAkpVU4xi5JrAt8FDA4dW3d8Dfgk8RalR5fe6hK8FsJfbcBdgbeRYS+A1LXKql05hFh8C20EwZ7nJYkSQbAkiRJLajQfH43cC6wZuq6uuE/wBeBOys7bHhJKosq6wIfDRwPjEtdWzecD3wOmAQea7uqSujbH1iBOAfvgaGvpK6bT0wLfQtwFXAzEQ4vsmawx2tJklqTAbAkSVKLKTShNyLWzd0odV1dtAC4EPgqMeoBsMElqZxyx91+wL7EusCrpK6ri9qAXwFfA6aDx9yO1JjieQKwNbArsD0x8tfpnSX11FzgGeD/iDD4VuDl4ps8bkuS1DoMgCVJklpIoRm9GhH+bpO6ri6aRYQQPyAbiQY2tCSVW5WZF04BNk9dVxfNJdYz/h4wBzz2FtUIfccAmxIjfd9HzLjRiFOBS2oMs4FHgX8CVwJ3k7tmrvD4LUlSczMAliRJaiG5xvQEYs3fPVLX1EVvEcHD6URzC7CBJakxFMLBNYkQeLfUdXXRTOAbwC/Iphlt9WNwjdB3KLAOMdJ3d2BDYGTqWiW1nKnAvUQQfA3wMPEw5SJa/TguSVIzMgCWJElqAYXm9BjgVOCjqevqoheArwB/IqYiBWxYSWoshePxBOBE4njcSGu/TgY+S6wLDLTmsbhK8NsPWBHYAdibmOp5ydR1SlLmVWK94MuAfxHrB7fl39CKx3JJkpqVAbAkSVILyDWphwLfBz4P9E9dVxc8BBwLXFfZYYNKUqMqBIeLESNqPwcMSV1bF7wEHAFcXdnRCsflGqN9RwNbAO8HdibWd26kQF9Sa5kPPEFcV18K3AlMKb6pFY7pkiQ1MwNgSZKkJpdrVvcHvgR8l8YKGW4HPg38t7LDhpSkRlcIEocQAfDxwKjUtXXBo8AhwB2VHc16fK4S/A4A1iCm8H4/sAlO8Syp8UwF7iJGBV9NBMPz829o1uO6JEnNzgBYkiSpiRUa1gcDvyJGKjWKa4lQ5JHKDptQkppF4Rg9APgY8ENg8dS1dcGtRAj8RGVHMx2nqwS/Y4mpnT8IvA9YPnWNklQnzxKjgi8BbgMm5V9spmO7JEmtwABYkiSpSRWa1jsBvwGWTV1XF1wMfAF4vrLDxpOkZlQ4Xu8P/BRYLnVdXXA5MR30a9D4x+oao31XA/YE9gU2AoanrlOSesl04G7gb8CVxAM+C/JvaPTjvCRJrcAAWJIkqQkVmtcbAn8A1ktdVyctAM4HjiMLE8BGk6TmVjhu7wacSoSOjeIMYpmBGdCYx+wqwe8oYEvgQ8AuwIqpa1TDWwC0Zdvc3P75FKbd7YIBLLrm9EBi2Y9+2UepJ54B/gFcREz3Py3/YiMe6yVJahUGwJIkSU0o18ReFvgtMU1lI5hPhAjfJDftnM0lSa2gEEBuC5wJrJ26rk6aSxy7f0w2UqwRjt1VQl+IaZ13JYLfrWisdZnVe+bltrnEKMnpwMxsm0GEY9OJdVVnAVOAOcBk4vdiWu5nTMv29cveO6ObdQ3LtrbsZ40EBhHh7ygiHB4FDM4+DgUWI0axj8q+d3j2cUT2+RAiSB6Y/SxpKjHl/1+Aa4AXi29ohGO+JEmtxABYkiSpyeSa2aOAXwKHpq6pk+YApwA/IJpMgM0kSa2lEEhuTjwUs2nqujppEnAMcEFlR1mP4VWC30HETBn7AvsAa7HoqEo1p/lEGDubCGunZh/fAl4H3si2t7JtEhHmTiFC31nZ91Y+zieC2MpI3zLqx8LRwf2JsLeyDc22kcBoYs3rMdnHccB4Yo3ycdnro4gweRjxOzQw9R9OvW4e8DBwGbFcy4PZvreV9bgvSVKrMQCWJElqIrmG9kDg+GxrhAb2HGLU2PeJJipgA0lSayqEk5sAZ9E4IfCzwMHATZUdZTmW1xjtOwrYGjgQ2BlYOnWdqqt5xHXFZBaGuq8ALwMvAa9m22tEqDuNhaN3ezItc1V9/btQ4998T/QnrisHEb87I7OP44ElgKWybWlgGWBJIigew8KRyfYim8dEYnroPwO34PTQkiSVihddkiRJTaLQ5DsE+BWNMW3lDODkbJtZ2WnTSFIrKxzT1wNOB96Tuq5OuoMIVJ+E9MfzGiHYUsS6vgcRAfDIpEWqJ+YQ4e0kItx9gZie9vlse5kYxfsmEVDNZdH1dzsl9b/jVLoZIldC4mHE6OGxRBi8fLYtm32cwMJRxkNxzeJGNRW4mZj94RrioYpFtOrvjyRJKRkAS5IkNYFCc+49wB+ARui0zABOAH5O1oy1QSRJoXBsX5MYCbxt6ro66SLgKLL13FMd26uEV6sSUzx/GNgA1zdtFG3E2rpvEYHuc8Ro8yezjxOJ0GkyMXq30wGv1x3104WwuD8Lp5qujBxeAVgJWBlYkQiJxxIjiJ1aujHMBe4hRgRfCjyVf9HfNUmS+pYBsCRJUhPINdxWAf4IbJW6pk6ohL+nkK0dZmNIkhbVwCHwAuBHwLfp42N8lRBqALA+EfruC6ye+i9H7aoEvS8S4e5j2fZctu914hpiTkc/yOuKculkQNwfGE6MCp5AjBRejfi9XYUIhytrEDtiuJzagMeBS4gw+EFy06n7eylJUt8wAJYkSWpwuWbaYsCviQZ32U0HvoPhryR1qIFD4OnAp4HfVnb05rG+Srg0GNiSWJN4T2JNUpXHfGLq5leIkYKPAw8DTxBh7+vE1LLz2vshXj80h06GwyOJYHg5YqTwWtm2arZvDDAk9Z9Fi3gRuJx4QPVOCg9u+PsrSVLvMQCWJElqYLlm2QDgG8C3ss/LbA7wXeAkDH8lqVOqhMDnANukrqsTngM+AtxS2VHvY36V4Gg4sRzCocCuxDSySqsS9r5IBLwPZdvjxDq9bxFTN9fktULr6iAcHkAEv0sTI4TXIkb8r05MKT0WQ+EyeAO4FvgNsV7wjPyL/n5LklR/BsCSJEkNqtAM+xAxImxM6ro6MAc4GfgBuUavTR9J6ljhuL8hcC6waeq6OuEm4CAiDK7bMb9KKDQK2BE4HNg++1ppTAdeIsLeB4D7gUeIsPcNOlij1+sCtacTo4X7EzPjLEMEwesRa36vSUwpPZryPzDZrKYA/wLOyz5Ozb/o774kSfVjACxJktSgcs2vjYALKf+ahvOI8Pd7GP5KUrcUgo+NiZHAm6SuqxPOI6aDngk9O/ZXCX/GALsBHwPeTYwAVt+ZB7xJrNd7P3BP9vEp4FUc2as+0IlQeCCxdvAKwDrE9fOGxPTRSwFDU/8ZWswM4uGgc4BriGD4bR4XJEnqOQNgSZKkBpRrci0J/I6Y4rLM5gOnAV8nRgUBNnckqTsKQce7iHB1rdR1dWAO8FVi7Xeg6+eAKgHPeOL89zFiOmynee0bc4l1ex8lwt67gQeJEd6TgQW1vtHzvvpaB8HwCGACMTJ4Y2AzYG1iPWEfJOkbs4gg+HzgSuJhkrd5zJAkqfsMgCVJkhpMrpE1CDgR+FLqmjrQRkxT+kVyT/fb0JGk7iuEGtsTIfDKqevqwCvAwcA/Kzs6cy6oEfzuDXwc2BwYnPoP1uTmEtM5PwLclW0PAi+Qe6iryPO8yqiDQHgI8XDlmkQYvDkxfbSBcO+bA9xGjAg2CJYkqQ4MgCVJkhpMrnF1IPBrYGTqmjrwF2Laz9fBBo4k1UshyNiDWAt+mdR1deAO4ADgGWj/nFAlqBkLfIAIfrcgHoRS/c0DXgMeBv4L3A7cB7xINoV3NZ7f1ajaCYUHE4HwWkQgvBWwPrAszjjQWwyCJUmqEwNgSZKkBtKA6/5eBRxFNI1t2khSnRWCiw8DvyJGyJZZu+sBt7PG75HEVM8Gv/X3FvAYcCdwKzG183PAtGpv9nyuZtZOIDyEmDJ6fSIM3pJYT3gpoH/qupvMHOJYdDrwD1wjWJKkLjMAliRJahC5ZtRYYp2sPVPX1IGbgMOAJys7bNZIUv3lzg/9iIdufkK5Z4eYA3yeaOwDcX6oErqMJILfTwLvxhF39TQbeJ5Yv/dmYmT2o0QQ/A6ev9XK2gmERxBT729KPJyyBbAK5T7+NppZwI3A2cDV5Kad97gkSVL7DIAlSZIaQK7x1B84Hvg25R5pcD9wCDGCCLBJI0m9KXeeGAgcR5wnyrw27gvEVNC3VHltGLAjcDSwQ/a1eu5NYh3fm4H/sHBa53nFN3rOlmqrEQj3I6aLXod4YGVbYv1gRwfXx0xi/fizso+z8i96zJIk6Z0MgCVJkkqu0GTaHfg9MC51Xe14lhj5++/KDpsyktT7cueLocAPgGMpd/BwPbGe/avZ14OA9xDB7y7AqNQFNrj5wEvEw1j/IsL2R4FJtb7B87XUNe2MDh5OjAbeCtieGB28IuV+MKcRTCOWmDmDeJhlbv5Fj2GSJC1kACxJklRyucbSSsBFwGapa2rH60Tj/uLKDhsxktR3cueMMcAvgYNT19SBHwEnEGvbHwXsQyx1oO6ZDTwD3EaEvrdlX8+u9mbP0VL9tBMGDwSWIa7hdyCmi16dmEJa3fMmcCkRBN8NLKi84HFNkqRgACxJklRiuUbSEOAXwCdS19SOGcCXKazpKEnqO4UAYlngN8BOqetqx5tEULk1MCF1MQ1qJvAYMRruOuAuYuTv/OIbPS9LfaedqaKXIB562R54LzFttDMedM9E4AJijeBH8y94vJMktToDYEmSpJIqNI0OIZ5wH566rhrmAycRo7jmgk0XSUqlcP5Yj1g6YKPUdamuZhJhx/8B1xKh76tAW/GNno+l9NoZHTwO2IAIg3cE1gdGp663AT0BnAecT6xt/jaPgZKkVmUALEmSVFK5RtG6wCXAmqlrasfvgM8CU8BGiySlVggbtiea4sunrks9Uhnp+28Whr6vVHuj52Gp3GoEwqOJAHgnYGfiHsCRwZ3XBvyPmI3oEnLrnXtMlCS1IgNgSZKkEso1hUYAZwEHpq6pHf8EDiN72t4GiySVQyFgOBj4FY4sazRzgMeJ0PcqaoS+nnulxlUjDB4HbAjsQgTCawPDUtfaIOYSx8xTiWnx314D3WOlJKmVGABLkiSVTKEJdDTwc2Bw6rpqeJAIp+8DmyqSVDa5c8oA4DjgO8Cg1HWpXfOBZ4kA42rgFmKdy0Wmd/acKzWfGmHwEsDmwB7ADsBqeBzvjKnAZcAvgTvJHUM9fkqSWoEBsCRJUsnkGj8bAX8FVk5dUw2vAh8jRiQBNlMkqYxy55XhwC+AI1LXpKpeIcLevxPh77NEGPw2z7NS66gSBvcDlgO2AfbKPi6H/d2OTCSWqzkLeDr/gsdUSVIz8wJBkiSpRHKNnpHAecCHUtdUw0zgS8QaW4ANFEkqs9z5ZRliPeAdU9ckAKYB9xCh77XAQ+SmK63wHCu1rhqjggcRI4F3IsLgzYAxqWstufuB04C/kFsfGDzGSpKakwGwJElSSRSaO0cR05WVcernNmIE2VfJmtQ2TSSp3ArnmI2BPwFrpq6rRc0HniDWprwM+C+FMAI8t0p6pxph8EjiuL4XsBtxbHeK6OrmAjcAP8s+zqu84DFXktRsDIAlSZJKItfQWRf4G7B66ppquAo4DHgNbJZIUqMoBAcfAM4FxqWuq4W8QUzxfClwPfAcrusrqZtqhMHLAtsB+wDvAZZKXWdJTQIuAH4FPJx/weOwJKlZGABLkiSVQK6BMxQ4Ezg0dU01PAQcADxQ2WGTRJIaR+580w/4CvA9YGDquprYPOBRYornS4F7iWUUFuG5VFJ31QiChxAPle6dbetSzpmFUnuCmBb6fODN/AselyVJjc4AWJIkqQRyjZsDgXOAYalrquJN4HBiukrAxogkNaLCevOnAx9NXVMTegO4GbiYmGb0xeIbPIdKqrcaYfBSxKjg/YDtgSVS11ky84F/AT8hZmdwWmhJUlMwAJYkSUos16hZiRgdtGHqmqqYB5wA/BBYADZEJKmRFc49fwa2TF1TE1gAPA5cAfwVuIfCaF/PnZL6SpUweAiwATE99N7AWsCA1HWWyCTgD8CpxLH8bR67JUmNyABYkiQpoVxjZgBwMvCF1DXV8Cfgk8AUsAkiSY2uEAy8F/gjsHTquhrUdOB24CLgauDZ4hs8b0pKpcao4OWAXYAPAVsDo1LXWSIPAT8nHo6aWtnpcVyS1GgMgCVJkhLKNWTeB/wFGJe6piruJZpDj4PND0lqFoVQ4LPAj3GNyK6YCFxLnL9vJntIqsLzpaSyqRIGjwTeBRwA7Aosm7rGkpgDXEU8oHtr/gWP7ZKkRmEALEmSlEiuATOWaB7vlLqmKt4EPgZcXtlh00OSmkfuXDQc+BVxzFdtbcAjwN+IEb8PkFsvEjxPSiq/KkHwAGBd4IPZtjbQP3WdJTAROAM4C3ilstPjvCSpERgAS5IkJVBounwG+BkwMHVdBQuA7wLfw3V/Jalp5c5JKwMXApulrqmEZgN3EUsiXIHTPEtqAjWmh14e2B04CNgcGJq6zsTagJuAHwLXkXvox+O+JKnMDIAlSZISyDVb1gIuA9ZIXVMVVwCHAm+BDQ5JalaFAGA34PfA+NR1lcQU4Ebi7+R64I38i54bJTWDGkHwOGAH4KPA9sDo1HUm9hbwW2J94EX+wjwXSJLKyABYkiSpj+UaLAOBXwCfSl1TFU8S6/7+D2xqSFKzy52b+gHHAyfQ2tN/vgb8gwh+bwGm51/0vCipWVUJg4cDWwGHEA8JLZm6xsTuBn5EPMQ7p7LT84IkqWwMgCVJkvpYrqmyM7H275jUNRXMBD4NnFfZYUNDkppfYW3684E9U9eUwAtEU//3RJN/bv5Fz4eSWkWVIHgQsBFwMPABoJUPiNOI88TPgCcqOz1HSJLKxABYkiSpD+UaKWOAPwO7pK6pinOIdYlngY0MSWolufPUpsDFwEqpa+ojTxEPZf0JeBBYkH/Rc6GkVlUlCO4HrAt8BNgfWC11jQk9QIwGvphYKx7wnCFJKgcDYEmSpD5SaJ4cAZxOPElfJvcAHyQa4TYvJKnFFM5VRwGnAkNS19WLHgX+AFwIPJZ/wXOgJC2qShi8OnAA8GEiFG5FM4iHh04CHs+/4HlEkpSSAbAkSVIfyTVMVgAuBzZMXVPBFOBw4JLKDpsWktR6cuer4cTDSoemrqnO2ohRW78nznlP5V/03CdJ7asSBK9IhMAfBdahNXvODwDfAy7FtYElSSXQiidjSZKkPldoknwH+Fbqmqr4OfBlYB7YrJCkVlU4Z61OhKTrp66rDirB7++IEb/PF9/guU+SOqdKCAwRBB8AHEJrBsGVtYF/DDydf8HziySpr7XaSViSJCmJXINkQ2L0b9k6AHcSUz8/DzYoJKnVFRr7+wHnAoulrqubKsHvb4GLKAS/nvMkqfvaCYJbeUTwXcD3gSuA+ZWdnm8kSX2p1U6+kiRJfS7XFBkInEasqVgmU4in9C8DGxOSpFA4f50MfD51Td3wCHAe8GcMfiWp13QiCG61NYInA2cBpwATKzs990iS+ooBsCRJUi/LNUO2J6bRHJe6poLTiKb+XLApIUlaKHcOWwb4C7BN6po66XHgfOACXONXkvpUjTWCD8m21VLX18duBE4A/pXf6blIktTbDIAlSZJ6Ua75MYxoRO+XuqaC+4B9yJrjNiIkSUW5c9mORKC6ZOqa2vEc8AfinPto/gXPcZLUt6oEwasDHwMOonxL4vSmV4CfAb8mRgYDnpckSb3LAFiSJKkX5ZoeHyAa0iNS15QzEziCaObbgJAkVZU7l/UDvgZ8D+ifuq6CV4hpns8jHm56m+c3SUqrShC8PrEszv6U+6GiepoPXE6MBn77POU5SpLUWwyAJUmSekmu0TEauAjYKXVNBb8DPgnMApsPkqTacue0scT5Y6/UNWWmAH8DzgDuBBZUXvC8JknlUgiC+wNbEPcjHyDumVrB48B3gQuBOZWdnrMkSfVmACxJktRLcg2Og4FzgCGpa8p5Gng/cD/YcJAkdSx3XtsUuBhYKWE584B/A6cA15GtYw+e0ySp7ApB8GBge+AY4oHZYanr6wPTgXOBk4EXKzs9f0mS6qlsUzZJkiQ1hVxTYzzwCcoV/s4HfkkW/kqS1EV3AT8km0EigYeBzxFTh16F4a8kNZTCsXoOcC2xLvDHgJuJ+5VmNgL4LPAnYNvKzuNufK7adNmSJHWLI4AlSZJ6Qe7G/QjgdGBQ6ppy/gkcALwJNsslSZ2XO78NJ85vh/bhf/5V4PfEdM9P5l/wXCZJjalK4LkE8BHgaGCt1PX1gZeAHxEjgmdUdnpekyT1lAGwJElSneWaGEsDlwObp64pZxLwYeAasLEgSeq63HludWIq6A16+T85C7gS+DlwC67zK0lNp0oQvBrxMO0hwITU9fWyOcAfibWBn8m/4HlOktRdTgEtSZLUe/YBNkldRMEFwPWpi5AkNYXHge8BU3rp57cBdwCHEyONbyILf0/edgWb4pLURKoc158AvkbcU11ArJvbrAYT01//CXhv/gWnhJYkdZcjgCVJkuqoMPr3CmCz1DXlPAHsBTwCPk0uSeq+3PluIHAS8IU6/yeeBc4GzgMm5l/w/CVJza8QfA4DdgU+D7yb5h7UNJE4r56NU0JLknrAAFiSJKmOco2Ko4FfAgNS15SZDxwH/AxsIEiSei53zlsG+DPwnjr82CnARcQ59N78C567JKm11Fgf+KPEvdZqqevrRZUpoU8A3v5L8DwoSeoKA2BJkqQ6yTUoliJG/5Zp7d//AB8EXgObB5Kk+sid+95LTF25ZDd/1Dzg38ApwHXA3MoLnrMkqbVVCYLXAT4DfAQYnbq+XnQLMQ32jZUdnhMlSZ1lACxJklQnucbE4cCviWkxy2AGcAhwCdg0kCTVT+7c1w/4KrEmcFdnv3gI+BUxivityk7PV5KkvEIQPAh4H/BFYHvKM/NSvb1IjAQ+nxgZDHiOlCR1rJnXS5AkSeozuWbEeOBjlCf8hRiNfFXqIiRJzSfXgG4DzqRr55tXgZ8AewNnYPgrSWpH4dwwF7ga2B/4EvBk6vp6ybLAL4AfEVNgA1VHRUuStAhHAEuSJNVB7gb8IOA8YHDqmjKvAfsCN4ENdUlS78idBzcBLgZWbuftM4mg+BTgVmBB5QXPU5KkzqgSgK5LjAbeHxiRur5echXwFeCByg7Pm5KkWhwBLEmS1EO55sNiwGGUJ/yFmE7z1tRFSJJaxt3EKKVZVV5rA+4APg4cCtyM4a8kqRtO3naF4nnjQeBo4vxye+r6esnuwF+AvcgGdh1343OOBpYkVeUIYEmSpB7K3XC/H7gAGJ66pswzRHPgAbCxLknqXbnz4TDgdOKhqIpngbOA3wAT89/n+UmS1BNVAtBlgE8BRwJLpq6vF7wO/AD4NTGrBuD5VJK0KANgSZKkHsg1G4YCfySmWy6L7wAnVL6wISBJ6m258+LqxFTQqxCjlU4F7su/1/OSJKmeCkFwP+A9wFeBnYCBqeurs9nE0kPfAV6p7PTcKkmqMACWJEnqgVyTYTvgUmBM6poyDwN7Ak+BjQBJUt8oNN+3J0YD/xOYW9npOUmS1JsK56KxxIwUnwNWTF1bL7gG+BKuCyxJKnANYEmSpJ4bABxMecLfNuJpcMNfSVKfKpxz/g1cjeGvJKkPFc41bwGnEDM1XQTMSV1fne0C/Cn7COCawJIkwBHAkiRJ3Za7sd6QaHBPSF1T5m5i7d+XwGa7JKnvFZvPnoskSX2tShA6gnhw98vAqqnrq7OXieV/zsMHryRJGABLkqQ668nTxo12c5r7s34f+EbqejILiOnNflXZ0Wh/r5IkSZJUL1XuUTcAvkKMCh6aur46mgH8AjgJmFzZ6f2gJLUmA2BJklpYK0wN1Vs3u7m/uxWI0b/rpP6zZu4iRv9O7M0/vyRJkiQ1ksL97zDgIOCrNNdo4AXElNBfA56v7PS+UJJajwGwJElNpoehbv9sG0I8CV35ODjbRmYfRwEDc18PyPZVri0G575ua+e/14+4QZ0MzM++ngdMzb5vZrbNAaYBs4Hp2cc52cfZwKzs6wXZ1i1duSnO/T1/Ajg9+3tLbR5wDHBWd/5MkiRJktTMaowG/jqwD3Ef2yz+DXwB+F9lh/eGktRaDIAlSWpQXQh6+xMh7ghgOBHajgfGAuOyj/nPx+TeW9kqYfDA7OcNIK4jKl9Dfa8r2rJtAREMtxHhZuXrmUToOyO3TQfeym1v5j5WPp+We+9s2g+n31btRjn7+x8N/A3YoY5/9p64A9gTeK1W3ZIkSZLU6gr30yOAQ4hpoVdMXVsdPUiEwNdWdniPKEmtwwBYkqQS62TIO5i4Ya0Eu0sDSwITctviLAx3RxFhbmVUbzNfDywgRgbPIQLjqSwMhV8npkl+CXgZeBV4JXttGhESz+vg5+8OXEj8/ae2yNq/3thLkiRJUm1V7rc3Bb5N3OcNSF1fnbwEfAP4PfEwNeD9oiS1gmZu+EqS1DA6EfRWpl8eByyTbSsQTycvByxFhL6LsXDEruf5zltAjCqeAUwiwuCXgReAp4m1k14iAuPJREDcBpxHPCleBncTo39d+1eSJEmSOqlwPz6GWObnWOLh6mYwFfgh8HPivhfwnlGSmp2NYUmS+lAngt6hxAjdpYHlgVWAVYGVsq+XIkLekZRjzdlWMY8IfScRo4SfJUYKfxBYInVxRBh9LHAqeCMvSZIkSV1VuF/fDvhO9rEZzAF+DZxA3MsC3jtKUjMzAJYkqZd0EPb2J0LcJYlgdw1gTWA1YGUiVBxDTNUsdeQBYA/gOfAmXpIkSZK6o3AfPwH4InAk8SB2o2sjljA6juzeEbx/lKRmZQAsSVIddDLsXYYId9cF1iFC3+WIsHcYnpfVfccDPwBv3iVJkiSpJwr39wOBDxAjZ9dNXVudXE/MIPVAZYf3kZLUfGw0S5LUDR0EvkOJKZxXAdYDNiAC3xWA8dnrUr08BewGPAbeuEuSJElST1W5518b+DaxDNDA1PXVwd3AZ4GbKzu8l5Sk5mIALElSJ3QQ+I4hpnFeD9gw21YnQuARqWtX0/sJMYVXmzfskiRJklQ/hV7AKOATwJeJ5Zwa3RPA54G/53d6XylJzaEZnlaSJKlX1Ah9+wFjiamcNwI2IwLfVYFxeG5V33oF+DOxlpMkSZIkqY5O3naFfG9gKvEA7j3EEjxbpK6vh1YDziIeKP4j3ldKUlNxBLAkSZl2RvmOIQLejYgbvI2J6Z3HEuv7Sqn8DjgCmAc+qS1JkiRJvaXQM1gJ+AbwUWBI6tp6aBLwLeBMYC54bylJzcAAWJLUstoJfIcTUzpvDLwL2BxYgxjh67lTZTGVWH/qOvAGXZIkSZJ6W6GPMAz4OPA1YJnUtfXQDOBHwI+BWZWd3mdKUuOyiS1Jaik1Qt/+xPo96xKB7zbZ50vjlM4qr2uA/YBp4I25JEmSJPWVQm9he+BEop/QyOYAvwS+QzxwDHivKUmNygBYktTU2hnlO5SYsmkzYDtgS2Ja5xGpa5Y6YR7xpPn54A25JEmSJPWlKr2GFYETgIOAQanr64H5wHnAV4E3Kzu955SkxmMALElqOu2EvosBaxIjfHcgpnieAAxIXbPURfcCuwETwZtxSZIkSUqh0H8YDnySCE+XSF1bD7QBfwa+SHbPCd53SlKjMQCWJDWFdkLf8cR0zu8lRvqun+2TGtkJxLRc3oRLkiRJUkJV+hG7Az8ENkhdWw9dBhwLPFPZ4f2nJDUOA2BJUsPqIPTdENiJCH7XBkalrleqk4nE6N97wRtwSZIkSSqDQo9ibWJd4PfT2D34a4DPAI9XdngPKkmNoZFPPpKkFlUj+B0HbMTC0HcdYGTqWqVecAFwGDAXvPmWJEmSpLIo9CvGAV8BjgFGpK6tB24CPgE8VNnhfagklZ8BsCSpIdQIfUcRUyrtnG3rYeir5jYLOAC4HLzpliRJkqSyKfQvBgEHE0v4LJ+6th64Ffg0cHdlh/ejklRuBsCSpNKqEfoOAdYiRvruDmwMjEldq9RHbgX2BN70ZluSJEmSyqvQ09gO+AmwWeq6euBe4EjgzsoO70slqbwMgCVJpVMl+O0HrABsD+wNbA0snbpOKYEvE00Db7QlSZIkqeQK/Y3VgR8B+9C4ffl7gaOAOyo7vDeVpHJq1BONJKnJ1BjtOwbYggh9dwJWBQakrlVK5FlgV+AR8CZbkiRJkhpBlXWBvw58ChiWurZueiSr/1+VHd6fSlL5GABLkpKqEvwOBNYEdiOC341xXV8J4Gzgk8ACb64lSZIkqXEUeh+DgSOAbwFLpa6tmx4HPoEhsCSVlgGwJKnP1RjtOw54N/BBYEdgudR1SiUyFdgPuBa8sZYkSZKkRlToh+wJ/BhYK3Vd3WQILEklZgAsSeozVYLf/sAawB7AvsRo30adAknqTTcQ60RNAW+qJUmSJKlRFXojmwA/A7ZLXVc3GQJLUkkZAEuSel2V4Hcksbbv/sSapiumrlEqsQXAMcCZ4M20JEmSJDW6Qp9kBeAkokfSP3Vt3WAILEklZAAsSeo1VYLfCcAuwIeBdwGLpa5RagCPE783T4M30pIkSZLUDAo9kzHA8cTDv0NT19YNhsCSVDIGwJKkuqoxzfOaxBTP+wHrAQNT1yk1kFOALwJt3kBLkiRJUvMo9FCGEAHw8cDY1LV1gyGwJJWIAbAkqS6qBL9DgM2I0b574TTPUne8Bbwf+A948yxJkiRJzSjXU+kHHEBMCd2IN4CPA4cDN1V2eB8rSWkYAEuSeqRK8DsK2Bb4KPA+YHzqGqUG9nfi5n8GeOMsSZIkSc2q0F95L/BzYP3UdXXDfcCRwB2VHd7LSlLfMwCWJHVLleB3PLAzcCiwDTAidY1Sg5sHfBw4H7xhliRJkqRmV+i1bAicSjxk32juJULgOys7vKeVpL5lACxJ6pIqwe/SwN7EiN8tgMGpa5SaxP3AbsCL4M2yJEmSJLWCQt9lZeCnwD6p6+qGu4DDgAcqO7yvlaS+YwAsSepQldAXYHniBuSjwMbAgNR1qte1Zdt8YA4xQnUOsACYnX1syz5vK3zvzGyrGA4MLbynP7F2NMBA4mGCftm+AdnH/tm+VriG+QFwPHiTLEmSJEmtpNCHWRI4EfgYcU/cSG4hRgI/VNnh/a0k9Y1WaJ5KknqgSvi7PLA/MdXzenguaWTzWRjMzgSmAZOAydk2Jfs4CZiafT01e+8MIgCeQQS/07Of15Z9vqDKfyu/bwDvvHEdSATDAIOAYdn7hue+HkGsM71Yto0GxuS+HpPtG5G9fxgRNDfaTfJrwO7Af8EbZEmSJElqNYV+zCjgm8BnWfjgdKO4ATgCeLqyw3tcSep9Nu0lSVUZ/Da8Sig7A3gLeBV4Pfs4EXgl+3xSbptGjOitbPNT/yG6YBAxYriyjWJhGDweWAKYACxFPD29RLaNJgLm4ZTr3/RFwMHE/wdvjiVJkiSpBRV6M0OBY4FvACNT19ZFVxMjgV+s7PA+V5J6V5kanZKkEjD4bSjziJB3MvAy8BLwPPAc8AIR8r5MBMAzWDhqt0vKfFNWY3ryjgwmAt8RwDgiFJ5A/FtfAViOhWHxYtn7+nIE8Wwi/L0Yyv33L0mSJEnqfbl73wFEkPp94mHnRnIxcAzxMLr3upLUy2ziS5KAqkHa0kTwewQGv6nNJUbnvkY8LfsU8DjwDBH2vszCKZs7FfC24o1WF8LiwUTwOxZYhgiFVwFWzT5fFlicCIYH9UKpdwJ7AK+14v8nSZIkSdI7Fe5pDwR+Qjy83Eh+C3yBeFC9JXsTktRXbOZLUourEootDuwDfALYmMZbO7XRzSSman4BeBJ4BHiMWCvnFeCN7D1tnflh3kx1rAvBcH9i5PA4YhrplYCViWB4ZSIYXpIIj3uyJtM3gBPB/3+SJEmSpIUK9697Ab8g7kcbRRtwGvBVYkYz73slqZcYAEtSi6oSeo0C9gSOBt4FDExdYwuYRYzqfRZ4GHgQeCj7+hVi1G+H6/B6s9R7OhkO9yMC37HEAxSVEcMrZx9XIILhscSaTe09VPEisCvwAPj/VpIkSZK0qMJ96g7A6cBaqevqgnnAScD3iCWQvPeVpF5gACxJLaZKoDUEeC/waWBHejZyUbUtIKY4ep4Ieu8H7iNG+U4kwt6ao3q9GSqfTobDg4mHK5YgppOujBheBViRWGd4PDGd9ADgfODjwDz/n0uSJEmSqincj24FnAFslLquLpgFfAv4GdmD794DS1J9GQBLUgsp3CD0B7YEjiGmDVosdX1NZi4xlfMTwD3AXUTw+wwRBNcc2etNT2PrZDA8CBhGhL+VdYZXBa4F7gD/HUiSJEmSaivce24C/IqY0a1RTAG+CJxT2eF9sCTVjwGwJLWAKoHUWsQavx8hRiCq5+YT0zY/QoS9dxDTOj8HTK31Td7ctJbOrjfsvwtJkiRJUkcK95jrAGcB705dVxe8DnwSuKSyw/thSaoPA2BJamJVwqalgI8S4e9qqetrcG3Am8BjwH+BW4B7iSmep1X7Bm9iJEmSJElSPRV6P6sTI4F3Tl1XFzwHfAy4obLD/okk9ZwBsCQ1qcINwHBgb+BzxLTPHv+7ZwbwLHA38B8i+H0SmFTtzd6wSJIkSZKk3lboAa1MrAm8S+q6uuAhYsDC3ZUd9lQkqWcMACSpyVRZ5/ddwOeBPYChqetrQK8TNyI3AzcC9wMvU2UNX29OJEmSJElSClVC4F8SvaBGcTNwKPGgPWCfRZJ6wgBYkppElemeVwaOJi6el0xdXwOZD7xErOP7L2Jq50epsY6vNyOSJEmSJKkMCr2hZYCfAx9KXVcXXAEcRTx4b89FknrAAFiSGlyV4HcUcXF/LLB+6voaxFxizZlbgeuzj88As6u92RsQSZIkSZJURoU+0dLAqTRWCHwuMZPdVLAHI0ndZQAsSQ2scFHfD9gG+BKwKzA4dX0lNxd4GrgJuAa4E3gemFd8ozcbkiRJkiSpUVQJgX8J7Je6rk6aD/wI+C4wB+zLSFJ3GABLUgOqMup3OWK65yNwuuf2zAeeJULfq4iRvi8AC4pv9OZCkiRJkiQ1qgYPgWcCXwF+BbSBfRpJ6ioDYElqMIUL+CHAB4hRv5ulrq3EXgJuJkLfG4npnh3pK0mSJEmSmlaDh8BvEOsB/7Wyw76NJHWeAbAkNYgqo37XJYLfDwEjUtdXQpOA/wJXAtcBj5NNHZTnzYMkSZIkSWpmuZ7S0sDpwD6pa+qkp4BDiIf6Afs4ktRZBsCS1AAK4e9iwEHAF4DVUtdWMnOAh4F/AH8H7gGm5d/gjYIkSZIkSWo1ud7SisCZwK6pa+qkO4GDgccqO+ztSFLHDIAlqcSqjPrdHPgasCcwKHV9JTIR+DdwKTHF88vFN3hzIEmSJEmSWlmuz7QScAaNEwJfAXwceA3s8UhSZxgAS1JJFcLfMcARwOeA5VLXVhKzgPuBy4gbgYeBucU3eVMgSZIkSZL0jl7TysB5wPap6+qk04EvAzPAfo8kdcQAWJJKpsqo362A44mnMgekrq8EXgFuAC4G/kP29GeeNwGSJEmSJEnvVOg7rQ2cDbw7dV2dMAf4JvATYAHY/5Gk9hgAS1JJVAl+xxCjfo8Flk1dX2LzgUeIKZ7/CjxAXPi/zYt+SZIkSZKkjhV6UOsBvwM2SV1XJ7wFfBK4sLLDfpAkVWcALEklUCX83Qz4NrAbrT3qdzpwG/AX4B/A88U3eKEvSZIkSZLUNYVe1GbEdNDrp66rE54CPgrcAvaFJKkWA2BJSqxwwT0SOIxY06SVr2BfA64FLgBuAqbkX/TiXpIkSZIkqWcKPantiOmgV09dVyfcAhwEPAP2iSSpGgNgSUqocKG9LrGWyb7AoNS1JfI0Mc3zn4B7gLn5F72glyRJkiRJqp9Cb2pX4Cxg+dR1dcKfiemgJ4M9I0kqMgCWpAQKF9eDgf2I8Het1LUlsAB4iJjm+ULgcaCt8qIX8JIkSZIkSb2n0KfaFzgDWDJ1XR1YAJwIfAeYB/aQJCnPAFiS+ljhono54DjgcGBE6tr62Dzgf8D5wGW4vq8kSZIkSVIShX7VYcApwJjUdXVgGnAM0VsC7CVJUoUBsCT1kcKFNMAOwPeBrVPX1sfmArcD5wFXAa/kX/RCXZIkSZIkqe/lelf9gc8APwSGpa6rA88S6wHfXNlhb0mSDIAlqU8Uwt9RwCeALwFLpa6tD80GbgJ+B1wNvJ5/0YtzSZIkSZKktHI9rEHA8cDXss/L7BbgQCIMtsckSRgAS1KvqjLqdw3gBGLN37JfPNdLJfg9hwh+J+df9KJckiRJkiSpPHL9rBHAj4hplsueJZyf1TkN7DdJ0sDUBUhSi+gH7A78ANgwdTF9ZC5wG3AGMdWzwa8kSZIkSVLjmA58CxhHjLAtswOBh4GTgLbjbnzO3pOkllb2p3YkqSEVRv4uRjyB+EVgfOra+sB8Yo3fs4ErgDfyL3rxLUmSJEmSVG6F3taywHnAzqnr6sCbwOHAZZUd9qEktSoDYEmqs8IF8urA94gpnwekrq2XtQH3AmcBlwCv5l/0gluSJEmSJKmx5PpcaxHTLG+euqYOPAQcADwA9qMktS4DYEmqkyrr/e4CnAhskrq2PvA4scbvBcAL+Re80JYkSZIkSWpMhX7XVkQIvHrqujpwOTES+A2wNyWpNRkAS1IdFC6GhwJHAd8AlkxdWy97CfgDcC7wWPFFL7AlSZIkSZIaW6HvtRex7NdSqetqRxuxFvDxxFJl9qgktRwDYEnqocJF8ATgW8DHgCGpa+tFk4lpnk8H7iYurAEvqCVJkiRJkppNof91BHAKMDJ1Xe2YSgzQ+HNlhz0rSa3EAFiSeqBw8bspcDLw3tR19aI5wD+BU4F/ZV+/zQtpSZIkSZKk5pTrgw0kZr77BjAodV3teAzYH7i3ssPelaRWYQAsSd1QCH77A/sQ6/2ukbq2XnQP8Avgr8CU/AtePEuSJEmSJDW/XE9sBPAzYpRtmV0JHIrrAUtqMQbAktQNuYvdYcCnga8BY1PX1UteINb4PRd4Pv+CF82SJEmSJEmtJdcXW4roF+2RuqZ2tAE/JJZscz1gSS3DAFiSuqAw8ndp4ATgcMo93U13zQAuJZ7mvCv/ghfKkiRJkiRJranQH1sL+COwSeq62jGZWLf44soOe1uSmp0BsCR1UuHidl3gJ8CuqevqBW3AHcBPgb8DMysveHEsSZIkSZKkQp9sO+B8oMyNo4eAD2Uf7XFJanoGwJLUCYWL2h2JcHTD1HX1gpeAM4FzgImVnV4US5IkSZIkKa/QLzsQOB0YnbqudlxEjASeAva7JDU3A2BJakfhQnYAcBDwA2C51LXV2WxitO/JxOjft3kxLEmSJEmSpGpyvbMBwFeBb1PepdLmAd8g+l+AfS9Jzat/6gIkqawK4e9w4CvAL2m+8Pch4FPAYRj+SpIkSZIkqZNyvaP5wM+JqaDLaiDwBeC9qQuRpN7mCGBJqqIQ/i4OfAc4kvI+wdgdU4E/Aj8DHs+/YPArSZIkSZKkzsr10pYlQuAyh6w3AwcAL4J9MEnNyQBYkgoK4e/KwE+AfVPXVWd3Aj8kpn2eW9npBa8kSZIkSZK6qtBP2wS4AFgzdV3t+CXwJWAO2BOT1HwMgCUpp3CxuhHwC2Db1HXV0VvAucCpwPP5F7zQlSRJkiRJUncV+mr7ED2osanrqmE6Mdvfnyo77I1JaiYGwJKUKVyk7kCEv+unrquObgW+B1xLrMsCeHErSZIkSZKk+sj11/oTI2y/T3mXVHsY2A94COyRSWouBsCSxDvC3w8CPwVWTF1XnUwCziIC7ZcqO72olSRJkiRJUr3l+mzDiamWD09dUzsuAI4iRgTbL5PUNAyAJbW83EXpAOKC9ERg8dR11cmdxJOWV+KoX0mSJEmSJPWBXL9teeAPlHeJtTnA54HTKzvsm0lqBv1TFyBJKeUuRocAXyBG/jZD+DsdOA34EHA5hr+SJEmSJEnqe88DXwGeTV1IDYOB44DNUhciSfXkCGBJLakw5fMI4OtEADw0dW118DAx6vdi4ilGwOBXkiRJkiRJfafQfzsU+BUwMnVdNVyR1fgW2EeT1PgcASyp5RQuPscCPyKe9Gv08Hcu8BdgP2L9EsNfSZIkSZIkJVHoR11ATLPclrquGnYHjqh8UegfSlLDcQSwpJZSuHhbigh/D6Xxj4cTgR8DZwPTKjsNfiVJkiRJkpRSrh+3OPA7ImwtoxeJ5dRuBftqkhpbowcektRphfB3GeDnxEVdo7sJOB74v/xOL1IlSZIkSZJUBrm+3AbAhcCaqWuq4SrgYJwKWlKDcwpoSS2hEP6uDJxF44e/M4DTgI+QC39P3nYFL04lSZIkSZJURvcB3wKmpC6khl2AIytfOBW0pEZlACyp6RUu1FYHzgT2SF1XDz0LfBr4AvBCZafBryRJkiRJksqm0LO6BPgl5VwPeADwOeBdqQuRpJ5wCmhJTa0Q/q5LhL/bpK6rh24Avg7cXtlh8CtJkiRJkqSyy/XqxgPnU971gJ0KWlJDcwSwpKZVJfw9i8YOf2cCpwIHYfgrSZIkSZKkxvUGcDzwROpCatgFOKLyhVNBS2o0BsCSmlKN8Hfr1HX1wAvAscBxwMuVnYa/kiRJkiRJahSFXtb/gO8C01PXVcUA4DPA5qkLkaTucApoSU2nEP5uCvwK2Cp1XT1wO/AV4P8qOwx+JUmSJEmS1Khy/bvBwI+Bz6auqYa/AYcCU8GenKTG4QhgSU2lEP5uDpxL44a/84ALgAMx/JUkSZIkSVKTyPW35gAnATemrqmGPYjl2ACngpbUOAyAJTWNwgXYesAZwIap6+qmKcD3gU8CT1V2Gv5KkiRJkiSpGeT6XC8B3wQmpq6pisHAF4B1UhciSV1hACypKVRZ8/fXxPTPjegZ4GgiAJ5a2Wn4K0mSJEmSpCZ1I/ATYka8slkd+DIwBBwFLKkxGABLanhVwt+zgK1T19VNtwEHE1M/z4cIfg1/JUmSJEmS1GwKPa+zgb+mrqmG/YF9UhchSZ3VL3UBktQThfB3LWLN30YMf9uAS4Cv4JTPkiRJkiRJaiG5Ht+6wMVEn69s7iZC4OfAvp2kcnMEsKSGVQh/VwZ+SWOGv7OAU4BPYPgrSZIkSZKk1vUgcCIwI3UhVWwCHEOWqzgVtKQyMwCW1JAKF1grAGcA70tdVze8QYz6/TrwZmWn4a8kSZIkSZJaRaEXdiFwfuqaavgYsG3qIiSpIwbAkhpOIfydQIye3SV1Xd3wNDHq95fA7MpOw19JkiRJkiS1mlxPbDZwEnBX6pqqWAL4MjAaHAUsqbwMgCU1lMJF1Tjgx8C+qevqhruAQ4h1f9sgLnINfyVJkiRJkiSeAb4LTEldSBU7AwdVvjAEllRGBsCSGtUo4EfAgakL6YZrgY8CN1V2GPxKkiRJkiSp1RV6ZFcBZ6euqYqBwOeAtVIXIkm1GABLahi5p+mGAt8CDgf6pa6rCxYAf8zqfriy0/BXkiRJkiRJCrle2TzgZ8AtqWuqYg3g00QY7ChgSaVjACypIeQuogYCXwI+CwxIXVcXzAFOBT4DvFjZafgrSZIkSZIkLSrXM3sJ+D7wVuqaqjgI2DF1EZJUjQGwpNLLhb/9gE8AXwUGp66rC6YTF6pfJ7tYdb1fSZIkSZIkqVOupZxTQY8BvgiMBUcBSyoXA2BJpVa4cPoI8F1gROq6uuBN4Djgh8DM1MVIkiRJkiRJjSA3eGI+8AvKORX0e4EDK18YAksqCwNgSaVVuGDaFTgZGJe6ri6YSExVfQaxZokjfyVJkiRJkqROaoCpoAcQawGvnroQScozAJZUSoXwd0vg58CyqevqgmeATwJ/BNrA9X4lSZIkSZKkHrgW+E3qIqpYCziaCIMdBSypFAyAJZVO4SJpDeBUYM3UdXXBI8DHgcsrOwx/JUmSJEmSpK4rTAX9c+DO1DVVcTDw7tRFSFKFAbCkMlsaOAXYInUhXXAvcBhwQ2WH4a8kSZIkSZLUfbn+2vPAScDU1DUVLAEcC4wARwFLSs8AWFKp5C6ORgEnArunrqkLbidG/t5e2WH4K0mSJEmSJNXVFcCfUhdRxW7A3qmLkCQwAJZUIrnwdxDwFeCQ1DV1wc3A4cBdlR2Gv5IkSZIkSVJ95Hptc4CfAg+nrqlgKPBZYlZDRwFLSsoAWFIpFC6IjgA+DwxIXVcn3QgcBTxU2WH4K0mSJEmSJPWax4gQeE7qQgq2BD6aughJMgCWlFwh/N0bOAEYnrquTvoH8DEMfyVJkiRJkqReVei7/QW4PHVNBf2AI4E1wVHAktIxAJaUVOEiaHPgx8CSqevqpGuAo4GnKjsMfyVJkiRJkqTek+u/TQNOBl5MXVPB6sAnyPIXQ2BJKRgASyqLFYlpW9ZIXUgnXQN8EnimssPwV5IkSZIkSepTdwJnAm2pCyk4ENgidRGSWpcBsKRkck+/jQZOBN6TuqZOMvyVJEmSJEmSEin04s4GbkldU8FSwKeBIeAoYEl9zwBYUhK5i56BwBeBA1LX1EnXYfgrSZIkSZIkJZXryb1CLCs3NXVNBXsDO6YuQlJrMgCW1OcKT7wdDHweGJC6rk64Gfgshr+SJEmSJElSmVwNXJi6iIJRxCjgxcBRwJL6lgGwpD5VuNDZDvguMDJ1XZ1wM3AU8Ehlh+GvJEmSJEmSlE6uPzcH+DnwVOqaCt4L7JW6CEmtxwBYUiqrAicDy6cupBPuIqZ9fqiyw/BXkiRJkiRJKpUHgDOABakLyRkCHA0sAY4CltR3DIAl9ZncBc5o4HvAFqlr6oR7ifD3gcoOw19JkiRJkiSpHAq9ut8B/0ldU8FWwP6pi5DUWgyAJfWJXPg7ADiWxrjoeYxYp+O/lR2Gv5IkSZIkSVK55Hp2rwGnANNS15QzADiCbCZERwFL6gsGwJJ6XeGi5oPA54kLnzJ7DvgMcFNlh+GvJEmSJEmSVHr/AC5JXUTBhsBHUhchqXUYAEvqSxsTUz+PTl1IB14lRilfW9lh+CtJkiRJkiSVV65/Nxs4FXg+dU05/YDDgVXBUcCSep8BsKRelbuYWRI4EVgjdU0dmAwcB/ytssPwV5IkSZIkSWoodwPnpS6iYE3g4NRFSGoNBsCSek0u/B0EfBXYNXVNHZgJnAD8vrLD8FeSJEmSJElqDIVe3jlEEFwmhwBrg6OAJfUuA2BJvaJwAXMQcFTqmjowD/gJcBqwAAx/JUmSJEmSpAb2AvArYE7qQnJWAQ5NXYSk5mcALKnuCuHvpsC3gBGp62pHG3A2cBIwFwx/JUmSJEmSpEZU6OtdAtyQuqaCDwPrgKOAJfUeA2BJvWkJ4AfAyqkL6cDFwDeB6akLkSRJkiRJktQzuRB4CnAqMDl1TTkrEqOA+4EhsKTeYQAsqa5yFywDgS8AO6euqQP/Br4MvFHZ4ehfSZIkSZIkqWlcD1yauoiCg4ANUxchqXkZAEuqm8LTavsAnyJ7kq2k7gc+Bzxb2WH4K0mSJEmSJDW+XJ9vDnAaMDF1TTnLAoeRZTSOApZUbwbAknrD2sC3gcVSF9KOF4DPA/dVdhj+SpIkSZIkSU3pLuAPqYso2A9YP3URkpqTAbCkusg9pTaKCH/XTV1TOyYDXyOmfwEMfyVJkiRJkqRmk+v5LQDOAR5PXVPOssBHUhchqTkZAEvqscIUJR8HPpi6pnbMAX4EXFDZYfgrSZIkSZIkNadc7+8x4FygLXVNOQcA64DTQEuqLwNgSfW0DfBlYGDqQtpxLnAq8dSf4a8kSZIkSZLUOv4A3JO6iJyVgENSFyGp+RgAS+qR3JNpSwInAMukrqkdV2Y1zgDDX0mSJEmSJKnFvAj8GpiXupCcA4C1wFHAkurHAFhSt+UuSPoDnwXem7qmdtwLfAV4NXUhkiRJkiRJkvpOYSDIxcCtqWvKWYkIgSWpbgyAJdXDrsDRQL/UhdQwETgOeLCyw9G/kiRJkiRJUuvI9QPfAM4AZqeuKedAYBVwFLCk+jAAltQtuQuR5YBvAuNS11TDTOC7wLWVHYa/kiRJkiRJUku7Cvi/1EXkrAHsl7oISc3DAFhSl+XC34HAscBWqWuqoY14mu+8yg7DX0mSJEmSJKk15XqDk4m+4YzUNeUcBCwLjgKW1HMGwJK6pHDxsRdwZOqa2nEl8ENgDhj+SpIkSZIkSXrbP4EbUheRsx7wgdRFSGoOBsCSumtF4BvAYqkLqeFB4KvA66kLkSRJkiRJklQOuUEi04DTgampa8r0Bw4GFgdHAUvqGQNgSZ2Wu+gYAHwW2DR1TTW8AXyNCIEBR/9KkiRJkiRJCrle4b+Ba1PXk7MJsGvqIiQ1PgNgSd2xG3B46iJqmAv8GPh7ZYfhryRJkiRJkqQqZgJnA1NSF5IZDHwUGJW6EEmNzQBYUqfkRv8uA3wdGJO6phr+ApwGtIHhryRJkiRJkqR23Qhcl7qInHcD24LTQEvqPgNgSR3KXWj0B44B3pW6phruAk4g1u8w/JUkSZIkSZJUVa53WLZRwCOItYCHgCGwpO4xAJbUFdsDR6YuooZXgW8AT6YuRJIkSZIkSVJDuZFyrQW8E7EesCR1iwGwpHblnjAbB3wVWCJ1TVXMA34CXFPZ4ehfSZIkSZIkSe0pjAI+h/KMAh4PfATol7oQSY3JAFhSZ30MeG/qImq4GDiz8oXhryRJkiRJkqQuuhG4PnUROXsBa4LTQEvqOgNgSTXlLiw2Bj4DDEhdUxUPAN8BpoLhryRJkiRJkqTOK4wC/i0wI3VNmZWAD6YuQlJjMgCWVFUu/B0GfBFYMXVNVUwGvg08kroQSZIkSZIkSQ3veuBfqYvI2Q+YAI4CltQ1BsCS3qFwMfF+YJ/UNdVwJnBZ5QtH/0qSJEmSJEnqqlxfcToxCnhW6poy6wE7py5CUuMxAJbUnuWALwHDUxdSxb+AU4D5YPgrSZIkSZIkqS6uA25JXURmIPARYCQ4ClhS5xkAS1pE7iKiH3AUsGnqmqqYCHwLeCV1IZIkSZIkSZIaX26AyWTgd8Dc1DVltga2Sl2EpMZiACypli2AI1IXUcU84KfATZUdjv6VJEmSJEmSVEdXA3enLiIzCtgfGJC6EEmNwwBY0ttyo3+HA18AJqSuqYorgLMrXxj+SpIkSZIkSaqHXK/xNeAPQFvqmjK7AWuC00BL6hwDYEnV7A3slbqIKp4Gvg9MAcNfSZIkSZIkSb3mMuCh1EVklgPen7oISY3DAFgSsMiTYxOAY4FhqWsqmAOcRHmmXpEkSZIkSZLUZHKDTp4H/pK6npx9gSXAUcCSOmYALKnoMGL937L5GzHtCuDoX0mSJEmSJEm97iLgmdRFZDYA3pu6CEmNwQBYUv6JsfWBI4F+qWsqeBI4EZgOhr+SJEmSJEmSek+u//gocEXqejKDgf2AIakLkVR+BsBSi8uFvwOBTwErp66pYA7wE+C+1IVIkiRJkiRJailtwJ+AN1IXktmWGMTjNNCS2mUALKliO2D/1EVU8Xfgj5UvHP0rSZIkSZIkqbfl+pB3Af9MXU9mSWCf1EVIKj8DYKmF5Z4SGwl8BhiXuqaC54ipn6eC4a8kSZIkSZKkPjeHGKAyI3UhmT2BCeAoYEm1GQBLAtgL2CV1EQXzgVOJJ+wkSZIkSZIkKZUbgdtTF5FZG9g+dRGSys0AWGpRuafDlgA+DQxNXVPBDcBvKl84+leSJEmSJElSX8r1JCcDfyYGraQ2CNgXGAKOApZUnQGw1IIKFwUHAFumrqngdeBHwJtg+CtJkiRJkiQpuauBR1MXkdkWWDd1EZLKywBYam0rAp8ABqQupOBc4N+pi5AkSZIkSZLU2nKDU54H/pa6nsySxFrAklSVAbDUYgqjfw8F1ktdU8H/gNOBBeDoX0mSJEmSJEml8VfgldRFZPYEFgengZb0TgbAUutamwiAy2Qm8FPgOTD8lSRJkiRJklQq9wPXpy4isx6wdeoiJJWTAbDUQnJPgvUHPg6skrqmgssozzQqkiRJkiRJkpQfqDIX+AsxkCW1YcDelG95P0klYAAstaYNgA+nLqLgReBnwAxw9K8kSZIkSZKkUrqJWMauDHYkG+TjNNCS8gyApdYzADgKWDZ1IQVnA3emLkKSJEmSJEmSinIDVt4ELkldT2ZF4H2pi5BUPgbAUovIPQG2KfDB1PUU3AWcU/nC0b+SJEmSJEmSSuwqoAxDbvsBewLDUxciqVwMgKUWkAt/BxJr/y6ZuqacWcApxBTQhr+SJEmSJEmSSinXu3wcuDZ1PZktgfXAaaAlLWQALLWWd1G+0b//AC5NXYQkSZIkSZIkddJ84GJgeupCgPHArqmLkFQuBsBSk8s99TUYOIK4ICiL14nRv9PB0b+SJEmSJEmSyi3Xw7wd+F/qejK7AeNSFyGpPAyApdaxFbEeRJlcANycughJkiRJkiRJ6qJJwF9TF5FZH9gUnAZaUjAAllrDQOBjlOspsCeBM4npUhz9K0mSJEmSJKnR/AN4PnURwAhg99RFSCoPA2CpieWe9tqE8l0AnAc8DIa/kiRJkiRJkhpHrp/5OHBD6noyOwITUhchqRwMgKUmlQt/BwCHA0umrinnbuB3qYuQJEmSJEmSpB6YB1wKzEpdCLAGsCU4DbQkA2CpFWwMfCB1ETlzgNOBF8HRv5IkSZIkSZIaT66veQvwYOp6gCHAHpj7SMIDgdSUck949QcOBpZKXVPOTcAlqYuQJEmSJEmSpDp4FbgqdRGZ9wDLpS5CUnoGwFJzWxvYN3UROTOA04BJ4OhfSZIkSZIkSU3hSuCN1EUAqwLbgNNAS63OAFhqbgcCy6cuIuca4B+pi5AkSZIkSZKknsoNcLkfuCN1PcBAYFdgQOpCJKVlACw1mdyTXasAH0pdT84k4ExiFLCjfyVJkiRJkiQ1ixnAFUBb6kKArYEVwFHAUiszAJaa1weB1VMXkXMV8O/URUiSJEmSJElSL7geKEPiuiIRAktqYQbAUhPJPdE1AfhI6npyXidG/84BR/9KkiRJkiRJag65XudTwH9S10NMA70LTgMttTQDYKk57Q6sn7qInMuAW1MXIUmSJEmSJEm9ZB5wJTA3dSE4DbTU8gyApSaRO5GPBg4invQqg9eAc4kLIEf/SpIkSZIkSWpWNwFPpC6CCH83T12EpHQMgKXmsz2wVeoici4H7kxdhCRJkiRJkiT1htyglxeBG1LXAwwCdsYMSGpZ/vJLzWUIsfbvsNSFZBz9K0mSJEmSJKlVtAFXAzNTFwK8G1gGnAZaakUGwFITyJ3ANwbel7qeHEf/SpIkSZIkSWoldwKPpC4CWBnYNHURktIwAJaaRz/gAGB86kIyjv6VJEmSJEmS1BJy/c9XgX+mroeYLfK9qYuQlIYBsNTgcqN/VwH2Sl1PzhVko38NfyVJkiRJkiS1kOuA6amLAN4DLAFOAy21GgNgqXnsSYTAZfAW8Huy0b+SJEmSJEmS1EL+RzmmgV4d2CB1EZL63sDUBUiNqIRPS40FPkRMA10G/wBuAUf/SpIkSZIkSWoNJ2+7QqV3/DpwA+nX4B0JbAdc39lvKGHv2x6z1A0GwFKmmye2QcBg4ndpUPZxCDA0+zgse9/w7H1tnfy5s4DZ2funEyNppwNzs21e4fP3AJuk/jvMTAV+B8xJXYgkSZIkSZIkJXId8ClgROI6tgUWA6Z0sQde6XlXtoFEj3t49vVwYkBSpRfeGf2IvvGM7OuZRB+80g+v9L3nZe+bC13r3RsWS6EsowWlPtHJE8UA4qQ1lDgxjgXGAOOAxYHx2TYme30U8STViGyrnBAHECdEcl93VuUkB3Gim5/tmwNMI8Lgqdnnk4jwd7PUf7+ZK4APAzM82UqSJEmSJElqNVkfenHgatL3bV8Hdiampe7PwgFMo4ge9xii970E0fcel+0bnb1nFNH3HsnCAVH9WbT33ZXBhpVeNyza+55L9L2nE33vqcAUov/9Rra9DryZ7Xsre31Wts3v6D9sv1qtxBHAajqdDHkrTyqNJ05sywDLZdsEYGlgSSLgrYS7Q+i7dbOH9fxHJDGLGP07o6c/SJIkSZIkSZIa2OvAv0kfAI8Dvgg8TfS/l8q2MSwc1DSM6H2XfdDgAmKkcCUkngK8CrwMTAReyLaXgNeI0HgG2WyV7WUHhsNqNgbAamidCHsHE08qLQ0sD6ySbSsTJ7vFiRG+I/D3oR5upwvrSUiSJEmSJElSE/sXcAxpB/z0Bw5K/RdRxz/LsGxbvMZ7KsspvkWE8C8Q4fdT2fYc8AowmdwyhtWyBkNhNbKyP80hLaKDwHcYMZp3OWAtYM3s44rEqN7RdH4tAnXdPOBo4Bzw5ChJkiRJkiSpdWW97KWAa4ANU9cjIEYPTyJGDD8LPAI8mn18gRg1PLPWN9vzViNxxKNKq4OwdyAxffOKwHrAOsAGxMjepYgRvX01XbPCg8BVqYuQJEmSJEmSpJJ4FbgZA+CyGMLCKbA3BPYmppWeTowKfhq4D3gIeIAIid8gBj85SlgNxQBYpVMj+B1KTOO8FrARsCkxwnc5YmSvYW96FxFrK3jSkyRJkiRJkiRoI5bMO4JYrlDl0x8YlW2rATsRofBkYlTwo8BdwD3ESOGXgVmVb67kGfbEVTZOAa3kagS+g4lpm9cDtgA2I8LfCaRdL0HVPQPsRpwAPdlJkiRJkiRJanlZ73tF4Dpg9dT1qEdmAhOJHvh/gTuIUcITya0lXGGPXKk5Alh9rkbg249Yv3dtYEvgXcD6wLLE6F+V25XAY+CJTZIkSZIkSZJyXgBuxwC40Q0DVsm23YlRwC8C9wO3ArcR4fBrQFsxB7Fvrr5mAKw+0c60zisAmwPbEiN9VyWmWlDjeAv4EzEthiRJkiRJkiRpofnADcCBuJRhMxlK5BmrAh8ApgBPESODbwTuBJ4jmy46n5EYBqsvGACr19QIfUcRUzlvA+xArOe7DDAgdb3qthuJNRAkSZIkSZIkSe90O7F27DKpC1GvWYzIOzYCPg68RKwb/C/gJmJ08FQwDFbfcA1g1VWN0HcxYi3fHbNtPWB86lpVF3OAw4gRwJ6sJEmSJEmSJCkn65kPAy4Bdktdj5J4g1gv+Ppse4AYMbwI++uqJ0cAq8c6Efq+D9gAGJO6VtXd/cQJS5IkSZIkSZJU3UxiJkUD4NY0Htgu274A3Af8k0IY7Mhg1ZMjgNUt7azpuzawE7ArsDGGvs3ueOAH4AlJkiRJkiRJkopyvfQtgCuBxVPXpNKYBPwP+AdwHfAw2ZrBefbe1R0GwOqSKsFvf2BlYj3fvYCtgCVT16k+8RIR9N8PnoQkSZIkSZIkqZrcNNAXAXukrkel9CpwG3AFsW7w08CC/BvswasrDIDVoRqjfccSYe8+xDTPKxFhsFrH+cRi9vM88UiSJEmSJElSdbke+5HAmdhLV20LgGeI6aH/RoTCbxXfZE9eHXENYNVUJfgdAKwF7AnsDWwEDE9dp5KYAVwIzEtdiCRJkiRJkiQ1iBuIkZ2rpi5EpdUfWCXbDgLuAS4H/g48AsyHhfmNQbBqcQSw3qFK8DsaeDfwQWBnYLnUNSq5/xAPAUzyBCNJkiRJkiRJ7cv67v2JEcBHpq5HDecF4FrgEuBmYHL+Rfv0KnIEsICa0zyvSKxHsB+xQP2I1HWqFNqIk8yk1IVIkiRJkiRJUgNZQIzmPJhYE1jqrOWAw4EDgDuAi4ErgWdh0YzHMFhgANzyqgS/A4H1gA8R6/uuiesRaFFPEycWSZIkSZIkSVLX3AY8AGyeuhA1pBHADsB2wKeJdYIvIv5NzQOnh1ZwCugWVSX4HQZsRcwpvzswIXWNKq3TgM8CCzyBSJIkSZIkSVLn5PryJwDfTl2PmsZE4Crgj8QDBjPzL9rHb02OAG4xVYLfUcCOwCHEUyNjUteoUptMTP+8IHUhkiRJkiRJktSgrgKOARZPXYiawgTg48AHgX8B5wPXA1PBEcGtygC4RVQJfscCuwGHAu/B9QbUObcR6wtIkiRJkiRJkrrnfuB2YI/UhaipjCGW9twV+A/wO+Bq4C0wCG41TgHd5KoEv0sQwe/hwLuAwalrVMOYDxwFnAeeJCRJkiRJkiSpq3I9+yOBM4H+qWtS05oD3AqcSwTBr+dftMff3AyAm1SNEb/7ECeVTYFBqWtUw3mIeHLoefDkIEmSJEmSJEndkfXvVwWuBVZJXY+a3lzgLuDXwGVkI4Ir7PU3J6eAbjI1gt89gCNwxK965goMfyVJkiRJkiSpHp4m1mk1AFZvGwRsBWwCHAacA1yJU0M3NQPgJlEl+B0J7AJ8EtgWg1/1zOvA31IXIUmSJEmSJElNYgFwOXAwMCx1MWoJg4HtiMGC/wHOAP4BTAeD4GbjFNANrkrwOxjYAfgUsBOeOFQffwUOBGaDJwBJkiRJkiRJ6omst784cBWweep61JJmEtOQnwH8i1gz+G3mAI3NxcUbWCH87UecJM4C/gLsjeGv6mMOcCGGv5IkSZIkSZJUT68TAbCUwjDg/USmdBaRMb09cLTKAEQ1EKeAbkBVfulWBY4CPgpMSF2fms79xNM/kiRJkiRJkqT6ugo4hhgNLKUwGjgU2Bn4PREGPwlOC93IHAHcYArh73jgM8AVwHEY/qp3XAq8Ch7kJUmSJEmSJKkecr3W+4HbUtcjERnTcUTm9BkigwIcDdyIHAHcIAq/XIOBXYAvAO8BBqSuT03rJeCy1EVIkiRJkiRJUpOaCVwO7I6D9lQOawOnAPsCPwOuAeY4GrixGACXXJWnKtYHPgfsD4xKXZ/atSDb5mcbhc+rGcTCOfYHEuF+yoD/n8DDCf/7kiRJkiRJktTsbgCeJpZ7bBSVXve87Os2YG4778/3uiuf98fQu6wGANsDmwIXAr8gRqs7LXSD6NfzH6HeUmW658OItQBWTl1bi5oNzCGeyJqcbVOBKcCkwr7pwDTihDc9+z6y753Vzn9jJBECA4wgRnsPB4YCi2WvjwbGZNtixIMAo7LXhmbfP5BFw+TumAEcAPwdPJhLkiRJkiRJUr1lOUB/4EzgyERlzCV62LOIfvcUos89meh9T8o+n5a9NjPbZhN95MrPmNbOf2MoMCz7fDDR/x5E9LVHED3u0Szsfy9W2Dcs+74hif6OWt3TwGnAb4E3KjvNDcrLEcAlVAh+BwA7Al8BtsPpnnvTXOIE9ybwOvAK8GK2vZx9/Vr2+vRsm5F9X2W0b1/pT/xbGEIExMOybSQwljhBjiVOjOOyzysfFyNOqCOy9w9j4Wjj/DHhbuCmPvwzSZIkSZIkSVIrWkBMA30wC0PSeppLhLX/396dh+l+14Xdf5+TPZAQwhJIIOw7CIggIsoiuBRxRYVaq61b1bZaF9SqtVatiltdalWqxUdRrOIK+DytKCCyKZuyyxqWsCVAAtmX54/vTLhzZ845c86Zme89M6/Xdc2VnN9Mcj73nfueXNd5z+f7+1gj3n2oek/jFoAXNv7s+4Nrn/t448+9L2v8efm17fyffR9sxOHT++SfZZ9d3aY6p7pddd7axznVrdc+v74gxda7S/VTjaPKf6p6fnWtbeDVZQN4hWxw3POdqn/f2Pw9e/Z8e8g1jZ9e+kDjf3Jva/z0yjuqd/fJyLu+wXv9sf5GW/FNb4turn6gTx6rcWrjf5zrH2c0wvBiOD67elH1x1v1OAAAAAAAuLGFP/+9dfXc6mHH8K+5trHBe0n1kUbIfc/ax3v7ZOz98NrnL2n82fe1x/B7VSvxZ98H+uQG8XocvmMjVN6lcZz2HRqB+IwsRG6lixubwL9YvWvxE1rC6hCAV8TSN7qTqy+pvq968OzZdrmrG/9De2/1lsb9bN9Yvb3xk00XN36K6YiRd7d949qicLwrHzsAAAAAwG6x8Ge5P1z95w2+ZP3+uh9vHMd8cePPvN+39td3r/31g2uf+2gjCB/unrw3slv+DHiTf+59oLEIdXZ1++qu1X3WPu7Z2By+ZbaFj9erq5+s/qRP3gZz17yW9joBeLINvlnds/ru6imNn1zh6Fza+B/dG6rXVa9tbPi+p0/+VNMh7fdvTBv9z3O/PycAAAAAANtp4c9lP636X2t//97GEtP6Ju+7G4F3fYv3isaxzpuyH/6cdxNx+KTGLRLv0NgQfmB1/+q+jSh8xuzHsAt9vPq96mcaS3g32A+vuVUmAE+09M3olOpJ1fdX95s92y7yscYRA6+tXlH9Q/XWxv8ErzrUP+QbDwAAAAAAq2KtF5zU2FhdvAfvpu6/68+8D+0IYfjkxvHbd68+pXEE9wMbt+i8xezZd5HXVz9R/WELP5jgdTmPADzJ0jecu1ZPrb6mcU9WDu2y6oLG0QIvrV7ZCL4XdYj7FfgGAwAAAADAKjvS9qo/595ah3m+T6hu1QjCD6k+o3GrzvPTb47ksuq3q6c1bsNZee3OIgDvsKVvKidWT6z+U/Wg2bOtqOurDzV+euTF1d82jnb+QHXN8hf7RgIAAAAAABytQ0ThE6tzGkdFf2b1yMYprrdJYzuU11T/pfrzFjqOfrOzvDh30NI3j9tV31V9U+PMeT7pmsY9Df6u+uvGpu9bG2fJ34hvGAAAAAAAwFY7RBC+eWM7+DOqx1QPbdxT+MTZ866YS6pfr362ev/6RU1n5wjAO2CDbxKf1fjph0fPnm2FXFO9s7Hh+3+rlzfu7Xv1Rl/smwQAAAAAALDdDnNc9EmNewV/evX4xobwnRODF72gcQru3yxe1Hi2nwC8zZa+Mdys+vrqe6tzZ8+2Aq5r3M/3xdVfVC+p3t0G9/L1zQAAAAAAAJjtEEH4hOqO1SOqL2gcFX1+dXD2vCvgvdVPVb9ZfWL9ou6zvQTgbbT0TeCu1Q9XT65Onj3bZB9sHOv8nMZPf7wz9/MFAAAAAAB2kcPcN/jOjVNgv7BxXPRtZ8862VXVs6ofqd6+flEH2j4C8DZZetM/vvqv1afNnmuiy6rXVs9tbPu+obpi+Yu82QEAAAAAgN3mEDH41Oq+ja3gJ1QPrE6fPetEf1/9x8atQCtdaLsIwFtsgyOfv7lx5PN+/emOC6q/rP6osfV78fIXeHMDAAAAAAB7xSFi8NmNbeAvqx7XOCJ6P/pg9ZPVrzWWByutaKsJwFto6Q19x+o/V/+i/Xfk8xXVa6pnN455/qeW7uvrjQwAAAAAAOx1G8TgE6p7NI6H/vLqQY1N4f3kqup3Gh3t3esXtaOtIwBvkaU38CMaN7R+5Oy5dtjF1V9Vv1e9sLpo8ZPeuAAAAAAAwH61QQy+VfWo6inVYxtbwvvJixun6L5k/YKWtDUE4OO09GY9oXpy9WONG3zvF++q/qxxA+9XVlcuf4E3LAAAAAAAsN8d4njoU6qHNBrTF1V3mj3nDnpn9YONxnTDabK60vERgI/D0pv0jOo71z7OnD3bDriuemP1v6s/qN5UXb/4Bd6cAAAAAAAAG9sgBh+o7l19RfWV1X2qg7Pn3AGXVD+39nHp+kWd6dgJwMdog/v9/lj11Y0t4L3smuq11W9Xf1zd5LuTNyQAAAAAAMDmHGIr+PzqS6uvqR5YnTh7zm12bfXMxjaw+wIfJwH4GCy9ER/U+ImEx8yea5td0zje+TerP60+sPhJb0AAAAAAAIDjs0EMPqf64upfN46J3ush+K8bp+2+Zv2CBnX0BOCjtPTG+4LqZxsr+HvVYvj9k+qDi5/0pgMAAAAAANhaG4Tg21Zf0v4IwW+svqv6i/ULetTREYCPwsKb7YTqaxvHPt9+9lzb5Prq1dWvN456Fn4BAAAAAAB20CFC8JdW31Q9uL3b+i5sHAf9W43jobWpo7BXXxRbaunNdVr1H6rvq86YPds2eWP1P6tnVe9b/IQ3FwAAAAAAwM7aIASfWz25+ob27km1l1Y/Wf18dfn6Ra3qyATgI1h6Q92y+pHqm6uTZ8+2Dd7d+EmK/1W9ffET3kwAAAAAAABzbRCC71r9q8bJtXecPd82uKr61eo/Vx9Zv6hbHZ4AfBhLb6Lzqp9u/DTFXnvePlr9QfUrLdxUe503EQAAAAAAwGrYIAJXPaj61uorqrNmz7jFrm+cWvs91XvXL+pXh7bXQuaWWXrz3LP6herzZ8+1xa6q/rL6b9ULqqvXP+FNAwAAAAAAsNqWetZJ1aOr76ge1947zfb/rb69esv6BT1rYwLwBpbeLA+ufqn6zNlzbbF/aITfZ1eXLH7CmwUAAAAAAGB32GAj+MzqSY1Y+imz59tif1v9u+rV6xd0rZsSgJcsvUk+s/rlxtr8XvGhxj1+/0f1zsVPeIMAAAAAAADsThuE4DtX39K4R/BtZs+3hV5T/dtGDK40rmUC8IKlN8bjGvH3XrPn2iJXV/+nelr14uq69U94UwAAAAAAAOwNS73rYPXI6qnV5zaOid4L3tyIwH+5fkHv+iQBeM3Sm+GfVb9S3Wn2XFvkrdXPV8+sPrb4CW8GAAAAAACAvWWDbeBbVF9d/Yfq7rPn2yLvqr61et76Bd1rEIC7yZvgSdXPVXecPdcWuLz6g8bW7+sXP+ENAAAAAAAAsLdtEILv19gG/orqtNnzbYF3V99Z/eH6BQ1MAF5+4T+5+m/VObPn2gKvq36y+qNGCK686AEAAAAAAPabpR52WvVl1fdV95892xb4QPUd1bPWL+z3HravA/Aejb9XNI56/qnqnxY/sd9f7AAAAAAAAPvVBtvA96i+t3E09Kmz5ztOIvCCfRuA92j8fXNj6/dZjRBc7e8XOAAAAAAAAJ+01MhObXSy76vuNXu24yQCr9mXAXgPxt+rqz+ufrRx9PMN9usLGwAAAAAAgI1tsA18/+qHqi+tTpo933EQgduHAXgPxt8Lq5+pnl5dun5xP76YAQAAAAAA2LylbnZG9Y3Vd1e3nz3bcdj3EXhfBeClF/ETq19rd7+A/6bx0xgvXLy4317EAAAAAAAAHJsNtoEf1Th19rNmz3YcLqy+ufrz9Qv7qZ/tmwC89OL9gupXq936X/ry6jeqn6jet35xP71wAQAAAAAA2DpLLe3c6vurr69Omz3bMbqg+jfVX6xf2C8tbV8E4KUX7KMa8fRus+c6Rhc0furit6sr1y/ulxcsAAAAAAAA22OpqZ1SfU3jNNrdGqLe1ojYN5ymux+a2p4PwEsv1IdVz6juM3uuY/Q31fdVL1m/sB9epAAAAAAAAOycpb72iOon271HQr+h+rrq79Yv7PW+dnD2ANtp6cV5v+pX2p3x96rG1vJXtxB/AQAAAAAAYJu9pNGofqPRrHab+1b/o9EKqw3ve7yn7NkN4KX/cHepfrN69Oy5jsFFjXv9/o/qsvWLe/0nEwAAAAAAAJhrqbedXn1L497At5o92zF4QfWvq3esX9irvW1PbwCvOaf6+XZn/H1z41zyn0v8BQAAAAAAYActNanLGs3qG6q3zJ7tGDy60QzPmT3IdttzG8BLP4lwZuM/5L+ePdcxeEH13dUr1y8IvwAAAAAAAMyw1OAeUv1Mu3MB8zer/1Bdsn5hrzW4vbwBfEr1A9XXzh7kKF1XPbP6l4m/AAAAAAAArIClVvXKRst6ZqNt7SZf22iIp8weZLvsqQC88JMHBxtnkP/76oTZcx2Fy6ufrr6tevf6RfEXAAAAAACA2Zaa1bsbTeunG41rtzih0RC/pbVWurTdvOvtmSOgl/7DPLn6leqWs+c6ChdV/6X61eqq9YviLwAAAAAAAKtkqcudXP2b6j9Vt5o921H4SCMC//76hb3S5fZEAF56kT2q+q3qTrPnOgoXNO73+4fV9bV3XmAAAAAAAADsTQuN7kD1pMZ9gXdT5HpX4yjrF61f2AuNbtcH4KX4e5/GWeMPnj3XUXh99e3V89cv7IUXFgAAAAAAAHvfUqv7nOoXqvvNnusovKr66upN6xd2e6vbS/cAvm31tHZX/H1540bT4i8AAAAAAAC7zlLben6jfb189lxH4VMbjfG2swfZKrs6AC/8RMGpjXPFv3D2TEfhLxtvgFeuXxB/AQAAAAAA2G2WGtcrGw3sL2fPdRSe2GiNp9ZNtpp3nV0bgJee+G+uvmH2TEfhT6qvr968fkH8BQAAAAAAYLdaal1vbrSwP5k911H4hkZzrHZ3BN61AXjBF1Y/UJ0ye5BNuL763epbqxteNeIvAAAAAAAAu91S87qg0cR+t9HIVt0pjea4m04c3tCB2QMcraXa/oDqWdV9Z8+1Sb9VfVd1UQm/AAAAAAAA7E0LTe9W1c82joXeDd5QPbn6x/ULu63p7eYN4FtXP9HuiL/XVr+a+AsAAAAAAMA+sNDCLmo0sl9tNLNVd99Gg7z17EGO1a4KwAs/KXBS9X3VE2bPtAnXVr9SPTXxFwAAAAAAgH1iKQI/tdHMdkMEfkL1vY0muevuB7xrAvDSE/uU6t/MnmkT1uPvD1SXzh4GAAAAAAAAJrm00cx2SwT+lkaTrHZXBN4V9wBeekIfWv1+dZfZcx3BddV/byn+2v4FAAAAAABgP1lqfWdUP159W6u/rPr26quqv1+/sBta36o/qctuW/1Yqx9/q55R/VDiLwAAAAAAAPvYUiO7tNHQfmv2XJtw10asvu3sQY7GygfghZ8IOLH6nupzZ8+0Cb/VOMf8Y+sXxF8AAAAAAAD2q6VW9rFG99sNEfhz12Y9sXbHUdArH4AXPKn65tlDbMIfNl4EF61fEH8BAAAAAADY75aa2UWNpvbs2XNtwjc3WuWusNL3AF4o6Pev/qC69+yZjuC5jRfAe0v4BQAAAAAAgI0sdMDzql+rnjB7piN4U/UV1etqtTvgym4AL/xHP6NxDviqx98XVt+e+AsAAAAAAACHtdDS3ttobC+cPdMR3LvRLM+o1T4KeiUD8NIT9o3Vl82e6QheVf3b6m2zBwEAAAAAAIBd5m2N1vaq2YMcwZc12mW1uhF45Y6AXnqiPrP639W5s+c6jH+qvq56yfoF278AAAAAAABwZEtt8BHVM6p7zJ7rMN5XfWX1t+sXVq0NruQG8JpbV/+p1Y6/F1bfkfgLAAAAAAAAR22prb2k0d4DSIwnAAA7nUlEQVQunD3XYZzbaJi3nj3IoaxUAF4o/Aeqb6seP3umw7ik+v7qeesXxF8AAAAAAAA4OkuN7XmNBnfJ7LkO4/GNlnmgVu8o6JUJwEtPzKNbeNJW0FXVf61+e/2C+AsAAAAAAADHZqm1/XajxV01e65DWF9mffT6hVWKwCsTgBfcpvrBtb+uqqdXv1hdV+IvAAAAAAAAHK+F5nZdo8U9ffZMh7GyTXMlAvDS0c/fUj1m9kyH8SfVf64uL/EXAAAAAAAAtspCe7u8+pHqz2bPdBiPabTNlToKeiUC8ILPbOFJWkF/X31v9eESfwEAAAAAAGCrLTS4D1XfU71y9kyHsL7c+pmzB1k0PQAvlPCzqu+rbjd7pkN4d/Vd1VtK/AUAAAAAAIDtstDi3tJodO+ePdMh3K7ROG9Rq7EFPDUALz0B/7L6vKnPxqF9vPqh6kWzBwEAAAAAAIB95oWNVvfx2YMcwudVX7v+i9kRePoG8JoHVN9enTh7kA2s32T6mesXbP8CAAAAAADA9lpqcs9sNLvrZs+1gRMbrfMBswepiQF4oXyfUn1nddfZT8Yh/En109U1Jf4CAAAAAADATlloc9c0mt2fzJ7pEO7aaJ6n1Nwt4FXYAH5i9RWzhziE11Y/UH20xF8AAAAAAADYaQuN7qONdvfa2TMdwpOqL5w9xJQAvFC8b9co4Teb/URs4KLqB6s3zR4EAAAAAAAAqEa7+8FGy1s1N6++q9FAp20B73gAXnqgX189fMojP7xrqp+pnrt+wfYvAAAAAAAAzLHU6p5b/Wx17ey5NvDwRgOt5kTgmUdAP7D6purAxBkO5Y+qX6muL/EXAAAAAAAAZltodtdX/7169uyZNnCg0UAfOGuAHQ3AC4X75OrfV6tYVl9f/efqktmDAAAAAAAAABu6pNH0Xj97kA2c32ihJ9fObwHP2gB+XOMmyKvmkuqHqzeuX7D9CwAAAAAAAKthqd29sdH2VnGx80mNJrrjdiwAL5Tts6pvr86c8YCP4FerP13/hfgLAAAAAAAAq2Wp4f1po/GtmjMbTfSs2tkt4BkbwF9WPWbC73skL6h+vrqmxF8AAAAAAABYVQst75pG43vB7Jk28JhGG91ROxKAF4r2edW3VSft9AM9gg9UP1K9v8RfAAAAAAAAWHULTe/91X+pPjh7piUnNdroebVzW8A7vQH8NdWDd/j3PJLrql9oNX8qAAAAAAAAADiyFzSa33WzB1ny4EYj3THbHoAXSva9qq+vDuzkA9yE/1v9+vovbP8CAAAAAADA7rDQ9q6vfq3R/lbJgUYjvVftzBbwTm0Arz+wu+/Q77dZF1Y/Vl1U4i8AAAAAAADsNguN76JG+7tw9kxL7t4OLspuawBeKNgPqp6yEw/oKFxX/XL14tmDAAAAAAAAAFvixY0GuGpHQT+l0Uy3fQt4JzaADzaK9h124Pc6Gi+snr7+C9u/AAAAAAAAsDsttb6nN1rgKrlDo5lue5/dtt9goVw/tHrSdj+Qo3Rx9RPVh2YPAgAAAAAAAGypDzVa4MWzB1nypEY73dYt4O0uzCdW31Sds82/z9H6zer567+w/QsAAAAAAAC721Lze36jCa6Scxrt9MTt/E22JQAvFOuHVV+0nQ/gGLymhXO/xV8AAAAAAADYGxba33WNJvia2TMt+aJGQ922LeAtD8ALg57YOMf61tvz3ByTK6qfrd5V4i8AAAAAAADsNQsN8F3Vzzca4aq4daOhnljbE4G38wjoh7Z627/Pqf549hAAAAAAAADAjnh2oxGuki9q7V7A22FLA/BCoT5Y/YtWa/v3/Y3t30+U7V8AAAAAAADYqxZa4Ceqn6s+MHumBbdutNSDtfVbwNu1Afzg6ku39Wk5es+oXj57CAAAAAAAAGBHvaz6X7OHWPKljaa65bYsAC+U6QPVP69uv+1Py+a9rvr16vqy/QsAAAAAAAB73UITvL7RCl83e6YFt2801QO1tVvA27EBfO/qy3fkadmca6pfqd4xexAAAAAAAABginc0muE1swdZ8OWNtrqltiMAf0V1p21/Ojbvb6rfX/+F7V8AAAAAAADYH5ba4O832uGquFOjrW6pLQnACyvJ51dfuXPPyRFdVv1ydXGJvwAAAAAAALDfLDTCixvt8LLZMy34ykZj3bJjoLd6A/iJ1X129jk5rOdVfzF7CAAAAAAAAGAl/EWjIa6K+zQa65Y57gC8UKLPrp6yFf/OLfKRxjnel5ftXwAAAAAAANivFlrh5Y2G+JHZM6052GisZ9fWbAFvZax9bPWQKU/Lxv6kevHsIQAAAAAAAICV8uJGS1wVD2m01i2xVQH41OrJa39dBR+ofrW6umz/AgAAAAAAwH630AyvbrTED8yeac2WttbjCsALK8ifWj1m6tNyY39cvbLEXwAAAAAAAGBYaIevbDTFVfGYRnM97mOgt2oD+EmtnUu9Aj5Q/a/q2tmDAAAAAAAAACvp2kZTXJUt4LMbzfW4HXMAXijPd66eMPsZWWD7FwAAAAAAANjQCm8BP6HRXo9rC3grNoA/r7r77Gdjje1fAAAAAAAAYDNWbQv47o32elyOKQAvFOczqq841n/PNrD9CwAAAAAAABzWim4BH2y01zPq2LeAjzfcflr10NnPxJoPVc/I9i8AAAAAAACwOddWv1V9ePYgax7aaLDH7HgC8IHqS6ozZz8La55Xvaps/wIAAAAAAACHt7QF/NzZ86w5s/riRos9JkcdgBdWjc+vPn/2M7DmY9VvV1fPHgQAAAAAAADYVa5utMaPzR5kzedXd6xjOwb6eDaAH1PdbfajX/PX1UtmDwEAAAAAAADsSi9pNMdVcPfqscf6Dx9VAF4ozKdUX1SdMPvRV1c0ivzl5fhnAAAAAAAAYHMW2uLl1e802uNsJzRa7Cl19FvAx7oBfN/qEbMf+Zq/a3VqPAAAAAAAALA7/VX197OHWPOIRpM9ascagD+vOmf2o66uq55VfaRs/wIAAAAAAABHZ6ExfqT6vUaDnO2cRpM9ascSgG9RfcHsR7zmLdVzZw8BAAAAAAAA7AnPbTTIVfAFjTZ7VDYdgBfOln7g2scq+LPqXWX7FwAAAAAAADg2C63xXY0GuQpu6LJHcx/gY9kA/ryOoTRvgw9Xz549BAAAAAAAALCnPLvRIme7RcdwDPTRBuBbVY+f/UjXvKB67ewhAAAAAAAAgD3ltY0WuQoe32i0m7apALywUvzg6j6zH2V1VfWH1ZXl+GcAAAAAAADg+Cw0xysbLfKq2TM12uyDa/PHQB/tBvDjq5vPfpTVG6oXzh4CAAAAAAAA2JNe2GiSs928ozyh+WgC8K2qx8x+hGueW72/bP8CAAAAAAAAW2OhPb6/0SRXwWM6imOgjxiAF1aJH1Dde/ajqy6qnjN7CAAAAAAAAGBPe06jTc5270ar3dQx0EezAfzY6ozZj656WePGy7Z/AQAAAAAAgC210CBf22iTs53RaLWbstkAfGb1qNmPrLqu+vPq8tmDAAAAAAAAAHva5Y02ed3sQRqt9szNfOFhA/DCCvG9q/vPflTVBdVfzx4CAAAAAAAA2Bf+utEoZ7tfda868jHQm90A/szq7NmPqvqb6u3l+GcAAAAAAABgeyy0yLc3GuVst6oeuZkv3EwAPqX67NmPqLq6em51zexBAAAAAAAAgH3hmkajvHr2II1me8qRvmgzAfj86sGzH02jrr909hAAAAAAAADAvvLS1k4pnuzBjXZ7WIcMwAtnRz+4Onf2o2mcr/2ecvwzAAAAAAAAsL0WmuR7Gq1ytnNbW9w93H2AN7MB/MjqpMkP5srq/1TXTZ4DAAAAAAAA2F+ua7TKKyfPcVKbuA/wkQLwLauHTX4gVe+s/n72EAAAAAAAAMC+9PeNZjnbwxoN95A2DMALK8P3WPuY7W+r95bjnwEAAAAAAICdsdAm39tolrPd0G8PdQz0kTaAP606e/KDuKZ6fo5/BgAAAAAAAOa4rtEsr5k8x9mNhntIB4/wuYdPfgA1bqr8itlDAAAAAAAAAPvaKxrtcraHd5jOe7gAfNvqwbOnr15VXVCOfwYAAAAAAAB21kKjvKDRLmd7UKPlbugmAXjp/r+rUFxfUF01ewgAAAAAAABgX7uq0S5nu1OHuQ/w4TaAH1idOXn4i6qXTp4BAAAAAAAAoEa7vGjyDGc2Wu6GDh7m+kMnD171xuot5fhnAAAAAAAAYI6FVvmWRsOc7aEdovUeKgDfqvqU2VNXL68umT0EAAAAAAAAQKNdvnz2EI2We6uNPnGjALxwRvSdmn//36uql0yeAQAAAAAAAGDRSxotc6bzG033JvcBPtQG8P2qsyYPfWH12skzAAAAAAAAACx6baNlznRWo+nexKEC8IMO87md8rrqveX+vwAAAAAAAMBcC83yvY2WOdPBRtPd8BPLbtZq3P/376srZg8BAAAAAAAAsOCKRsuc7VMabfdGNgrAt63uMnnYK6q/mzwDAAAAAAAAwEb+rvnLrHdptN0buSEAL9wc+O7VOZOHvbB6Qzn+GQAAAAAAAFgNC+3yDc2/D/A5jba72Ho33AC+T3X65GHfXL1/8gwAAAAAAAAAG3l/o2nOdHqj7d7IcgA+UN1/8qBVr64unz0EAAAAAAAAwAYubzTN2e7XaLw3WA7Ap1f3mjzkNdWrJs8AAAAAAAAAcDivarTNme7V0unOywH4ttUdJw95UWvr0u7/CwAAAAAAAKyShYb55kbbnOn8RuO9wXIAvkN1m8lDXlC9Z/IMAAAAAAAAAIfznkbbnOk2jcZ7g4NVT33RDXPdo6UV4QneWF0yeQYAAAAAAACAw7mk0TZnOr3ReG9ovssbwPfc4NpO+8fq2skzAAAAAAAAABzOtY22OdPBRuO90YV1J1V3mzzgldXrJ88AAAAAAAAAsBmvbzTOme7WaL3VjQPwzau7TB7uoupddaObJwMAAAAAAACsjIWW+a5G45zpLo3WW904AN+muu3k4d5XXTh5BgAAAAAAAIDNuLDROGe6baP1VjcOwLevzp483FurSyfPAAAAAAAAALAZlzYa50xnV7db/8XBp77ogvW/P786bfJwb6mumTwDAAAAAAAAwGZc02icM51W3anqqS+64EYbwHfuxhvBO+3a5tdxAAAAAAAAgKPx1kbrnOVgo/Xe8IuqA40N4Jkuq95eN7ppMgAAAAAAAMDKWWiab2+0zpnObzTfGwLwqdUdJw/14cZNkgEAAAAAAAB2iwsbrXOmOzaa7w0B+PTq9pOH+mB10eQZAAAAAAAAAI7GRY3WOdPtG833hgB8dnXLyUNd0PzVaAAAAAAAAICjcVmjdc50y0bzvSEA37o6c/JQ76qunjwDAAAAAAAAwNG4utE6Zzqz0XxvFIBvNnmo2VUcAAAAAAAA4FjMbp03aykAn1udOHGgq6r3TH5SAAAAAAAAAI7FexrNc5YTG833hgB8u8lPyBXV+6qe9tnnTx4FAAAAAAAA4MgW2ub7Gs1zptvVJwPwOZOH+Vh18eQZAAAAAAAAAI7FxY3mOdM5NQLwya2dB73PnxAAAAAAAACAY3FJ9ZHJM9y6OvlgdWp19uRhLq4unTwDAAAAAAAAwLG4pLpo8gxnV6cerE6pbjl5mA8296bIAAAAAAAAAMfqqkbznOmW1SkHq5tVt5g8zAerayfPAAAAAAAAAHAsrm1+AL5FdbOD1VnVaZOHmf1kAAAAAAAAAByP2c3ztOqs9QB8yuRhPjz59wcAAAAAAAA4HrOb5ymtBeAzq1MnDnJ19ZHJTwYAAAAAAADA8fhIo33Ocmp15sHqjOrkiYNcXX206mmfff7EMQAAAAAAAACOzkLj/GhzA/DJ1RnrR0CfMHGQq6uPTfz9AQAAAAAAAI7Xx5obgE9o4QjoAxMHubq6ZOLvDwAAAAAAAHC8LmluAD7Q2hHQZzU3AF9WXTHx9wcAAAAAAAA4Xlc02ucsB1rbAL755CfisurKyTMAAAAAAAAAHI+rqssnz3DzVQjAVzR3FRoAAAAAAADgeAnAa2wAAwAAAAAAALvdlc09ArrWAvDpk4e4urp28gwAAAAAAAAAx+Pa5p98fPrB6qTJQ9gABgAAAAAAAHa7VdgAPmkVjoC+trpu8gwAAAAAAAAAx+O65p98fPOD1YHJQ8xegwYAAAAAAADYCrPb54GDs5+B6pJsAAMAAAAAAAC723WN9jnVwerkyTNcP/tJAAAAAAAAANgCs9vnStwDePYR1AAAAAAAAABbYXb7vPkqHAENAAAAAAAAwPFbiXsAAwAAAAAAALAFBGAAAAAAAACAPUIABgAAAAAAANgjDlbXzR4CAAAAAAAAgON27cHqkslDXD/7WQAAAAAAAADYArPb56WrsAF8wuTfHwAAAAAAAOB4HahOnDzDdatwD+Bb5F7EAAAAAAAAwO52oDpz9hCrsAEs/gIAAAAAAAB7wez2uRL3AD65+avQAAAAAAAAAMfjxEb7nGkl7gF8anXS5BkAAAAAAAAAjsfJjfY503WrsgEsAAMAAAAAAAC72YnVKZNnuORgdfnkIU5r/io0AAAAAAAAwPFYhQ3gyw9WH5s8xOkJwAAAAAAAAMDudnKjfc70sYPVJyYPcXrzV6EBAAAAAAAAjscpzQ/AnzhYfbS6buIQp619AAAAAAAAAOxWs7vnddVHD1YfmfxEnFTdYvIMAAAAAAAAAMfjFo32OdNHD1aXVtdMHEIABgAAAAAAAHa72QH46tbuAXxJdeXEQU6qbln11BddMHEMAAAAAAAAgKOz0Dhv2dwAfGV1ycHqY9UVEwc5oTp74u8PAAAAAAAAcLzObrTPWW4IwB9tbgCuuvXk3x8AAAAAAADgeMxunle0dg/gj1WXTx7mNtWByTMAAAAAAAAAHIsDjeY50+Wt3QP48sYW8Ey3a+46NAAAAAAAAMCxOqHRPGf6aHX5wcZZ0BdPHuY21amTZwAAAAAAAAA4Fqc2fwP44urKg42zoGcH4FtWZ06eAQAAAAAAAOBYnNlonjNdXF1xsLqm+tDkYQRgAAAAAAAAYLdahQD8oeqag2u/+ODkYc5o/ko0AAAAAAAAwLG4TaN5zvT+qvUA/L7q+onDnFKdV/XUF10w92kBAAAAAAAA2ISFtnleo3nOcn1LAfjC6uqJA51U3WHi7w8AAAAAAABwrO7QaJ6zXN1ovjcE4A9Xl05+Us6f/PsDAAAAAAAAHIvZrfPSRvO9UQC+ZPJQd65OnjwDAAAAAAAAwNE4udE6Z7qkpQD8seriyUPdofk3RgYAAAAAAAA4Gmc0/3a3Fzea7w0B+PLqvZOHum11m8kzAAAAAAAAAByN2zRa50zvbTTfGwLwldV7Jg91y+rcqqe+6ILJowAAAAAAAAAc2kLTPLfROmd6T6P53hCAq941eajTqrtNngEAAAAAAADgaNyt0TpnuqH1HnzaZ5+//vdvr66ZONSB6p4Tf38AAAAAAACAo3XPRuuc5ZpG6+1pn33+jTaA31N9YuJgVfeoTp48AwAAAAAAAMBmnNxonDN9ooXb/S4G4PdXF00e7q7VWZNnAAAAAAAAANiMsxqNc6aLGq23unEAvtEnJrl9dd7kGQAAAAAAAAA247xG45zpRou+iwH4stbOhp7orOruVU990QWTRwEAAAAAAAC4qYWWeffmn3D89kbrrW4cgK+t/mnycCdWD5g8AwAAAAAAAMBmPKDROGf6p0brrW4cgKveUl0zecD7VCdNngEAAAAAAADgcE5qtM2Zrmk03hscrHraZ5+//uu3VR+fPOS9q7MnzwAAAAAAAABwOGc32uZMH2803hua7/IG8PsaNwme6bzqTpNnAAAAAAAAADicOzXa5kzvbzTeGywH4Iuqd0we8hbVfetGN08GAAAAAAAAmG6hYd630TZnekej8d5gOQBfUb1x8pAHq0+bPAMAAAAAAADA4XxaN+2tO+0NjcZ7g40GemN1/eRBH1idOXkGAAAAAAAAgI2c2WiaM11XvX754kYB+PXVJZOHvVt1h8kzAAAAAAAAAGzkDo2mOdOl1ZuWL94QgJ/22eev/+0F1YWTh71Ndf9yH2AAAAAAAABgNSy0y/s3muZMFzba7mLr3XAD+EPVWycPe2L1sMkzAAAAAAAAAGzkYY2mOdM/NdrujWwUgK+qXjt52BpPmvsAAwAAAAAAAKvkzFZjmfW1jbZ7IwcP88VXTx74ntWdyjHQAAAAAAAAwFwLzfJOjZY509UdYqn3UAH4DdVFk4e+TfWQyTMAAAAAAAAALHpI8+//e1H1xo0+caMAvHBz4Hc3/z7AB6tHVgcmzwEAAAAAAABQo10+skMv2u6Utzaa7mLjrcMMdkn1D5OHrvq01uq5Y6ABAAAAAACAGRZa5W0aDXO2f2g03Zs4XJl+RXXd5MHvVt1v8gwAAAAAAAAANdrl3SbPcF2j5W7ocAH4tc2/D/DNGyvUAAAAAAAAALM9stEwZ7qo0XI3dJMAvHBG9Dubfx/gqkdVN5s9BAAAAAAAALCv3azRLmd7a6Pl3uT+v3X4DeCPVq+ePX31gOru5T7AAAAAAAAAwM5aaJR3b7TL2V7daLkbOniEf/il1bWTH8Btcgw0AAAAAAAAMNcjG+1ypmsbDfeQjhSAX1V9cPKDOFA9tjp58hwAAAAAAADA/nRyo1kemDzHBxsN95A2DMALZ0W/q3rD5AdR9bDqbuUYaAAAAAAAAGBnLLTJuzWa5WyvbzTcDe//W0feAP5E9bLZj6I6t/qs2UMAAAAAAAAA+9JnNZrlbC9rNNxDOlIArvqb6vLJD+Rg9XnVKZPnAAAAAAAAAPaXUxqtcjNtdTtdXr34SF90yCEXVob/sXrn5AdTY6X6ruUYaAAAAAAAAGB7LTTJu7Yaxz+/s9FuD3n8c22uUn+gesXsR1OdVz1m9hAAAAAAAADAvvKYRquc7RWNdntYmwnA11YvqK6b/IAOVF9QnTZ5DgAAAAAAAGB/OK3RKA9MnuO6RrO99khfeNgAvLA6/PLqwskPqurTq/uVY6ABAAAAAACA7bHQIu/XaJSzXdhotoc9/rk2f6Pid1Svmv2oqttUnz97CAAAAAAAAGBf+PxGo5ztVY1me0SbDcBXVH81+1GteUJ19uwhAAAAAAAAgD3t7EabXAV/1Wi2R7TZAFz1oupDsx9Z9SnVw8sx0AAAAAAAAMDWWmiQD2+0ydk+1Gi1m3LEALxwhvSbq9fMfnTV6dUXb2Z2AAAAAAAAgGNwsNEkT589SPXqRqs94v1/1wffrE+0OsdAP766W9kCBgAAAAAAALbGQnu8W6NJroK/brTaTTnaLdq/qi6a/QirOzduuAwAAAAAAACw1T6/0SRnu6ijXNLdVABeWCV+ffX3sx9ldaD68uoWZQsYAAAAAAAAOD4LzfEWjRZ5YPZMjTb7utrc8c919BvAn6j+z+xHuebTqkfMHgIAAAAAAADYUx7RaJGr4P9Ulx3NP3C0Abjq+dX7Zz/S6mbVV1Ynli1gAAAAAAAA4NgstMYTGw3yZrNnajTZ5x/tP7TpALywUvym6mWzH+2az63uO3sIAAAAAAAAYE+4b6NBroKXNdrspo9/rmPbAL6yek513exHXJ3bOH8bAAAAAAAA4Hg9qdEgZ7uu0WSvPNp/8FgCcNULqnfOftRrvry6YzkGGgAAAAAAADg6C43xjtWXzZ5nzTsbTfaoHVUAXlgtfkf1V7Mf9Zr7VE+cPQQAAAAAAACwqz2x0R5XwV81muxRHf9cx74BfF31p9Xlsx/52mP46upWZQsYAAAAAAAA2JyFtnirRnM81n66lS5vtNhjuiXv8TyAl1X/OPvRr3lIq3MzZgAAAAAAAGB3+dxGc1wF/9hoscfkqAPwworxh6s/n/3o15xS/cvqjLIFDAAAAAAAABzeQlM8o9EaT5k905o/b7TYoz7+uY5/hfk51ftnPwNrPrt67OwhAAAAAAAAgF3lsY3WuAre32iwx+x4A/AbqhfOfhbWnF59bXVa2QIGAAAAAAAANrbQEk9rNMbTZ8+05oWNBnvMjikAL6waX1X9QXXl7GdizeOqR88eAgAAAAAAANgVHt1ojKvgykZ7vaqO7fjnOv4N4BoV+rWzn401Z1TfkC1gAAAAAAAAYANL27/f0GiMq+C1bcHpy8ccgBeK84erP5r9bCx4fLaAAQAAAAAAgMN7dKMtroo/arTXY97+ra3ZAK76s+pds5+RNWdU39jaOd22gAEAAAAAAIC6UTs8vdEUV2X7912N5nrcjisAL5TnN1fPm/uc3Mjnrn0AAAAAAAAALFu1nvi8RnM9ru3f2roN4Ouq368+OvNZWXCz6purM8sWMAAAAAAAAOx3C83wzEZLvNnsmdZ8tNFar9uKf9lxB+CFAv2K6gWTnpSNPKZ64uwhAAAAAAAAgJXyxEZLXBUvaLTW497+ra3bAK66vPqd6ooZz8oGTqm+tbpN2QIGAAAAAACA/WqhFd620RBPmT3TmisajfXyrfoXbmUArvqr1ur0ivj06snrvxCBAQAAAAAAYH9ZaoRPbjTEVfGKRmPdMlsSgBdWkT9SPbO6dkeflkM7ofo31V1nDwIAAAAAAABMddfGvX9PmD3ImmsbbfUjtTXHP9fWbwBXPaf6xx17Wo7svtU3VAfKFjAAAAAAAADsFwtt8ECjGd539kwL/qH6863+l25ZAF4o0u9rlOrrd+Rp2ZyvrR46ewgAAAAAAABgioc2muGquL7RVC+srdv+re3ZAK76w+ot2/60bN651bdXp5YtYAAAAAAAANjrFprgqY1WeO7smRa8pXr2dvyLtzQAL5TpdzaK9Sr5kuoLZw8BAAAAAAAA7KgvarTCVfLMRlPd0u3f2r4N4KrfbbW2gE+vvrO6XdkCBgAAAAAAgL1qoQXervqORitcFW9ptNRtseUBeKFQv636ne0a/Bg9vPrG9V+IwAAAAAAAALC3LDXAb2w0wlXyO42WuuXbv7W9G8C1elvAB6pvbtzkGQAAAAAAANi7HtpogwdmD7JgW7d/a5sC8IpvAZ9XPbW6edkCBgAAAAAAgL1iof3dvNEEz5s905Jt3f6t7d8ArtXbAq5xo+evWv+FCAwAAAAAAAC721Lz+6pGE1wl2779W9sYgJe2gJ9RXb/dD+YonFx9d3Wv2YMAAAAAAAAAW+pejRZ48uxBFlzfaKbbuv1bO7MBXGOV+XU79Htt1r2r76lOKVvAAAAAAAAAsFsttL5TGg3w3rNnWvK6dujWudsagBfK9burp1fX7sSDOgpPqZ60/gsRGAAAAAAAAHaXpcb3pEYDXCXXNlrpu2t7t39r5zaAq36/esUO/n6bcXr1/dU9Zw8CAAAAAAAAHJd7Ntrf6bMHWfKKRivdEdsegBcK9gerX6mu3KkHt0n3q763OrVsAQMAAAAAAMBusdD2Tm00v/vNnmnJlY1G+sHa/u3f2tkN4Ko/q/5qh3/PzXhKC6vgIjAAAAAAAACstqWmd6Pet0L+svrTnfwNdyQAL5TsS6pfrD66kw9yE05rrIM/YPYgAAAAAAAAwFF5QKP1nTZ7kCUfq36purR2Zvu3dn4DuMYG8B9N+H2P5B7VD1e3KFvAAAAAAAAAsKoWWt4tGo3vHrNn2sCzq7/e6d90xwLwQtG+qvrl6t07/WA34Yurb17/hQgMAAAAAAAAq2Wp4X1zo/Gtmnc3muhVtXPbvzVnA7jq1dVvTPq9D+fE6ruqx61fEIEBAAAAAABgNSy1u8c12t6Js+fawG80muiO29EAvFS2f6N65YwHfQS3rX6sutPsQQAAAAAAAIAN3anR9G47e5ANvLKFZdid3P6teRvAVe+pfqG6YuIMh/LpjbPCTy9bwAAAAAAAADDbQrM7vdHyPn32TBu4otFA3zNrgB0PwEuF+4+q58x68Efw1dU3rv9CBAYAAAAAAIA5llrdNzZa3ip6TqOBVju//Vt1YNYjX/iP9OlrT8K5s2Y5jA9UX1P93/ULM/4jAQAAAAAAwH61FH8fX/12dc7suTbwvurLqpfXvK448wjodS+vnj57iEM4p/rJ6p6zBwEAAAAAAID9Zin+3rPR7lYx/tZoni+fPcS0ALxUvH+teunsJ+MQPrVxA+mzylHQAAAAAAAAMMEtqx9vtLtV9NJG86zmnio8dQN44YFfWP1UdcnMeQ7jy6vvqU4sERgAAAAAAAC220KTO6l6auN45VV0SaN1Xljzbym7CkdAr3te9czZQxzCwerbq3+5fkEEBgAAAAAAgO2x1OK+pvp3rVbbXPTMRutcCQdmD1A3+g949+qPq/vPnukQ3lt9bfX89QuzCz4AAAAAAADsJUvx93HVM6rzZs91CK+rvrR6a61GO1yJSr7wRLy1sR592eyZDuG86mdbCNQ2gQEAAAAAAGBrLLW3+zfa3KrG38sabXNl4m+tSABe8ofVs2YPcRgPrH6uhReaCAwAAAAAAADHZ6m5nddocp8ye67DeFajba6UlQnAC0X8iupp1etnz3QYj6/+a3Xm7EEAAAAAAABgjzmz0eIeP3uQw3h9o2leUauz/VsrFICXvLn6yery2YMcxr+o/mN1ctkCBgAAAAAAgGO10NpObjS4fzF7psO4rNEy3zx7kI2sVABeKuN/WP3O7JkO42D17dW3rf29CAwAAAAAAABHaaGxHWy0t29vxTrmkt+p/mD9F6u0/Vt1YPYAG1n4j3zX6tnVg2bPdBgfbbwI/5/1C6v2HxkAAAAAAABW0dKC5b+sfqE6a/Zch/Ga6surt9dqdsGVLOcLT9Tbqx+pPjZ7psM4q/qp6ovWL9gEBgAAAAAAgMNbampf1GhuZ82e6zA+1miXKxt/a0UD8JI/r35t9hBHcLvqv1WPXr8gAgMAAAAAAMDGllraYxqbv7ebPdcR/FqjXa60lTwCet3Cf/jbVs+sHjd7piN4Y/V11SvWL6xq+QcAAAAAAIAZluLvw6pnVPeZPdcR/GX11dUHa7Ub4EoH4LrRC+Dh1e9Xq/tsDq+uvqF61fqFVX4BAAAAAAAAwE5Zir+fWv3P6sGz5zqCC6qvql5Wq9/+dsMR0OteVv1EdcXsQY7gwdUvV/dev+A4aAAAAAAAAPa7pWZ270ZTW/X4e0WjUb5s9iCbtfIBeKmgP6P6rdkzbcJnVL+eCAwAAAAAAAAbxd9fbzS1VfdbjUZZrf72b+2CI6DXLbwo7lD9XvXI2TNtwt9U31S9af3CbnhRAAAAAAAAwFY5RPz9rNlzbcKLq6dU76nd0/lWfgN4A++p/uPaX1fdZ2UTGAAAAAAAgH1qF8ff3dQkb2TXBOClov431Y9Wl8+eaxNEYAAAAAAAAPadXRx/L2+0yL9Zv7Bbtn9rFwXg2vB+wL8+e6ZN+qzq6dV91i+IwAAAAAAAAOxVSy3sPo1Wthvib40G+Yz1X+ym+Fu76B7AixZeMLdt3Hj582fPtEl/W31r9Q/rF3bbCwYAAAAAAAAOZyn+PrD679Vnzp5rk55X/avqg7U7W96uDMB1oxfOp1S/V9139kyb9Orqm6q/X7+wG184AAAAAAAAsGwp/n5aY5v2wbPn2qQ3VE9pbZlztza8XXUE9CH8Q/W91YdmD7JJD25sLT9q/YLjoAEAAAAAANjtlprXoxpNbLfE3w81muM/HO+/aLZdG4CXivtzqv/SuCHzbnDf6jeqJ6xfEIEBAAAAAADYrZZa1xMaLWy3nOB7eaM1Pmf9wm7d/q1dfAT0uoUX0ynVT1TfsYse1/uqp1a/W12/fnE3v6AAAAAAAADYP5bC74Hqn1dPq86dPdsmXV/9fPUfqytr97e6XbsBvG7hP8CV1Y9XfzR7pqNwbvVL1b+rTpo9DAAAAAAAAByjkxrN65faPfG36tmNxrgn4m/tnk3ZI1r46YK7Vr9dPWL2TEfhssZPFvxUdWntjRcXAAAAAAAAe9dCnzujcf/c/1CdPnuuo/C31ddU76i90+dOnD3ANnh79e3V71T3mj3MJp3eeFOcU/1g9YH1N8xeeaEBAAAAAACwNywd+3xO9WPV17W72uObG7eWfcfsQbbantkArpu82P5Z9T+r28+e6yg9r/qu6k3rF0RgAAAAAAAAVsFSj7t39bONLrebXFh9Q6PLVXurx+36ewAvWvoP87zGzZovmT3XUfpnje3lz16/sPRGAgAAAAAAgB231Kw+u9G0dlv8vaTREPdk/K09tgG8buHFd0LjrPEfrU6dPddRuqD6gepZ1TXrF/faCxAAAAAAAIDVthR+T6yeUv14dcfZsx2lK6ofqn6+urb2ZnvbUxvA6xb+Q11b/VL1i2t/v5ucX/33xk8gnLl+0TYwAAAAAAAAO2WpTZ3ZaFe/3O6Lv9dWv9Boh3s2/tYe3QBet/CCPKNx/vg37MLHfE31+42fRrjhJtR79QUJAAAAAADAaliKv3dpnLr7VY0t4N3k+urp1XdXl9bebm27LYYetYUX5q0aG7VfNXumY/Sy6nurF61f2MsvTAAAAAAAAObZ4H6/P1U9fPZcx+j3q2+rLqq939h2W50/HhdV31ndrPrC2cMcg4dXz6x+rHpGdeX6G2+vv0gBAAAAAADYGUvh95Tq66ofrO4we7Zj9JxGI7xo9iA7Zc9vANeG6+m/Xj1u9lzH6PLqN6qfqN63flEEBgAAAAAA4HgsNbVzq++vvr46bfZsx+gvq29qn91mdV8E4LrJC/be1W9WnzF7ruPwwsZ9gf9m8eJ+eNECAAAAAACwdZY6WtVnNe73+6jZsx2Hl1b/unrT+oX90tH2TQCum7x479/YBN7NEfi91U82YvZl6xf3y4sXAAAAAACA47PUz05vRNPvq86bPdtxeGlj8/d16xf2Uz/bVwG4bvIifmDjfroPmj3XcbiqcePqH6vesn5xP72IAQAAAAAAOHpL3exe1Q9UX1WdPHu24/Cqxn2L/3H9wn7rZvsuANdNXsyfXj29esDsuY7T66r/Uv1JdfX6xf32ggYAAAAAAODwllrZSdWXNm49ev/Zsx2nf6y+sXr5+oX92Mr2ZQCuDSPwr1efMnuu43RpY6P5Z6obPcD9+OIGAAAAAADgkza41+/51Xc3NmbPmD3fcfqHxrHP+zr+1j4OwLVnI3DVKxpHQv9Fdc36xf36IgcAAAAAANjvlrrYidUXVD9YPWz2bFtA/F2wrwNw3eTF/uDqV6qHz55rC3y0sQ38C9U71y/u5xc7AAAAAADAfrTUw+5UfWf1tdUtZs+2BV5WfWv16vUL+72H7fsAXDd50d+/sQn8GbPn2iKvrn6qcW/gK9cv7vcXPgAAAAAAwF631MBOqb6k+t7GUuRe8NLG5u/r1i9oYALwDZbeAPetfql67Oy5tsgnqv9d/Wz1+sVPeBMAAAAAAADsLRvc6/d+1XdVX1ndbPZ8W+Svqn9XvWH9gu41CMALlt4Md61+uXH++V7xtuoXq9+uPrL4CW8IAAAAAACA3W2D8HvL6muqf1/dbfZ8W+gvqn9bvX39gtb1SQLwkqU3xnnVz1dfMXuuLXRt4ycifrZ6fnXN+ie8MQAAAAAAAHanpcZ1YvU5ja3fx1YnzJ5vC/1B9R+q965f0LhuTADewNIb5NbVT1Zf1956c3y0+r3GlvMbFj/hTQIAAAAAALA7bLD1e9/GduxTqrNmz7eFrq2eUX1f9eH1i7rWTQnAh7D0Zjmz+qHGOeKnzJ5ti72t+rXGsdDvX/yENwwAAAAAAMBq2iD83q5x3PM3t7eOe666svql6kerS9YvalkbE4APY+mNc2pjnfz7qzNmz7bFrq/+rvHG+dPq0sVPevMAAAAAAACshg3C7xnVFzcWGR/a3ut/l1Y/0bht6xXrF/WrQ9trL4BtsfBGOqFxFPSPV+fMnmsbXNm4P/Avr/3VmwgAAAAAAGBFbLC8+NjGcc+Pbe+dYlv1geoHGkc/X1ua1WYIwJu09IZ6YvVz1d1nz7VNLq2e2zga+sXVNeuf8KYCAAAAAADYWUud6sTqkY2jnp/Q3ju5dt0/Vd9V/fn6BZ1qcwTgo7D05vqMxqr5p8+eaxtd3DgS+jeqV1RXL37SmwwAAAAAAGB7bHDU80nVw6qvbxz5fPbsGbfRy6vvqF62fkGX2jwB+CgtvdnuUf104022l3248dMVQjAAAAAAAMA2OkL4fWJ169kzbrM/rb6nsQFcaVFHSwA+BktvvFtXP1x9Y3vzbPVFiyH476qrFj/pzQcAAAAAAHBsNgi/J1cPbf+E3yurp1c/0mhSlf50LATgY7T0Jjyt+pbGTaj38rr9uouq/6/6rcY9gi9b/KQ3IgAAAAAAwOZsEH5Pb9zj92urz6tuNXvGHXBx9ePV/6guX7+oOR0bAfg4LL0hD1RfUv1Eda/Zs+2QS6sXVL9dPb/x5rwRb0wAAAAAAIAb2yD61lgy/Jzqa6pHV2fMnnOHvLn6/upPquvXL2pMx04A3gJLb9IHN+4L/Dmz59pBVzaOhH5W9ZzqXctf4E0KAAAAAADsd4cIv3eqvrB6cuPI571+y9FFz2/c7/fV6xc0peMnAG+RpTfs7av/VP2r9teb9LrqLY2bcz+7+odGHL6BNy0AAAAAALDfbBB+T6k+pfry6oure1YHZ8+5g66sfrP60erC9Ys60tYQgLfQ0pv31OqbGivrt5s92wQfql5Y/cHaXz+w/AXexAAAAAAAwF51iG3fc6pHVV+x9tfbzJ5zgvc3bqn669UV6xd1o60jAG+DpTf04xov4k+bPdckV1Wvq/68cTz061p4M6/zpgYAAAAAAHa7Q0TfU6v7N455fuLa3588e9ZJ/r6xPPmX6xc0oq0nAG+TpTf43aofrr6q/fuGrrEV/JLqz6oXVO9sHBt9I97oAAAAAADAbnGI6HuwunP16OqLqke0P7d9111V/X71I9Xb1i9qQttDAN5GS2/4m1XfUH1v4x7B+9m11TsaEfi51ctbON99kTc+AAAAAACwag4RfWs0oE+vntCIv3epTpg972QXVj9V/c/qE+sXNaDtIwBvsw2+ATyq+rHqkbNnWxFXVm+pnl/93+qVbXC/4PKNAAAAAAAAmOcw0fec6iHV46vPqe5ZnTJ73hXx4uoHqxcuXtR8tpcAvEOWvimcV31P9fXVzWfPtkIur97c+Gbw/EYMfl9jY/gmfHMAAAAAAAC2y2GC7wnVuY3o+zmNpb97VafNnnmFfLz6jeqnq/euX9R2doYAvIOWvlGcVD2p+qHqPrNnW0FXNu4R/PLGUdEvbxwbffnyF/pmAQAAAAAAbJVDhN/TGsc5f3rjaOdPb9zj16bvTb2x+tHqD6ur1y/qOTtHAJ5g6RvHvRur70/KN4lDua56f/UP1UvWPt7YOCr6JtvBvoEAAAAAAACbdYjge0LjaOf7VI9Y+/iU6nbVwdkzr6grG9H3x6o3rV/UbXaeADzJ0jeTm1X/vHpqdffZs+0Cn6guqF7TiMGvqt5aXVxds9E/4JsLAAAAAABwmGOdT6zObnSaT20E3wdV5zc6Dof31upp1e82Ok6lz8wiAE+29I3mgY1t4CdmG/hofKx6V/W6xn2DX1O9rfpgGxwZvcg3HgAAAAAA2HsOE3rXnVbdtrpbI/Q+pLp/dafqFrPn30WurP68sfX72vWL+stcAvAKWPomdPPGNvB3V/eYPdsu9YnGkdH/VP1jIwy/sXGT8YurK470L/CNCQAAAAAAVt8mQm/VqY3t3vMaRzrfv3pAo8PcLhu+x+qfqp9pbP1+fP2ixjKfALwiNvgGdf/qexr3Bj599ny73HWNLeH3V++o3rz28dbq3dWHq0tbuBH5kfjmBQAAAAAA22+TgXfdSdUZ1a2rOzaOc77X2sddGrH3FrmH7/G6rHGv359uLOHdQD9ZDQLwiln6RnZa9aWNEPyg2bPtMdc3joe+qHFU9Lurt1fvXPv796597mONOHxNIyTvGb4JAwAAAACwHY4y2h6Ng4179Z7RCLnrW73nV3eu7toIv7etbtXoLFrY1npNI/z+cQu34dQcVosX/Qra4Bvjnat/W31d4xsW2+vKxjetjza2gy+qLqze14jFH2ocJX1xIxBf3jhW+orqqrWP69c+AAAAAACAjR1Y+zh57ePUtY/T+mTgPbu6TSPq3n7t49ZrH2etfe0psx/IPnBR9YzqlxvLdDcQf1ePALzClkLwCdWjGvcGfnzjJ1yY49pGJL5q7a+XNs62/3jj2IPLq0vWPvexta//RAs/CTPJgYV5AQAAAABgu53ZCLvrC1OnNe63e0Ij8J6y9jWnNW6HefO1jzPWPnfy2l9PmP1A9rFrqv/buNfvCxvNoxJ+V5kAvAssheBbVE+uvr1xo3IAAAAAAADYam+sfqF6VmPhrRJ+dwMBeJfY4Fjou1ffUn1N4+gDAAAAAAAAOF4fqn67+h/VWxc/If7uDgLwLrMUgg9Wj2hsA/+zxvEIAAAAAAAAcLQuq57X2Pp9SXXd+ieE391FAN6FNtgGPr16QvXvq8/IWfgAAAAAAABszrXVS6tfrJ7bCME3EH93HwF4F9sgBN+6+qrq31T3nz0fAAAAAAAAK+111a9Wv199ePETwu/uJQDvARuE4DtVX7v2cdfZ8wEAAAAAALBS3l791trHuxY/IfzufgLwHrJBCL539a+rJ1d3nD0fAAAAAAAAU727elb1m9WbFj8h/O4dAvAetBSCDzSOg/7G6iuq282eDwAAAAAAgB31/uoPqqc3jn2+fv0Twu/eIwDvYUsh+ITqwdXXVV+eEAwAAAAAALDXvb96dvWM6tXVteufEH73LgF4H9ggBD+o+urqSTkaGgAAAAAAYK95d/WH1TOr1yT87isC8D6xwf2B14+G/ueNEHz32TMCAAAAAABwXN7aCL+/29JRzyX+7hcC8D6zQQiuukcjAj+5ul9jSxgAAAAAAIDVd231+upZjfj7T8tfIPzuLwLwPnWIEHxe9YWNreCHVqfNnhMAAAAAAIANXV79XWPb9znVe5e/QPjdnwRgNorBt6we1QjBj6luPXtGAAAAAAAAqvpw9deN8PvC6iOLnxR9EYC5wQYh+JTqwY3job+wcVT0wdlzAgAAAAAA7DPXNY52fk7jmOdXV1cufoHwyzoBmJs4xPHQd64+r/qK6mHVGbPnBAAAAAAA2OMurV5R/UH1/1XvXP4C4ZdlAjCHtUEMPqNxf+AvaQThu1UnzJ4TAAAAAABgj7i2elsj+P5J4z6/ly5+gejL4QjAbMoGIfhAdafqsY0Y/PDqNrPnBAAAAAAA2KU+VL2sEX3/qnpXdf3iFwi/bIYAzFE5xPHQp1X3qz6/+oLqU6qbz54VAAAAAABgxX28em31vOr/VK+vLl/+IuGXoyEAc8wOEYPPqh7SiMGfU92rOn32rAAAAAAAACvisurN1fOr/7d6ZfXR5S8SfTlWAjDH7RAhuOq21adWn1s9OjEYAAAAAADYn9aj7wsam76vqj640RcKvxwvAZgtd4ggvB6DH1s9qrp3debsWQEAAAAAALbJJdWbqhc27um7YfQVfNlqAjDb5jCbwWdX968+q/rs6gHVOdXB2TMDAAAAAAAco+uqD1T/WL2o+pvqddXFG32x8Mt2EYDZMYcIwqdXd60+rRGEH1bdubr57HkBAAAAAACO4OPVO6tXNILv31dvbxz5fCOCLztFAGaKQ8Tgg42jou/TCMGf0dgOvn112uyZAQAAAACAfe/y6sLGlu9LG+H3jY2jna9b/mLRlxkEYFbCIYLwKdXtqvtWD2lE4XtX51Y3mz0zAAAAAACw532iel/jXr6vqF5ZvaF6f3Xl8hcLvqwCAZiVcpj7BtcIwudU96geWD24EYfvWJ1VnTR7fgAAAAAAYNe6uvpo9e5G5H119drqnxr39r3yUP+g8MsqEYBZaUcIwic0wu8dqns1jou+f+OewudWt0gUBgAAAAAAburq6mON7d63V69rHOv85uo9jRB87aH+YcGXVSYAs+scIQqf3IjC5zZC8L0bG8N3W7t268bx0SfOfhwAAAAAAMC2u6ZxjPOHG7H3bY2N3jc1wu/7GrH3qkP9C8RedhsBmF3vCEG4xqbwadWtqttX5zfi8J3WPs6rblmdmTgMAAAAAAC7zXrkvaT6SPXexjHO72hE3guqC6uLqss7zGZvCb7sfgIwe9YmwnCNMHx6dXZ1m+q2jSB8biMW33rt4+xGHD6tOrVxP+KDax8AAAAAAMDWum7t48rqika4/UR1cWOb98ONqPu+RvD9YPWhtc9ftvb1hyX0slcJwOxLm4zDBxqx97S1j1s2QvBZax+3asThsxY+btYIyjdrHEe9/s+29uubz37sAAAAAAAwwcf75DHLl699XNWIupet/fWjCx8fbmzsrv/64sZ27/o/e0V1/WZ+Y6GX/eb/BztNuj/PNi1XAAAAJXRFWHRkYXRlOmNyZWF0ZQAyMDIzLTAzLTMxVDE0OjQxOjI0KzAwOjAw34c3PAAAACV0RVh0ZGF0ZTptb2RpZnkAMjAyMy0wMy0zMVQxNDo0MToyNCswMDowMK7aj4AAAAAASUVORK5CYII=;" vertex="1" parent="1">
          <mxGeometry x="519.29" y="563" width="179.91" height="76" as="geometry" />
        </mxCell>
        <mxCell id="afmU8dC9JJLxZKjYQpjQ-45" value="Red PÃºblica" style="rounded=1;whiteSpace=wrap;html=1;" vertex="1" parent="1">
          <mxGeometry x="555" y="590" width="110" height="40" as="geometry" />
        </mxCell>
      </root>
    </mxGraphModel>
  </diagram>
</mxfile>
